<svg width="9" height="8" viewBox="0 0 9 8" fill="none" xmlns="http://www.w3.org/2000/svg">
<path d="M0.505899 4.91833L0.491851 4.91523L6.51424 4.91523L4.62102 6.82971C4.52831 6.92318 4.47746 7.0498 4.47746 7.18269C4.47746 7.31558 4.52831 7.44131 4.62102 7.535L4.91561 7.83239C5.00824 7.92586 5.13168 7.97754 5.26331 7.97754C5.39502 7.97754 5.51853 7.92623 5.61117 7.83276L8.85651 4.55849C8.94951 4.46465 9.00036 4.33965 9 4.20669C9.00036 4.07298 8.94951 3.94791 8.85651 3.85422L5.61117 0.579656C5.51853 0.486262 5.39509 0.434877 5.26331 0.434877C5.13168 0.434877 5.00824 0.486336 4.91561 0.579656L4.62102 0.877043C4.52831 0.970364 4.47746 1.09499 4.47746 1.22788C4.47746 1.3607 4.52831 1.47875 4.62102 1.57215L6.53561 3.49733L0.499167 3.49733C0.227924 3.49733 -3.23204e-06 3.73322 -3.20813e-06 4.00676L-3.17136e-06 4.42736C-3.14745e-06 4.7009 0.234655 4.91833 0.505899 4.91833Z" fill="white"/>
</svg>
