<svg width="27" height="28" viewBox="0 0 27 28" fill="none" xmlns="http://www.w3.org/2000/svg">
<g clip-path="url(#clip0)">
<path d="M25.0488 13.4532H21.1458V0.546918C21.1458 0.325761 21.0173 0.126316 20.8202 0.0416597C20.6231 -0.0430513 20.3963 0.0038706 20.2455 0.160168L18.7516 1.70936L17.2578 0.160222C17.0519 -0.0533325 16.718 -0.0533325 16.512 0.160222L15.0181 1.70941L13.5244 0.160222C13.3185 -0.0533325 12.9846 -0.0533325 12.7786 0.160222L11.2848 1.70941L9.79085 0.160222C9.58492 -0.0533325 9.25101 -0.0533325 9.04508 0.160222L7.55122 1.70941L6.05747 0.160222C5.85154 -0.0533325 5.51763 -0.0533325 5.31165 0.160222L3.81779 1.70941L2.32398 0.160222C2.11932 -0.05202 1.78831 -0.0531138 1.58185 0.157214C1.47343 0.267738 1.42085 0.415011 1.42449 0.5613V25.1564C1.42449 26.7244 2.65457 28 4.16657 28H22.8333C22.8334 28 22.8334 28 22.8335 28C22.8337 28 22.8339 28 22.834 28C24.346 28 25.5761 26.7244 25.5761 25.1564V14C25.5761 13.698 25.34 13.4532 25.0488 13.4532ZM4.16657 26.9062C3.23608 26.9062 2.47913 26.1212 2.47913 25.1563V1.86789L3.4449 2.86944C3.65083 3.083 3.98475 3.083 4.19073 2.86944L5.68459 1.32025L7.17845 2.86944C7.38437 3.083 7.71829 3.083 7.92427 2.86944L9.41813 1.32025L10.912 2.86944C11.118 3.083 11.4519 3.083 11.6578 2.86944L13.1517 1.32025L14.6455 2.86944C14.8515 3.083 15.1854 3.083 15.3913 2.86944L16.8852 1.32025L18.3791 2.86944C18.585 3.083 18.919 3.083 19.1248 2.86944L20.0914 1.86713V14C20.0914 14.005 20.092 14.0098 20.0921 14.0148V25.1563C20.0921 25.8159 20.3105 26.4233 20.6752 26.9062H4.16657ZM24.5214 25.1563C24.5214 26.1212 23.7644 26.9062 22.834 26.9062C21.9035 26.9062 21.1465 26.1212 21.1465 25.1563V14.5469H24.5214V25.1563Z" fill="#7192BD"/>
<path d="M11.2849 8.6874C10.7615 8.6874 10.3357 8.3093 10.3357 7.84462C10.3357 7.37988 10.7615 7.00177 11.2849 7.00177C11.8082 7.00177 12.234 7.37988 12.234 7.84462C12.234 8.14665 12.4701 8.39149 12.7614 8.39149C13.0526 8.39149 13.2887 8.14665 13.2887 7.84462C13.2887 6.95315 12.662 6.20098 11.8122 5.97665V5.6062C11.8122 5.30416 11.5761 5.05933 11.2849 5.05933C10.9936 5.05933 10.7575 5.30416 10.7575 5.6062V5.97665C9.90765 6.20098 9.28101 6.95321 9.28101 7.84462C9.28101 8.91239 10.18 9.7811 11.2849 9.7811C11.8082 9.7811 12.234 10.1592 12.234 10.6239C12.234 11.0887 11.8082 11.4667 11.2849 11.4667C10.7615 11.4667 10.3357 11.0886 10.3357 10.6239C10.3357 10.3219 10.0996 10.0771 9.80835 10.0771C9.5171 10.0771 9.28101 10.3219 9.28101 10.6239C9.28101 11.5154 9.9077 12.2676 10.7575 12.4919V12.9382C10.7575 13.2402 10.9936 13.485 11.2849 13.485C11.5761 13.485 11.8122 13.2402 11.8122 12.9382V12.4919C12.6621 12.2676 13.2887 11.5154 13.2887 10.6239C13.2887 9.55617 12.3897 8.6874 11.2849 8.6874Z" fill="#7192BD"/>
<path d="M16.583 8.68747H15.5552C15.2639 8.68747 15.0278 8.93231 15.0278 9.23434C15.0278 9.53638 15.2639 9.78122 15.5552 9.78122H16.583C16.8742 9.78122 17.1103 9.53638 17.1103 9.23434C17.1103 8.93231 16.8742 8.68747 16.583 8.68747Z" fill="#7192BD"/>
<path d="M7.01498 8.68747H5.98718C5.69593 8.68747 5.45984 8.93231 5.45984 9.23434C5.45984 9.53638 5.69593 9.78122 5.98718 9.78122H7.01498C7.30623 9.78122 7.54232 9.53638 7.54232 9.23434C7.54232 8.93231 7.30623 8.68747 7.01498 8.68747Z" fill="#7192BD"/>
<path d="M16.8495 14.766H8.49512C8.20387 14.766 7.96777 15.0109 7.96777 15.3129C7.96777 15.6149 8.20387 15.8598 8.49512 15.8598H16.8495C17.1407 15.8598 17.3768 15.6149 17.3768 15.3129C17.3767 15.0109 17.1407 14.766 16.8495 14.766Z" fill="#7192BD"/>
<path d="M6.09244 14.9263C5.99435 14.8245 5.8583 14.766 5.7196 14.766C5.58091 14.766 5.44486 14.8245 5.34677 14.9263C5.24869 15.028 5.19226 15.1691 5.19226 15.3129C5.19226 15.4567 5.24869 15.5978 5.34677 15.6995C5.44486 15.8013 5.58091 15.8598 5.7196 15.8598C5.8583 15.8598 5.99435 15.8013 6.09244 15.6995C6.19052 15.5978 6.24695 15.4567 6.24695 15.3129C6.24695 15.1691 6.19052 15.028 6.09244 14.9263Z" fill="#7192BD"/>
<path d="M16.8495 18.3753H8.49512C8.20387 18.3753 7.96777 18.6201 7.96777 18.9221C7.96777 19.2242 8.20387 19.469 8.49512 19.469H16.8495C17.1407 19.469 17.3768 19.2242 17.3768 18.9221C17.3767 18.6201 17.1407 18.3753 16.8495 18.3753Z" fill="#7192BD"/>
<path d="M6.09244 18.5355C5.99435 18.4338 5.8583 18.3753 5.7196 18.3753C5.58091 18.3753 5.44486 18.4338 5.34677 18.5355C5.24869 18.6372 5.19226 18.7783 5.19226 18.9221C5.19226 19.066 5.24869 19.2071 5.34677 19.3088C5.44486 19.4105 5.58091 19.469 5.7196 19.469C5.8583 19.469 5.99435 19.4105 6.09244 19.3088C6.19052 19.2071 6.24695 19.066 6.24695 18.9221C6.24695 18.7783 6.19052 18.6372 6.09244 18.5355Z" fill="#7192BD"/>
<path d="M16.8495 21.9846H8.49512C8.20387 21.9846 7.96777 22.2294 7.96777 22.5314C7.96777 22.8335 8.20387 23.0783 8.49512 23.0783H16.8495C17.1407 23.0783 17.3768 22.8335 17.3768 22.5314C17.3768 22.2294 17.1407 21.9846 16.8495 21.9846Z" fill="#7192BD"/>
<path d="M6.09244 22.1448C5.99435 22.0431 5.8583 21.9846 5.7196 21.9846C5.58091 21.9846 5.44486 22.0431 5.34677 22.1448C5.24869 22.2465 5.19226 22.3876 5.19226 22.5314C5.19226 22.6753 5.24869 22.8164 5.34677 22.9181C5.44486 23.0198 5.58091 23.0783 5.7196 23.0783C5.8583 23.0783 5.99435 23.0198 6.09244 22.9181C6.19052 22.8164 6.24695 22.6753 6.24695 22.5314C6.24695 22.3876 6.19052 22.2465 6.09244 22.1448Z" fill="#7192BD"/>
</g>
<defs>
<clipPath id="clip0">
<rect width="27" height="28" fill="white"/>
</clipPath>
</defs>
</svg>
