<svg width="29" height="28" viewBox="0 0 29 28" fill="none" xmlns="http://www.w3.org/2000/svg">
<g clip-path="url(#clip0)">
<path d="M8.12506 20.1203L7.0337 21.174C6.95005 21.1283 6.8559 21.1034 6.75982 21.1016H0.805846C0.477038 21.1016 0.210449 21.359 0.210449 21.6765V27.4251C0.210449 27.7426 0.477038 28 0.805846 28H6.75982C7.08863 28 7.35522 27.7426 7.35522 27.4251V22.4893L8.96696 20.9332L8.12506 20.1203ZM6.16442 26.8503H1.40124V22.2513H5.91793L3.78283 24.3128L3.01298 23.5695L2.17109 24.3824L3.36189 25.5321C3.59439 25.7565 3.97128 25.7565 4.20378 25.5321L6.16442 23.6391V26.8503Z" fill="#FFAF60"/>
<path d="M8.12506 9.77272L7.0337 10.8265C6.95005 10.7807 6.8559 10.7558 6.75982 10.754H0.805846C0.477038 10.754 0.210449 11.0114 0.210449 11.3289V17.0775C0.210449 17.395 0.477038 17.6524 0.805846 17.6524H6.75982C7.08863 17.6524 7.35522 17.395 7.35522 17.0775V12.1417L8.96696 10.5856L8.12506 9.77272ZM6.16442 16.5027H1.40124V11.9037H5.91793L3.78283 13.9652L3.01298 13.2219L2.17109 14.0348L3.36189 15.1845C3.59439 15.4089 3.97128 15.4089 4.20378 15.1845L6.16442 13.2915V16.5027Z" fill="#FFAF60"/>
<path d="M8.12506 0L7.0337 1.05373C6.95005 1.00796 6.8559 0.983094 6.75982 0.981297H0.805846C0.477038 0.981297 0.210449 1.23869 0.210449 1.55616V7.30483C0.210449 7.6223 0.477038 7.87969 0.805846 7.87969H6.75982C7.08863 7.87969 7.35522 7.6223 7.35522 7.30483V2.36902L8.96696 0.812862L8.12506 0ZM6.16442 6.72996H1.40124V2.13103H5.91793L3.78283 4.1925L3.01298 3.4492L2.17109 4.26206L3.36189 5.41179C3.59439 5.63621 3.97128 5.63621 4.20378 5.41179L6.16442 3.51876V6.72996Z" fill="#FFAF60"/>
<path d="M28.7895 21.27H11.5229V22.4198H28.7895V21.27Z" fill="#FFAF60"/>
<path d="M28.7895 24.7192H11.5229V25.869H28.7895V24.7192Z" fill="#FFAF60"/>
<path d="M28.7895 10.9225H11.5229V12.0722H28.7895V10.9225Z" fill="#FFAF60"/>
<path d="M28.7895 14.3716H11.5229V15.5214H28.7895V14.3716Z" fill="#FFAF60"/>
<path d="M28.7895 1.14973H11.5229V2.29947H28.7895V1.14973Z" fill="#FFAF60"/>
<path d="M28.7895 4.59894H11.5229V5.74866H28.7895V4.59894Z" fill="#FFAF60"/>
</g>
<defs>
<clipPath id="clip0">
<rect width="29" height="28" fill="white" transform="matrix(1 0 0 -1 0 28)"/>
</clipPath>
</defs>
</svg>
