<svg width="15" height="16" viewBox="0 0 15 16" fill="none" xmlns="http://www.w3.org/2000/svg">
<path d="M7.38591 15.3323C3.31317 15.3323 0 11.9895 0 7.8798C0 3.77106 3.31317 0.427734 7.38591 0.427734C11.4586 0.427734 14.7718 3.77106 14.7718 7.8798C14.7723 11.9895 11.4586 15.3323 7.38591 15.3323ZM7.38591 1.27952C3.7788 1.27952 0.844226 4.24039 0.844226 7.8798C0.844226 11.5197 3.7788 14.4806 7.38591 14.4806C10.993 14.4806 13.9276 11.5197 13.9276 7.8798C13.9281 4.24039 10.9935 1.27952 7.38591 1.27952Z" fill="#46AADC"/>
<path d="M9.65119 10.592C9.54275 10.592 9.43526 10.5507 9.35251 10.4672L7.08765 8.1817C7.00822 8.10155 6.96399 7.99356 6.96399 7.88029V3.04485C6.96399 2.80968 7.15281 2.61914 7.38633 2.61914C7.61938 2.61914 7.8082 2.8092 7.8082 3.04485V7.70415L9.9494 9.86486C10.1144 10.0314 10.1144 10.3011 9.9494 10.4672C9.86664 10.5507 9.75868 10.592 9.65119 10.592Z" fill="#46AADC"/>
</svg>
