<svg width="31" height="31" viewBox="0 0 31 31" fill="none" xmlns="http://www.w3.org/2000/svg">
<path d="M30.4833 5.16667H28.9333V2.58333C28.9333 2.29801 28.702 2.06667 28.4167 2.06667H19.6333C17.6313 2.06667 16.2099 2.67314 15.5 3.77838C14.7901 2.67314 13.3687 2.06667 11.3667 2.06667H2.58333C2.29801 2.06667 2.06667 2.29801 2.06667 2.58333V5.16667H0.516667C0.231339 5.16667 0 5.39801 0 5.68333V26.35C0 26.6353 0.231339 26.8667 0.516667 26.8667H11.6437C12.1371 27.4232 13.6586 28.9333 15.6337 28.9333C16.9824 28.9333 18.2362 28.2383 19.3647 26.8667H30.4833C30.7687 26.8667 31 26.6353 31 26.35V5.68333C31 5.39801 30.7687 5.16667 30.4833 5.16667ZM19.6333 3.1H27.9V22.7333H19.6333C18.0374 22.7333 16.8093 23.1178 16.0167 23.8333V5.68333C16.0167 3.9691 17.2334 3.1 19.6333 3.1ZM3.1 3.1H11.3667C13.7666 3.1 14.9833 3.9691 14.9833 5.68333V23.8333C14.1907 23.1178 12.9626 22.7333 11.3667 22.7333H3.1V3.1ZM29.9667 25.8333H19.1167C18.9572 25.8333 18.8064 25.9067 18.7085 26.0329C17.7465 27.2696 16.7137 27.9 15.639 27.9H15.6337C13.7739 27.9 12.3049 26.0508 12.2905 26.0321C12.1926 25.9067 12.0425 25.8333 11.8833 25.8333H1.03333V6.2H2.06667V23.25C2.06667 23.5353 2.29801 23.7667 2.58333 23.7667H11.3667C13.7666 23.7667 14.9833 24.6358 14.9833 26.35C14.9833 26.6353 15.2147 26.8667 15.5 26.8667C15.7853 26.8667 16.0167 26.6353 16.0167 26.35C16.0167 24.6358 17.2334 23.7667 19.6333 23.7667H28.4167C28.702 23.7667 28.9333 23.5353 28.9333 23.25V6.2H29.9667V25.8333Z" fill="#46AADC"/>
<path d="M5.68329 7.23333H12.4C12.6853 7.23333 12.9166 7.00199 12.9166 6.71666C12.9166 6.43134 12.6853 6.2 12.4 6.2H5.68329C5.39797 6.2 5.16663 6.43134 5.16663 6.71666C5.16663 7.00199 5.39797 7.23333 5.68329 7.23333Z" fill="#46AADC"/>
<path d="M5.68329 10.3333H12.4C12.6853 10.3333 12.9166 10.102 12.9166 9.81667C12.9166 9.53134 12.6853 9.3 12.4 9.3H5.68329C5.39797 9.3 5.16663 9.53134 5.16663 9.81667C5.16663 10.102 5.39797 10.3333 5.68329 10.3333Z" fill="#46AADC"/>
<path d="M5.68329 13.4333H12.4C12.6853 13.4333 12.9166 13.202 12.9166 12.9167C12.9166 12.6313 12.6853 12.4 12.4 12.4H5.68329C5.39797 12.4 5.16663 12.6313 5.16663 12.9167C5.16663 13.202 5.39797 13.4333 5.68329 13.4333Z" fill="#46AADC"/>
<path d="M5.68329 16.5333H12.4C12.6853 16.5333 12.9166 16.302 12.9166 16.0167C12.9166 15.7313 12.6853 15.5 12.4 15.5H5.68329C5.39797 15.5 5.16663 15.7313 5.16663 16.0167C5.16663 16.302 5.39797 16.5333 5.68329 16.5333Z" fill="#46AADC"/>
<path d="M5.68329 19.6333H12.4C12.6853 19.6333 12.9166 19.402 12.9166 19.1167C12.9166 18.8313 12.6853 18.6 12.4 18.6H5.68329C5.39797 18.6 5.16663 18.8313 5.16663 19.1167C5.16663 19.402 5.39797 19.6333 5.68329 19.6333Z" fill="#46AADC"/>
<path d="M18.6 7.23333H25.3167C25.602 7.23333 25.8334 7.00199 25.8334 6.71666C25.8334 6.43134 25.602 6.2 25.3167 6.2H18.6C18.3147 6.2 18.0834 6.43134 18.0834 6.71666C18.0834 7.00199 18.3147 7.23333 18.6 7.23333Z" fill="#46AADC"/>
<path d="M18.6 10.3333H25.3167C25.602 10.3333 25.8334 10.102 25.8334 9.81667C25.8334 9.53134 25.602 9.3 25.3167 9.3H18.6C18.3147 9.3 18.0834 9.53134 18.0834 9.81667C18.0834 10.102 18.3147 10.3333 18.6 10.3333Z" fill="#46AADC"/>
<path d="M18.6 13.4333H25.3167C25.602 13.4333 25.8334 13.202 25.8334 12.9167C25.8334 12.6313 25.602 12.4 25.3167 12.4H18.6C18.3147 12.4 18.0834 12.6313 18.0834 12.9167C18.0834 13.202 18.3147 13.4333 18.6 13.4333Z" fill="#46AADC"/>
<path d="M18.6 16.5333H25.3167C25.602 16.5333 25.8334 16.302 25.8334 16.0167C25.8334 15.7313 25.602 15.5 25.3167 15.5H18.6C18.3147 15.5 18.0834 15.7313 18.0834 16.0167C18.0834 16.302 18.3147 16.5333 18.6 16.5333Z" fill="#46AADC"/>
<path d="M18.6 19.6333H25.3167C25.602 19.6333 25.8334 19.402 25.8334 19.1167C25.8334 18.8313 25.602 18.6 25.3167 18.6H18.6C18.3147 18.6 18.0834 18.8313 18.0834 19.1167C18.0834 19.402 18.3147 19.6333 18.6 19.6333Z" fill="#46AADC"/>
</svg>
