<svg width="9" height="9" viewBox="0 0 9 9" fill="none" xmlns="http://www.w3.org/2000/svg">
<g clip-path="url(#clip0)">
<path d="M8.4941 3.79425L8.50815 3.79732L2.48576 3.79732L4.37898 1.89993C4.47169 1.8073 4.52254 1.68181 4.52254 1.5501C4.52254 1.41839 4.47169 1.29378 4.37898 1.20093L4.08439 0.906198C3.99176 0.813564 3.86832 0.762344 3.73669 0.762344C3.60498 0.762344 3.48147 0.813198 3.38883 0.905832L0.14349 4.15088C0.0504898 4.24388 -0.000363893 4.36776 1.96034e-06 4.49954C-0.000363893 4.63205 0.0504898 4.756 0.14349 4.84886L3.38883 8.0942C3.48147 8.18676 3.60491 8.23769 3.73669 8.23769C3.86832 8.23769 3.99176 8.18669 4.08439 8.0942L4.37898 7.79947C4.47169 7.70698 4.52254 7.58347 4.52254 7.45176C4.52254 7.32012 4.47169 7.20312 4.37898 7.11056L2.46439 5.20256L8.50083 5.20256C8.77208 5.20256 9 4.96878 9 4.69769V4.28083C9 4.00973 8.76534 3.79425 8.4941 3.79425Z" fill="#46AADD"/>
</g>
<defs>
<clipPath id="clip0">
<rect width="9" height="9" fill="white" transform="matrix(1 0 0 -1 0 9)"/>
</clipPath>
</defs>
</svg>
