<svg width="31" height="31" viewBox="0 0 31 31" fill="none" xmlns="http://www.w3.org/2000/svg">
<g clip-path="url(#clip0)">
<path d="M28.0396 25.6769L24.9661 22.6023V0.519437C24.9661 0.23258 24.7335 0 24.4467 0H8.86358C8.85369 0 8.8443 0.00507262 8.83441 0.00583352C8.78673 0.0081162 8.73955 0.0177542 8.69466 0.0337329C8.67944 0.0382983 8.66422 0.0436246 8.64951 0.0499653C8.59169 0.0748212 8.53893 0.110076 8.49378 0.153701L2.26054 6.38694C2.21692 6.43107 2.18166 6.48256 2.15655 6.53912C2.1492 6.55535 2.14514 6.57133 2.1393 6.58807C2.12434 6.63119 2.11546 6.67608 2.11293 6.72148C2.11293 6.73289 2.10608 6.74278 2.10608 6.7542V26.4913C2.10608 26.7781 2.33866 27.0107 2.62552 27.0107H20.5575L23.6315 30.0832C24.2136 30.6719 25.0077 31.0021 25.8356 31.0001C27.0974 31.0011 28.2352 30.2412 28.7178 29.0753C29.2002 27.9096 28.9324 26.5679 28.0391 25.6769H28.0396ZM23.6363 28.621L15.5513 20.5385L18.494 17.5954L26.5764 25.6809L23.6363 28.621ZM15.1118 19.5085L14.4075 16.4525L17.464 17.1564L15.1118 19.5085ZM8.34414 1.77339V6.23324H3.88429L8.34414 1.77339ZM3.14977 25.9718V7.27211H8.86358C9.15044 7.27211 9.38302 7.03953 9.38302 6.75268V1.03887H23.9272V21.563L18.8617 16.4936L18.8559 16.4901C18.813 16.4492 18.7636 16.416 18.7095 16.3919C18.6948 16.3856 18.6809 16.381 18.6664 16.3757C18.6482 16.3676 18.6297 16.3605 18.6106 16.3544L13.832 15.2534C13.6572 15.2128 13.4741 15.2653 13.3473 15.3919C13.2205 15.5187 13.1682 15.7021 13.2085 15.8766L14.3098 20.6555C14.3159 20.6745 14.323 20.6933 14.3311 20.7115C14.3364 20.7255 14.3405 20.7394 14.3473 20.7536C14.3712 20.8084 14.4049 20.8586 14.4465 20.9015L14.449 20.9058L19.5181 25.9718H3.14977ZM27.3036 29.3507C26.915 29.7405 26.3872 29.9597 25.8368 29.9597C25.2865 29.9597 24.7587 29.7405 24.3703 29.3507L24.6148 29.1057L27.3082 26.4129C27.698 26.802 27.9169 27.3305 27.9159 27.8814C27.9151 28.4323 27.6947 28.9601 27.3036 29.3482V29.3507Z" fill="#76BEBA"/>
<path d="M6.78604 10.3888H20.2914C20.5783 10.3888 20.8108 10.1562 20.8108 9.86932C20.8108 9.58246 20.5783 9.34988 20.2914 9.34988H6.78604C6.49918 9.34988 6.2666 9.58246 6.2666 9.86932C6.2666 10.1562 6.49918 10.3888 6.78604 10.3888Z" fill="#76BEBA"/>
<path d="M6.78604 13.5053H20.2914C20.5783 13.5053 20.8108 13.2728 20.8108 12.9859C20.8108 12.6991 20.5783 12.4665 20.2914 12.4665H6.78604C6.49918 12.4665 6.2666 12.6991 6.2666 12.9859C6.2666 13.2728 6.49918 13.5053 6.78604 13.5053Z" fill="#76BEBA"/>
<path d="M10.4221 15.5831H6.78604C6.49918 15.5831 6.2666 15.8156 6.2666 16.1025C6.2666 16.3894 6.49918 16.6219 6.78604 16.6219H10.4221C10.709 16.6219 10.9415 16.3894 10.9415 16.1025C10.9415 15.8156 10.709 15.5831 10.4221 15.5831Z" fill="#76BEBA"/>
</g>
<defs>
<clipPath id="clip0">
<rect width="31" height="31" fill="white"/>
</clipPath>
</defs>
</svg>
