<svg width="29" height="31" viewBox="0 0 29 31" fill="none" xmlns="http://www.w3.org/2000/svg">
<path d="M28.1212 29.5909V20.6667H27.2958H25.303H23.3103H17.7879H16.3788C15.6006 20.6667 14.9697 20.0358 14.9697 19.2576V17.8485V12.3261V10.3333V8.3406V7.51515H7.92423C7.14603 7.51515 6.51514 8.14605 6.51514 8.92424V19.5668V24.4242V27.2424V28.7772V29.5909C6.51514 30.3691 7.14603 31 7.92423 31H26.7121C27.4903 31 28.1212 30.3691 28.1212 29.5909Z" fill="white"/>
<path d="M21.0758 0.939394H13.9484C13.7548 0.392479 13.2344 0 12.6212 0H10.7424C10.1292 0 9.60895 0.392479 9.41525 0.939394H2.28788C1.50968 0.939394 0.878784 1.57029 0.878784 2.34848V25.8333C0.878784 26.6115 1.50968 27.2424 2.28788 27.2424H3.69697V24.4242V19.5668V3.75758H6.59706C6.79077 4.30449 7.311 4.69697 7.92424 4.69697H15.4394C16.0526 4.69697 16.5729 4.30449 16.7666 3.75758H19.6667V6.24049C19.7055 6.27515 19.7436 6.31085 19.7807 6.34795L21.6595 8.22674L22.4848 9.052V2.34848C22.4848 1.57029 21.8539 0.939394 21.0758 0.939394Z" fill="white"/>
<path d="M19.6666 10.2194L17.7878 8.3406V12.3261V17.8485H23.3103H27.2958L22.4848 13.0376L19.6666 10.2194Z" fill="white"/>
</svg>
