<svg width="20" height="20" viewBox="0 0 20 20" fill="none" xmlns="http://www.w3.org/2000/svg">
<path d="M5 0C4.3125 0 3.75 0.5625 3.75 1.25V18.75C3.75 19.4375 4.3125 20 5 20H17.5C18.1875 20 18.75 19.4375 18.75 18.75V5L13.75 0H5Z" fill="#E2E5E7"/>
<path d="M15 5H18.75L13.75 0V3.75C13.75 4.4375 14.3125 5 15 5Z" fill="#B0B7BD"/>
<path d="M18.75 8.75L15 5H18.75V8.75Z" fill="#CAD1D8"/>
<path d="M16.25 16.25C16.25 16.5938 15.9688 16.875 15.625 16.875H1.875C1.53125 16.875 1.25 16.5938 1.25 16.25V10C1.25 9.65625 1.53125 9.375 1.875 9.375H15.625C15.9688 9.375 16.25 9.65625 16.25 10V16.25Z" fill="#F15642"/>
<path d="M3.97424 11.8418C3.97424 11.6768 4.10424 11.4968 4.31362 11.4968H5.46799C6.11799 11.4968 6.70299 11.9318 6.70299 12.7656C6.70299 13.5556 6.11799 13.9956 5.46799 13.9956H4.63362V14.6556C4.63362 14.8756 4.49362 14.9999 4.31362 14.9999C4.14862 14.9999 3.97424 14.8756 3.97424 14.6556V11.8418ZM4.63362 12.1262V13.3712H5.46799C5.80299 13.3712 6.06799 13.0756 6.06799 12.7656C6.06799 12.4162 5.80299 12.1262 5.46799 12.1262H4.63362Z" fill="white"/>
<path d="M7.68167 14.9999C7.51667 14.9999 7.33667 14.9099 7.33667 14.6906V11.8518C7.33667 11.6724 7.51667 11.5418 7.68167 11.5418H8.82604C11.1098 11.5418 11.0598 14.9999 8.87104 14.9999H7.68167ZM7.99667 12.1518V14.3906H8.82604C10.1754 14.3906 10.2354 12.1518 8.82604 12.1518H7.99667Z" fill="white"/>
<path d="M11.8702 12.1918V12.9862H13.1446C13.3246 12.9862 13.5046 13.1662 13.5046 13.3406C13.5046 13.5056 13.3246 13.6406 13.1446 13.6406H11.8702V14.6899C11.8702 14.8649 11.7458 14.9993 11.5708 14.9993C11.3508 14.9993 11.2164 14.8649 11.2164 14.6899V11.8512C11.2164 11.6718 11.3514 11.5412 11.5708 11.5412H13.3252C13.5452 11.5412 13.6752 11.6718 13.6752 11.8512C13.6752 12.0112 13.5452 12.1912 13.3252 12.1912H11.8702V12.1918Z" fill="white"/>
<path d="M15.625 16.875H3.75V17.5H15.625C15.9688 17.5 16.25 17.2188 16.25 16.875V16.25C16.25 16.5938 15.9688 16.875 15.625 16.875Z" fill="#CAD1D8"/>
</svg>
