<svg width="62" height="100" viewBox="0 0 62 100" fill="none" xmlns="http://www.w3.org/2000/svg">
<g filter="url(#filter0_d)">
<path d="M45.2082 59.1486C45.1223 58.3348 44.7789 57.5638 44.135 57.0499C44.0492 57.007 44.0063 56.9214 43.9204 56.8785C42.2892 55.508 39.9713 55.5936 38.5547 56.8357C38.426 56.8357 38.3401 56.8785 38.2113 56.8785C34.9061 55.7649 30.957 56.0219 27.5229 56.0647C26.5786 54.6085 24.2606 54.1374 22.8012 55.0796C22.4578 55.2938 22.2002 55.508 21.9856 55.7649C20.612 56.0219 19.4101 57.0927 19.453 59.0201C19.453 60.3478 19.3242 61.6756 19.3242 63.0033C19.3242 66.3441 22.9299 66.9437 24.7757 65.3161C25.4196 65.4875 26.1064 65.5303 26.7503 65.359C27.7805 65.0592 28.8966 65.102 29.9697 65.1877C30.3989 65.2305 30.8282 65.2305 31.2145 65.2305C31.6008 65.2305 31.9872 65.1877 32.3306 65.102C34.4339 65.359 36.4085 65.2305 38.3401 64.5452C38.383 64.5452 38.426 64.5452 38.5118 64.5452C38.8552 64.9735 39.2845 65.3161 39.7567 65.5303C42.3322 68.8711 47.5261 66.9437 46.6676 62.575C46.3671 61.3329 45.895 60.1337 45.2082 59.1486Z" fill="#4A9200"/>
<path d="M48.9855 45.8285C48.9426 45.7856 48.8567 45.7428 48.8138 45.6571C48.3416 45.2288 47.6977 44.8862 47.0109 44.8005C46.7534 44.1581 46.5387 43.5156 46.1953 42.9588C45.6802 42.0594 44.6929 41.6311 43.7057 41.6311C43.6198 41.5026 43.534 41.3741 43.4481 41.2456C42.8901 40.3462 41.9887 40.2605 41.3018 40.6888C40.8297 40.6031 40.3146 40.646 39.7565 40.7745C39.4561 40.8601 39.1985 40.9886 38.9839 41.1171C37.3956 40.0463 34.9918 40.2605 34.305 42.2735C34.2192 42.2735 34.1763 42.3164 34.0904 42.3164C33.8328 42.3592 33.5324 42.402 33.2748 42.402C32.6309 42.3592 31.9871 42.2735 31.3432 42.1879C31.2573 42.1879 31.1715 42.145 31.0856 42.145C29.4545 41.888 27.5228 41.2456 25.8917 41.2028C25.1619 41.0314 24.4751 41.4169 24.0459 41.9737C23.4449 40.6888 21.7279 39.8322 20.4831 40.7745C19.5817 41.4597 18.809 42.3164 18.0793 43.3015C17.6929 43.6869 17.3495 44.1581 17.1349 44.7149C16.4052 45.9141 15.7613 47.1562 15.1604 48.2698C14.8599 48.8694 14.774 49.4691 14.8599 50.0259C14.8599 50.0687 14.8599 50.0687 14.8599 50.1115C14.3019 53.1097 17.5642 55.0799 19.8821 53.024C21.127 51.9532 21.7279 50.3685 22.1572 48.8266C22.2001 48.6124 22.243 48.4411 22.286 48.227C22.5435 48.3555 22.844 48.484 23.1874 48.5268C26.9648 49.0408 30.9139 49.4691 34.7343 49.2549C36.2796 49.1692 37.9966 48.9979 39.499 48.6553C40.0999 48.5268 40.8726 48.1413 41.4306 47.6702C41.6452 48.6981 41.9887 49.726 42.5896 50.5826C43.1476 51.3536 44.092 51.8247 44.9934 51.8676C46.5387 52.4672 48.3416 51.7391 48.8996 50.0259C50.0157 49.0408 50.1445 46.9421 48.9855 45.8285Z" fill="#4A9200"/>
<path d="M56.0682 20.8584C54.7804 20.1732 53.4927 20.5158 52.5054 20.9013C51.3464 21.3724 50.1874 22.1005 49.2002 22.9143C48.4275 20.7728 46.9251 18.9739 45.0793 17.6033C44.3067 16.7039 43.3623 15.9329 42.3321 15.419C39.9283 14.1769 37.1382 13.8771 34.4768 14.3054C33.79 13.3631 32.9315 12.4637 31.8154 11.7355C27.8234 9.03722 22.844 9.93666 18.9378 12.2923C19.0666 11.864 19.1525 11.4357 19.1954 11.0074C19.2383 10.365 18.7232 9.76534 18.1223 9.59402C14.6024 8.69457 12.6278 13.149 11.941 15.8473C11.2971 15.5475 10.5245 15.3761 9.58012 15.419V15.4618C8.33529 15.419 7.13338 16.0186 6.91876 17.432C6.74706 18.7169 6.36073 19.9162 7.13338 21.1583C7.30509 21.4581 7.51971 21.7579 7.73434 22.0577C7.64849 25.4841 8.76454 29.1247 10.4386 32.0372C12.1127 34.9497 15.0316 37.1341 18.251 37.7337C20.011 39.0186 22.1143 39.8324 24.3893 39.8752C25.5483 39.8752 26.6644 39.6611 27.6517 39.2328C27.6087 39.4041 27.6087 39.5754 27.6517 39.7895C27.6087 39.9609 27.5658 40.1322 27.5658 40.3892C27.5658 40.432 27.5658 40.432 27.5658 40.4748C27.5229 40.6462 27.5229 40.7747 27.48 40.946C27.3512 41.5456 27.2653 42.1024 27.1795 42.702C27.1366 43.0447 26.9649 44.4581 27.1366 43.0018C26.9649 44.2439 27.0507 45.3147 27.9951 46.257C29.0253 47.2849 30.7852 47.5847 32.03 46.7709C33.9188 45.5288 35.0777 42.702 33.1032 40.9031C33.0603 40.7318 33.0173 40.6033 32.9315 40.432C33.8329 40.432 34.7773 40.3892 35.6358 40.2179C38.941 39.7039 42.2033 38.2477 44.7359 36.2346C44.7789 36.1918 44.8647 36.149 44.9076 36.1061C47.3114 34.6071 49.2002 32.3799 50.0587 29.9814C51.1747 30.1527 52.3337 29.81 53.1922 28.9963C54.1795 28.054 54.6946 27.1974 55.5531 26.2123C56.4975 25.1843 57.0555 24.0707 57.0984 22.7002C57.0984 21.9292 56.7121 21.2011 56.0682 20.8584Z" fill="#FDF0DA"/>
<path d="M18.2511 26.5545C17.736 25.4837 16.62 24.5415 15.4181 24.2845C15.2035 24.156 14.9888 24.0703 14.7742 23.9847C13.5723 23.5135 12.2845 23.9418 11.2114 24.413C9.62317 25.0983 8.80759 26.7686 8.72174 28.439C8.67881 29.8953 9.45147 31.3087 10.3958 32.3366C11.5977 33.6215 13.4006 34.1783 15.0747 33.8785C16.4054 33.6215 17.8219 32.5079 18.3799 31.2659C19.1097 29.6383 19.0238 28.0964 18.2511 26.5545Z" fill="#F7BFA7"/>
<path d="M52.6343 28.6532C52.0334 25.0554 47.8267 23.5135 44.9078 25.3552C44.0922 25.8692 43.4483 26.6401 43.0191 27.4539C42.2035 28.3962 41.8601 29.4241 41.7742 30.6662C41.6884 32.5936 42.9332 34.6495 44.5644 35.5489C46.7536 36.7482 49.3291 35.9772 51.0461 34.3496C52.5914 32.8077 52.9348 30.6662 52.6343 28.6532Z" fill="#F7BFA7"/>
<path d="M55.5102 14.2624C55.081 12.1208 53.7503 10.4505 51.9045 9.55102C51.3035 6.7242 49.5865 4.24003 46.7105 3.68323C45.0364 3.38342 43.1477 3.76889 41.6454 4.66834C41.5595 4.58267 41.4737 4.45418 41.3449 4.36852C40.8727 3.42625 40.1859 2.56964 39.2845 1.88435C37.224 0.342452 34.6485 -0.214346 32.1159 0.171129C31.3004 0.299621 30.8282 0.642265 30.5277 1.15623C29.5834 0.685096 28.4673 0.513774 27.3512 0.856418C26.4927 0.685096 25.5054 0.685096 24.5182 0.856418C20.8266 1.41322 18.1652 3.89739 16.7916 7.23817C15.0317 11.4784 20.3115 14.1339 23.9172 14.3052C24.9903 15.4188 26.4069 16.0613 28.081 16.0184C28.7678 17.3462 29.9268 18.3741 31.6867 18.8024C32.5881 19.0166 33.4896 19.0594 34.3051 18.9309C35.5929 19.1451 37.0094 18.8881 38.2972 18.2884C38.6406 18.5883 39.0269 18.8881 39.4132 19.1022C41.3449 20.173 43.0619 20.173 44.4355 19.5305C45.0794 19.8732 45.8091 20.0445 46.5818 20.0873C48.0841 20.9868 50.0587 21.2866 51.7757 20.8154C54.7376 20.1302 56.0682 17.0892 55.5102 14.2624Z" fill="#ECC547"/>
<path d="M43.6197 52.3815C43.6197 50.497 41.8598 48.3126 39.7994 48.5696C37.6961 48.8266 35.3781 49.0836 33.1031 48.9979C33.0172 48.9979 32.8884 48.9979 32.8026 48.9551C29.8407 48.5268 27.0506 47.4988 24.0458 47.1134C20.3972 46.6422 18.7231 52.7242 22.1142 54.1804C22.4147 54.3089 22.7151 54.4374 23.0156 54.523C23.0585 54.523 23.0585 54.523 23.1015 54.523C23.5736 54.6944 24.0887 54.8657 24.6038 55.037C26.0633 56.0221 27.7803 56.6646 29.7549 56.9215C31.7294 57.2214 33.704 57.2214 35.6786 57.4783C37.4385 57.6925 39.2414 57.6497 40.8296 56.7074C41.4735 56.3219 41.9457 55.7651 42.2461 55.1655C43.0617 54.6087 43.6197 53.6664 43.6197 52.3815Z" fill="#45B4B7"/>
<path d="M47.1395 70.0277C46.9678 69.3852 46.9249 68.7428 46.7103 68.1432C46.4098 67.2866 45.7659 66.6013 44.9933 66.2158C44.7357 65.8732 44.4782 65.5305 44.1348 65.1879C41.9456 63.0463 37.8677 63.3461 35.0775 63.7745C32.4162 64.1599 29.9694 64.2884 27.3081 64.2884C27.0934 64.2884 26.8788 64.2884 26.6642 64.3312C25.5481 63.2177 23.6165 63.2177 22.6721 64.8024C22.5863 64.9737 22.5004 65.1022 22.4146 65.2735C21.8136 64.8452 20.8263 64.9309 20.6976 65.7875L20.6546 66.0445C20.5688 66.5156 20.7405 66.8582 20.9551 67.1152C20.9122 67.3722 20.8263 67.8005 20.7405 68.186C20.6546 68.443 20.6117 68.7 20.5688 68.9569C20.3542 69.7707 20.6117 70.456 21.1268 70.9271C21.5132 71.6981 22.2858 72.2121 23.1443 72.3405C24.4321 73.497 27.0934 73.0687 27.8232 71.0985C27.9519 70.713 28.0807 70.3275 28.2095 69.942C28.2524 69.942 28.2953 69.942 28.3383 69.942C29.7548 70.0277 31.0855 70.0277 32.4591 69.8992C32.9313 69.8564 35.8931 69.5566 37.9535 69.5137C38.0823 71.227 38.6833 72.8117 39.4559 74.4821C40.0998 75.8526 42.3748 76.4951 43.5767 75.5528C44.2206 75.0817 44.6928 74.6106 45.0791 74.0109C46.7961 73.5398 48.1268 71.8694 47.1395 70.0277Z" fill="#00588F"/>
<path d="M24.4754 82.1916C22.1145 81.9774 19.6248 83.605 17.6074 84.5901C16.5772 85.104 16.7489 86.9457 17.9508 87.1171C20.2687 87.4597 22.7584 86.6459 24.9905 85.9178C27.1368 85.2754 26.6217 82.3629 24.4754 82.1916Z" fill="#00588F"/>
<path d="M50.1443 88.0163C49.8867 86.5601 48.2556 86.1318 47.0107 85.7463C46.0235 85.4465 44.5211 85.1467 43.4909 85.2752C42.5894 85.3608 42.1602 86.1318 42.5036 86.9884C42.9328 87.9735 44.0918 88.4875 44.9503 89.0443C45.4654 89.3441 46.1093 89.5154 46.6244 89.8152C47.3971 90.2435 47.9551 90.5005 48.8565 90.2863C49.9297 89.9865 50.316 88.9586 50.1443 88.0163Z" fill="#00588F"/>
<path d="M52.2478 88.4876C52.2478 86.9029 50.7454 86.132 49.4147 85.618C48.5562 85.2753 47.6119 85.0612 46.7104 84.8899C45.8519 84.7186 45.1222 84.8042 44.2208 84.847C43.8344 84.8899 43.491 84.847 43.1047 84.8899C43.1047 84.847 43.1047 84.847 43.1047 84.8042C43.0618 84.5472 43.0618 84.3331 43.0618 84.0761C43.0188 83.0053 43.0188 81.9346 43.0188 80.8638C43.0188 79.1077 43.4481 77.3089 43.1476 75.5528C43.491 75.51 43.8344 75.4672 44.1778 75.4672C45.6802 75.4672 46.8392 74.8247 47.1397 73.2828C47.4831 71.5267 46.6675 69.8135 46.8392 68.1003C46.925 67.415 46.925 66.7297 46.968 66.0444C47.1826 65.9588 47.3114 65.7446 47.2255 65.4448C47.1826 65.3591 47.1826 65.3163 47.1397 65.2307C47.3114 65.1022 47.3543 64.888 47.2685 64.6739L47.0109 64.0314C46.968 63.9029 46.8821 63.8172 46.7963 63.7744C46.7104 63.3461 46.6675 62.9606 46.6246 62.5323C46.4958 61.4187 46.3241 60.3051 46.0665 59.1915C45.5944 57.1785 45.0363 55.1655 44.5212 53.1524C45.7661 52.0388 47.3114 51.3536 48.7279 50.4969C48.5991 50.7111 48.5991 51.0537 48.8996 51.2251C49.3718 51.482 49.4576 52.0817 49.6293 52.5528C49.844 53.1953 50.2303 53.8377 50.5308 54.4374C51.0888 55.6366 51.7327 56.8787 52.119 58.1636C52.72 60.1767 53.3209 62.3182 53.3209 64.4169C53.1921 64.4597 53.0634 64.5025 52.9775 64.6739C52.4195 65.8731 51.6039 66.901 50.96 68.0575C50.9171 68.1003 50.8742 68.1431 50.8312 68.2288L50.6166 68.6571C50.3591 69.2139 51.2176 69.5994 51.5181 69.0426C51.9044 68.2716 52.3766 67.5435 52.8487 66.8154C52.9346 67.2009 52.8917 67.7148 52.8487 68.0575C52.8487 68.3145 52.8058 68.5714 52.7629 68.8284C52.5912 68.9141 52.5053 69.0426 52.5483 69.2996C52.5912 69.3852 52.5912 69.4709 52.5912 69.5994C52.5483 69.685 52.5483 69.7707 52.5053 69.8135C52.2478 70.3703 53.1492 70.7986 53.4068 70.199C53.4497 70.1133 53.4497 70.0705 53.4926 69.9848C53.7072 69.2996 53.7931 68.5714 53.836 67.8861C53.836 67.5435 53.836 67.1152 53.7931 66.7726C54.1365 67.5435 54.4799 68.2716 54.6087 69.0854C54.3082 69.2139 54.1794 69.6422 54.4799 69.8992C54.6087 69.9848 54.6945 70.199 54.8233 70.3275C55.0809 70.5416 55.596 70.4132 55.596 70.0277C55.6818 68.6143 54.995 67.3722 54.4799 66.0873C55.5101 66.8154 57.27 68.2288 56.8408 68.5714C56.3686 68.9569 56.9266 69.7707 57.3988 69.3424C59.1588 67.929 55.3384 65.2735 54.2223 64.7595C54.2653 62.4038 53.6214 60.0482 52.9775 57.821C52.5483 56.3219 51.8185 54.9513 51.1317 53.5379C50.8312 52.8955 50.5308 52.253 50.2732 51.5677C50.0586 51.0109 49.7581 50.6254 49.243 50.3256C49.1572 50.2828 49.1142 50.2828 49.0284 50.2828C49.9298 49.726 50.7454 49.1264 51.4322 48.3126C51.561 48.1413 51.561 47.8843 51.4322 47.713C50.3161 46.1282 48.7708 45.0575 47.2255 43.9439C46.3241 43.3442 45.6373 42.659 44.9076 41.8452C44.3066 41.1171 43.6627 40.4318 42.8901 39.875C43.3623 39.6608 43.8344 39.4038 44.3066 39.1469C47.9982 37.1338 51.1747 34.1785 52.72 30.1953C55.4243 29.9811 57.5276 27.0686 57.7851 24.4988C57.9998 22.7428 57.313 20.901 55.6818 20.0444C54.2653 19.3163 52.7629 20.0873 51.7756 21.2437C51.6898 21.0295 51.561 20.8154 51.4751 20.6012C52.0332 20.0444 52.4624 19.402 52.72 18.5882C53.278 16.9606 52.72 15.2902 51.0459 14.6478C50.4449 14.4336 50.0586 15.2902 50.6595 15.5472C51.9044 16.0184 52.2049 17.132 51.8185 18.374C51.6468 18.9308 51.3464 19.3591 51.0029 19.7446C50.96 19.7018 50.9171 19.6161 50.8742 19.5733L50.7454 19.1878C50.5308 18.5882 49.6293 18.9308 49.844 19.5305C49.8869 19.659 49.9727 19.8303 50.0157 19.9588C50.0586 20.0873 50.1444 20.2586 50.1874 20.3871C49.801 20.6012 49.3718 20.7726 48.8996 20.8582C47.2684 21.2009 45.5944 20.7297 44.5212 19.4448C44.3066 19.1878 44.0491 18.8452 43.8344 18.5025C43.8774 18.4169 43.9203 18.3312 43.9632 18.2456C44.3925 17.2604 44.8217 15.5472 43.9203 14.6906C43.7915 14.5621 43.6627 14.4765 43.491 14.3908C43.2764 14.3051 43.0618 14.3908 42.933 14.5193C41.9457 15.6329 42.1603 17.132 42.8042 18.4169C42.7184 18.5882 42.6325 18.7167 42.5467 18.8023C41.3448 20.5584 38.5546 19.8731 37.3956 18.4169C37.0522 18.0314 36.8805 17.5603 36.7947 17.132C37.6961 16.3182 38.6834 15.2474 38.9409 14.0053C39.1556 13.1059 38.2971 11.9923 37.3527 12.2921C36.4084 12.5919 36.065 14.1767 35.8933 15.0333C35.7645 15.5901 35.7215 16.1897 35.8074 16.7465C35.5499 16.9606 35.2923 17.1748 34.9918 17.3461C33.2748 18.631 31.0856 19.402 28.9394 19.2735C27.3082 19.1878 25.5912 18.8452 24.7756 17.3033C24.5181 16.875 24.3893 16.361 24.3464 15.8899C24.5181 15.8899 24.6898 15.8899 24.8615 15.8899C26.6643 15.8899 28.5101 15.5901 30.1413 14.7763C31.5578 14.091 32.9314 12.7632 32.8026 11.0929C32.6739 9.59378 31.0427 8.18038 29.6262 7.83773C28.0379 7.45226 26.6643 8.3517 25.5483 9.42246C24.1747 10.7502 23.3591 12.8917 23.3591 14.9476C22.6723 14.9476 22.0284 14.9048 21.3416 14.8619C19.2812 14.7334 17.0491 14.1338 15.8472 12.2921C15.6325 11.9495 15.5037 11.6068 15.4179 11.2213C15.5467 11.1357 15.6325 11.05 15.7613 10.9215C15.7613 10.8359 15.7613 10.7502 15.7613 10.6217C16.0189 10.9215 16.6198 10.7502 16.6198 10.2362C16.6198 9.85077 16.4052 9.50812 16.0189 9.42246C15.8042 9.37963 15.5467 9.46529 15.375 9.59378C15.4179 9.16548 15.5467 8.78 15.6754 8.39453C16.6627 5.99602 18.7231 3.59751 20.9982 2.14127C24.0888 0.171065 29.5832 0.428048 31.1285 4.23997C31.3432 4.79676 32.2875 4.45412 32.03 3.89732C30.6564 0.470879 26.6643 -0.471393 23.3161 0.213896C20.526 0.770693 18.3368 2.7409 16.6627 4.92526C15.4608 6.50998 14.3448 8.60868 14.4306 10.6217C14.0443 11.0072 13.7009 11.4355 13.4863 11.8638C13.4433 11.9066 13.4433 11.9923 13.4433 12.0351C12.5848 13.0202 11.898 14.091 11.2112 15.1618C11.0824 14.6478 10.9107 14.2195 10.782 13.9625C9.75176 12.1636 7.6055 13.4057 6.53237 14.4336C5.20168 15.7614 3.74222 17.9886 4.0427 19.9588C4.2144 20.9867 5.37338 21.672 6.27481 21.929C6.96162 22.1003 7.73427 22.186 8.464 22.0575C8.1206 23.6422 8.03475 25.2698 8.20645 26.8973C8.54985 30.3666 10.181 33.5361 12.6278 35.9774C14.8599 38.2474 17.8646 39.8321 20.8694 40.9029C20.6119 41.1599 20.2255 41.374 19.968 41.631C19.4958 42.1022 19.0665 42.659 18.6373 43.1729C17.8646 44.2009 17.0491 45.2288 16.3193 46.2996C15.6325 47.2847 15.1174 48.3554 14.3448 49.2549C13.658 50.1115 13.0141 51.0109 12.7136 52.0817C12.6707 52.2958 12.7995 52.51 13.0141 52.5956C14.0014 53.024 14.9457 53.4523 15.933 53.9234C15.8901 53.9662 15.8471 54.0091 15.8042 54.0947C14.9457 56.0221 14.0872 57.9495 13.3575 59.9197C12.7565 61.5472 12.3702 63.3033 11.7263 64.9308C10.9107 65.7875 10.0522 66.6441 9.23666 67.4578C8.85033 67.7148 8.54985 68.0146 8.2923 68.4858C8.03475 68.9997 8.76448 69.3852 9.10788 68.9997C9.36543 68.7428 9.58006 68.4858 9.83761 68.2288C9.96639 68.186 10.0522 68.0575 10.0952 67.9718C10.5673 67.5007 10.9966 67.0724 11.4688 66.6012C11.5546 67.1152 11.2112 68.0575 11.1254 68.4001C10.9537 69.0854 10.6961 69.7707 10.6103 70.456C10.5244 71.0128 11.2971 71.2269 11.5117 70.713L11.7263 70.2847C11.8122 70.1133 11.7692 69.9848 11.7263 69.8564C11.8551 69.2567 12.0697 68.6143 12.2414 68.0146C12.2844 67.7577 12.3702 67.415 12.4131 67.0724C12.8853 68.1431 13.057 69.3424 13.3146 70.4988C13.4433 71.0556 14.1301 71.0556 14.2589 70.4988C14.3448 70.1133 14.216 69.7707 14.0872 69.3852C14.0872 69.3424 14.0443 69.2996 14.0443 69.2996C13.8297 68.4001 13.615 67.4578 13.2287 66.6012C13.7438 66.9867 14.216 67.5007 14.5594 68.0575C14.9028 68.5714 15.6754 68.0146 15.332 67.5007C14.8169 66.6869 14.0872 65.9588 13.2287 65.4876C13.1858 65.4448 13.1429 65.402 13.0999 65.402L12.8853 65.3163C12.7995 65.2735 12.7136 65.2735 12.6278 65.2735C13.2716 63.6888 13.658 61.9755 14.216 60.3908C14.9028 58.4206 15.8042 56.4932 16.6627 54.5658C16.7057 54.523 16.7057 54.4374 16.7057 54.3945C17.0491 54.5658 17.3925 54.78 17.6929 54.9513C18.208 55.2511 18.8519 55.5938 19.4958 55.7651C19.3241 56.7074 19.1524 57.6925 19.0665 58.6776C18.9807 59.6627 19.0236 60.6478 19.0236 61.6329C18.9807 62.7465 18.8948 64.3312 20.0109 64.9308C20.1397 66.1729 19.8392 67.415 19.9251 68.6571C20.0538 70.2418 20.526 71.8694 20.1397 73.4541C20.0968 73.6683 20.2255 73.8824 20.4402 73.9681C21.2987 74.2679 22.1572 74.0966 23.0586 73.9253C23.402 73.8396 23.7454 73.7968 24.0888 73.7968C24.0888 73.8396 24.0888 73.8396 24.0888 73.8824C24.561 75.2958 24.1317 76.9234 24.0459 78.3796C23.96 80.1357 24.1317 81.8917 24.2605 83.6906C22.4147 83.1338 20.4402 83.3908 18.5944 84.0333C17.5642 84.3759 15.6325 85.3182 16.4052 86.7316C17.2637 88.3163 19.5387 88.4876 21.084 88.2735C22.801 88.0593 24.7756 87.1599 25.4195 85.4467C25.5483 85.1469 25.3336 84.8899 25.0761 84.8042C25.2049 84.7186 25.2907 84.5472 25.2907 84.3331C25.2049 82.2772 24.9044 80.2213 25.0332 78.1655C25.119 76.7092 25.4624 75.1673 25.0761 73.7111C25.3766 73.7111 25.72 73.6683 26.0204 73.5826C26.6643 73.4541 27.3082 73.2828 27.6087 72.6403C27.9521 71.9122 27.9092 71.0984 27.9521 70.3275C27.995 69.5994 28.0379 68.9997 28.7677 68.6999C29.4974 68.4001 30.3559 68.4429 31.0856 68.4858C32.4592 68.5286 33.8328 68.7428 35.2494 68.7428C36.1079 68.7428 37.0093 68.7428 37.8249 69.0426C38.6405 69.3852 38.5546 70.2847 38.5975 71.0128C38.6405 72.3405 38.6405 74.0537 39.5848 75.1245C40.057 75.6385 40.5721 75.7241 41.2589 75.6813C41.5594 75.6813 41.9028 75.6385 42.2033 75.5956C42.4179 76.9662 42.1174 78.294 42.1174 79.6646C42.0745 81.3349 42.0745 83.0482 42.1603 84.7186C41.9886 84.7186 41.8599 84.8042 41.774 84.9755C41.1301 86.4746 41.0443 87.7595 42.1603 89.0444C43.2335 90.2865 44.9934 91.0146 46.4958 91.5286C47.6977 91.9569 49.1142 92.1711 50.3591 91.6143C51.6039 91.186 52.2478 89.7726 52.2478 88.4876ZM4.98706 19.7018C4.77243 18.2884 5.88849 16.7037 6.74699 15.7186C7.34795 14.9904 8.85033 13.4485 9.83761 14.2623C10.181 14.5621 10.3098 15.1189 10.3956 15.5472C10.4386 15.7614 10.4386 16.0184 10.3956 16.2325C10.3527 16.4038 10.2669 16.4895 10.3527 16.4467C9.96639 16.5752 9.96639 16.9606 10.181 17.1748C9.53713 18.4169 9.06496 19.7018 8.72155 21.0295C7.39087 21.2865 5.20168 21.1152 4.98706 19.7018ZM12.2844 65.9159C12.2844 66.0016 12.3702 66.0873 12.4131 66.1301C12.3702 66.1301 12.3702 66.1729 12.3273 66.1729C12.2844 66.0873 12.2414 66.0016 12.1985 65.9159C12.2414 65.9159 12.2844 65.9159 12.2844 65.9159ZM24.6898 84.847C24.6468 84.8899 24.561 84.9755 24.561 85.0612C23.6596 87.5025 19.367 88.1022 17.5212 86.5174C16.534 85.7037 18.809 84.9755 19.3241 84.8042C21.084 84.2474 22.9298 84.0761 24.6468 84.847H24.6898ZM46.5816 44.5435C48.0411 45.5714 49.5006 46.5565 50.6166 47.9699C48.8996 49.8545 46.3241 50.5826 44.3495 52.1245C44.0061 50.7111 43.6627 49.2977 43.3622 47.8415C43.4052 47.713 43.3623 47.5416 43.2764 47.4131C43.1047 46.7279 42.9759 46.0426 42.8471 45.3573C42.6754 44.5007 42.5467 43.6869 42.4608 42.8303C42.4179 42.2735 42.332 41.6739 42.0745 41.1599C42.1174 40.9457 42.0745 40.7316 41.8169 40.6031L41.6452 40.5174C41.8599 40.4318 42.0745 40.3461 42.2891 40.2604C42.2891 40.3889 42.332 40.5174 42.4608 40.6031C44.0061 41.7167 44.9934 43.4299 46.5816 44.5435ZM56.1111 21.3294C57.1413 22.2288 57.1842 23.942 56.8837 25.1413C56.4545 26.9402 55.0379 28.739 53.2351 29.1245C53.7931 26.8545 53.3638 24.4131 52.4624 22.186C53.278 20.9867 54.7804 20.2158 56.1111 21.3294ZM43.5769 15.5901C43.8344 16.0184 43.7486 16.6608 43.491 17.3033C43.3193 16.7037 43.3193 16.104 43.5769 15.5901ZM37.8678 13.2772C37.8678 13.2772 38.1254 13.5342 38.1683 13.6199C38.2971 13.8768 38.0824 14.2623 37.9537 14.5193C37.6961 15.0761 37.3098 15.5472 36.8805 15.9755C36.9235 15.5044 37.0522 14.9904 37.181 14.5621C37.3098 14.1767 37.4815 13.4914 37.8678 13.2772ZM27.6516 9.16548C29.2828 8.18038 31.6007 9.50812 31.9441 11.307C32.1158 12.2493 31.2573 13.0631 30.5705 13.577C29.7549 14.1767 28.6818 14.5193 27.6945 14.6906C26.6643 14.9048 25.5483 14.9904 24.4322 15.0333C24.4322 14.348 24.561 13.7055 24.7756 13.1059C25.2049 11.4783 26.1492 10.0649 27.6516 9.16548ZM14.4306 36.32C11.5546 33.9644 9.66591 30.6664 9.19373 26.983C8.97911 25.2698 9.10788 23.5137 9.45128 21.8005C9.79469 21.672 9.79469 21.2865 9.62299 21.0724C9.92346 20.0444 10.2669 19.0165 10.739 18.0314C11.5546 16.2753 12.6707 14.5193 13.9155 13.0202C14.1731 12.7204 14.4306 12.3778 14.7311 12.078C14.774 12.1636 14.774 12.2493 14.8169 12.2921C16.1476 15.6329 20.1826 15.9327 23.4879 15.9327C23.5737 16.4895 23.7025 17.0463 23.9171 17.5603C25.3336 20.7297 29.7549 20.6869 32.5451 19.7875C33.8328 19.3591 35.0777 18.6739 36.1508 17.8172C36.2796 18.1599 36.4513 18.5025 36.623 18.8452C37.4815 20.2586 39.499 20.9867 41.0872 20.8154C42.0745 20.7297 42.8901 20.1301 43.4481 19.402C43.534 19.5733 43.6627 19.7018 43.7915 19.8731C45.0793 21.5435 47.1397 22.186 49.1572 21.8005C49.7152 21.7148 50.2303 21.5435 50.6595 21.2865C50.6595 21.3294 50.7025 21.3722 50.7025 21.415C50.7883 21.6292 50.96 21.7148 51.1317 21.7148C51.2176 21.8433 51.2605 21.9718 51.3034 22.1431C51.2605 22.2288 51.2176 22.2716 51.2176 22.3573C51.0459 22.7428 51.3464 22.9997 51.6898 23.0426C51.8615 23.5137 52.0332 23.9848 52.119 24.4988C52.5053 26.0835 52.5053 27.7111 52.119 29.253C51.9044 29.253 51.7327 29.2102 51.5181 29.1245C50.9171 28.9532 50.7883 29.8955 51.3893 30.0668C51.561 30.1096 51.6898 30.1524 51.8615 30.1524C51.8185 30.3238 51.7327 30.4951 51.6468 30.6664C50.7025 32.8508 49.0713 34.6925 47.2685 36.1915C44.2637 38.6757 40.4004 40.1748 36.623 40.9886C32.8026 41.8023 28.8106 41.7595 24.9902 41.0314C21.2128 40.3033 17.4354 38.7186 14.4306 36.32ZM17.4783 53.6664C16.3193 52.9811 15.0745 52.4672 13.8297 51.9532C14.1731 51.0109 14.9028 50.1971 15.5467 49.4262C16.3193 48.4839 16.8774 47.2847 17.5642 46.2567C18.251 45.2716 19.0236 44.2865 19.7534 43.3442C20.1397 42.8731 20.5689 42.3591 21.0411 41.9737C21.3416 41.7167 21.5991 41.5025 21.8138 41.2027C21.9855 41.2456 22.1572 41.3312 22.3289 41.374C22.5435 41.4597 22.7581 41.5025 22.9727 41.5454C21.2128 45.186 20.6119 49.1264 19.968 53.0668C19.9251 53.1524 19.8821 53.2809 19.9251 53.3666C19.8392 53.8377 19.7534 54.3089 19.6675 54.8228C18.8948 54.6515 18.0363 54.0091 17.4783 53.6664ZM23.8313 42.145L24.0459 42.2307C24.3464 42.3591 24.6039 42.1878 24.6898 41.9308C27.3511 42.4876 30.0983 42.659 32.8456 42.4448C33.3607 43.5156 32.7168 44.929 31.8583 45.6143C30.3559 46.7707 29.4115 44.7148 29.8837 43.4299C30.0983 42.8731 29.2398 42.4448 28.9823 43.0444C28.2526 44.929 29.5403 47.6273 31.8583 46.7279C33.4894 46.0854 34.305 43.9867 33.8328 42.3591C36.2367 42.1022 38.6405 41.5882 40.9155 40.7316C40.8726 40.8601 40.8726 41.0314 40.9584 41.1599C41.4306 41.8023 41.4306 42.659 41.4735 43.4299C41.5165 44.415 41.8169 45.3573 41.9886 46.2996C42.0745 46.6422 42.1174 46.942 42.2033 47.2847C42.0745 47.3275 41.9457 47.4132 41.8169 47.5416C41.7311 47.6273 41.6882 47.7558 41.6882 47.8415C40.8297 48.2269 39.7136 48.2269 38.8122 48.2269C37.4815 48.1841 36.1937 47.9699 34.863 47.9271C32.9743 47.9271 31.0856 47.8415 29.1969 47.8415C28.1238 47.8415 27.0506 47.8415 25.9775 47.713C25.0761 47.6273 24.1317 47.7558 23.2732 47.4131C22.6723 47.199 22.2859 48.0556 22.8869 48.3126C23.7454 48.6552 24.6898 48.6124 25.5912 48.6552C26.6214 48.6981 27.6516 48.7837 28.6818 48.7837C30.8281 48.8266 32.9743 48.8266 35.1206 48.9122C37.3098 48.9979 40.4004 49.8117 42.4179 48.5267C42.7184 49.8117 43.0188 51.0966 43.3193 52.3815C43.2764 52.4243 43.2335 52.4672 43.1906 52.5528C43.0188 52.9811 43.1047 53.3238 43.5769 53.4951H43.6198C43.6198 53.5379 43.6627 53.6236 43.6627 53.6664C43.5769 53.7092 43.491 53.7521 43.4481 53.7949C42.1603 55.2511 40.2287 55.7223 38.3829 55.8936C36.4084 56.0649 34.3479 55.9364 32.3734 55.7223C29.8837 55.4653 27.2653 55.2511 24.9044 54.4374C24.2605 54.2232 23.5308 54.1375 22.844 53.9662C22.3289 53.8377 21.2557 53.7092 20.9123 53.1953C21.6421 49.5118 22.1572 45.6999 23.8313 42.145ZM20.4831 63.9886C20.3114 63.8601 20.1826 63.6459 20.0968 63.3461C19.968 62.618 20.0538 61.847 20.0538 61.0761C20.0968 59.2772 20.2255 57.6068 20.526 55.8508C20.6977 55.8508 20.8694 55.8079 21.0411 55.7651C21.6421 55.5938 21.2987 54.7372 20.7406 54.8657C20.7836 54.6943 20.7836 54.5658 20.8265 54.3945C21.8138 54.9942 23.3161 55.1227 24.2176 55.294C25.3336 55.551 26.4497 55.8936 27.6087 56.1077C29.0681 56.4076 30.5705 56.5789 32.03 56.7074C34.2621 56.9644 36.5371 57.0929 38.8122 56.8787C40.7438 56.7074 42.6754 56.1506 44.092 54.7372C44.5212 56.4076 44.9934 58.078 45.3368 59.7912C45.5944 61.0333 45.6802 62.3182 45.8948 63.6031C45.7231 63.7316 45.6373 63.9886 45.8519 64.2027C45.809 64.2884 45.7661 64.374 45.7661 64.5025C45.3368 64.5454 44.8646 64.4597 44.3925 64.4169C43.5769 64.3312 42.7613 64.2027 41.9028 64.2027C39.7136 64.1171 37.5244 64.0314 35.3352 63.9457C33.1031 63.8601 30.9139 63.9029 28.6818 63.9886C26.4068 64.0742 24.1317 64.2456 21.8567 64.1599C21.5133 64.1599 21.127 64.1599 20.8265 64.0742C20.7406 64.0742 20.6119 63.9886 20.4831 63.9886ZM40.1429 74.2251C39.7565 73.5398 39.7136 72.6403 39.6707 71.8694C39.5848 70.4988 39.7995 69.0854 38.4688 68.2716C37.8249 67.8861 36.9235 67.8433 36.1937 67.8005C35.3352 67.7577 34.4767 67.7577 33.6611 67.7148C31.4719 67.6292 27.437 66.6441 27.0936 69.8135C27.0077 70.4132 27.0506 71.0128 27.0077 71.5696C26.9219 72.4262 26.3638 72.5975 25.5912 72.726C24.9044 72.8117 24.1747 72.726 23.4879 72.8545C22.801 72.983 22.0284 73.2828 21.2987 73.1971C21.5562 71.7409 21.2128 70.2847 21.0411 68.8284C20.9123 67.6292 21.1699 66.4299 21.127 65.2307C21.8567 65.3163 22.6293 65.2735 23.3161 65.2735C24.561 65.2735 25.8058 65.145 27.0936 65.1022C29.5832 65.0165 32.03 64.9737 34.5196 65.0165C36.9664 65.0593 39.3702 65.1878 41.8169 65.2735C43.1905 65.3163 44.7359 65.7875 46.1095 65.5733C46.1095 65.7446 46.1095 65.9159 46.1095 66.0444C46.1095 66.7726 46.0236 67.4578 45.9807 68.186C45.9378 68.8284 46.1095 69.4709 46.1953 70.1133C46.3241 71.0128 46.4529 71.9122 46.367 72.8117C46.3241 73.5398 46.0236 74.1822 45.2939 74.4392C44.8646 74.5677 44.3495 74.5677 43.9203 74.5249C43.4052 74.4821 42.9759 74.5677 42.5037 74.6534C41.6023 74.739 40.5721 75.0817 40.1429 74.2251ZM47.9982 90.9718C46.6246 90.7577 45.2939 90.1152 44.1349 89.4299C43.3623 89.0016 42.7613 88.402 42.375 87.631C42.0745 86.9886 42.2891 86.3033 42.5896 85.6608C42.9759 85.875 43.5769 85.7893 44.1349 85.7893C44.9076 85.7893 45.5944 85.6608 46.367 85.7893C47.1826 85.9178 47.9982 86.132 48.8138 86.3889C49.5435 86.6459 50.4449 86.9457 50.96 87.5454C51.4322 88.0593 51.3464 88.8731 51.1317 89.5156C50.6595 90.8861 49.2859 91.186 47.9982 90.9718Z" fill="black"/>
<path d="M45.165 29.6812C44.3065 30.3237 44.3065 31.2659 43.6626 31.994C42.9329 32.8507 42.1602 33.4503 41.1729 33.9643C39.2842 34.9065 37.1379 35.2492 35.0346 35.4633C32.7596 35.6775 30.3987 35.7203 28.1666 35.2063C27.0505 34.9494 26.0203 34.4354 24.9472 33.9643C24.5179 33.7929 24.3462 33.6644 24.0887 33.279C23.917 33.022 23.6165 32.8507 23.316 32.6793C22.758 32.3795 22.3716 33.279 22.9297 33.5788C23.316 33.7501 23.4019 34.0499 23.6594 34.3497C23.874 34.6495 24.475 34.778 24.8184 34.9494C25.8486 35.4205 26.8788 35.8916 27.9949 36.1486C30.3128 36.7482 32.8025 36.6198 35.1205 36.4056C37.3096 36.1914 39.4988 35.7631 41.4734 34.8209C42.4178 34.3926 43.1904 33.8358 43.8772 33.1076C44.1348 32.8507 44.564 32.4652 44.6928 32.1225C44.9074 31.6514 44.9933 31.1374 45.3367 30.752C45.4654 30.752 45.6371 30.6663 45.723 30.495L45.8088 30.2808C46.0664 29.8097 45.5513 29.3814 45.165 29.6812Z" fill="black"/>
<path d="M21.599 25.5696C21.6419 25.3126 21.6849 25.0557 21.7707 24.8415C22.0283 24.2847 21.1268 23.8564 20.8693 24.456C20.6117 25.0985 20.5688 25.741 20.5688 26.4262C20.5688 26.9402 21.2985 26.983 21.5132 26.5547L21.7278 26.1264C21.8566 25.8694 21.7707 25.6981 21.599 25.5696Z" fill="black"/>
<path d="M38.5118 27.6685C38.4689 27.1545 38.2542 26.6405 38.4259 26.1266C38.6406 25.5269 37.7821 25.1415 37.5245 25.7411C37.3957 26.0837 37.3528 26.4264 37.3957 26.769C37.3957 26.9832 37.3957 27.1973 37.4816 27.4115C37.5245 27.4543 37.5245 27.54 37.5245 27.5828V27.6256C37.3099 27.8826 37.3528 28.3966 37.7821 28.4822C38.2972 28.6107 38.5118 28.0968 38.5118 27.6685Z" fill="black"/>
</g>
<defs>
<filter id="filter0_d" x="0" y="0" width="62" height="100" filterUnits="userSpaceOnUse" color-interpolation-filters="sRGB">
<feFlood flood-opacity="0" result="BackgroundImageFix"/>
<feColorMatrix in="SourceAlpha" type="matrix" values="0 0 0 0 0 0 0 0 0 0 0 0 0 0 0 0 0 0 127 0"/>
<feOffset dy="4"/>
<feGaussianBlur stdDeviation="2"/>
<feColorMatrix type="matrix" values="0 0 0 0 0 0 0 0 0 0 0 0 0 0 0 0 0 0 0.1 0"/>
<feBlend mode="normal" in2="BackgroundImageFix" result="effect1_dropShadow"/>
<feBlend mode="normal" in="SourceGraphic" in2="effect1_dropShadow" result="shape"/>
</filter>
</defs>
</svg>
