<svg width="80" height="80" viewBox="0 0 80 80" fill="none" xmlns="http://www.w3.org/2000/svg">
<rect width="80" height="80" rx="8" fill="#46AADC"/>
<path d="M52.875 27H27.125C25.4019 27 24 28.4019 24 30.125V50.9583C24 52.6814 25.4019 54.0833 27.125 54.0833H34.5657L39.1162 58.634C39.604 59.1218 40.3958 59.1218 40.8838 58.634L45.4343 54.0833H52.875C54.5981 54.0833 56 52.6814 56 50.9583V30.125C56 28.4019 54.5981 27 52.875 27ZM44.9167 51.5833C44.5852 51.5833 44.2671 51.7151 44.0327 51.9495L40 55.9822L35.9673 51.9495C35.7329 51.7151 35.4148 51.5835 35.0835 51.5835H31.5081C32.115 47.4409 35.6917 44.25 40 44.25C44.3083 44.25 47.885 47.4409 48.4922 51.5835H44.9167V51.5833ZM36.3333 38.0833C36.3333 36.0615 37.9783 34.4167 40 34.4167C42.0217 34.4167 43.6667 36.0615 43.6667 38.0833C43.6667 40.1052 42.0217 41.75 40 41.75C37.9783 41.75 36.3333 40.1052 36.3333 38.0833ZM53.5 50.9583C53.5 51.303 53.2197 51.5833 52.875 51.5833H51.0125C50.5527 47.5061 47.8723 44.092 44.2124 42.5825C45.4143 41.4565 46.1665 39.8562 46.1665 38.0833C46.1665 34.6831 43.4001 31.9167 40 31.9167C36.5996 31.9167 33.8333 34.6831 33.8333 38.0833C33.8333 39.8562 34.5854 41.4565 35.7874 42.5825C32.1277 44.092 29.4473 47.5061 28.9875 51.5833H27.125C26.7803 51.5833 26.5 51.303 26.5 50.9583V30.125C26.5 29.7803 26.7803 29.5 27.125 29.5H52.875C53.2197 29.5 53.5 29.7803 53.5 30.125V50.9583Z" fill="white"/>
</svg>
