<svg width="8" height="7" viewBox="0 0 8 7" fill="none" xmlns="http://www.w3.org/2000/svg">
<path d="M0.449687 3.94972L0.4372 3.94699L5.79044 3.94699L4.10757 5.63356C4.02517 5.7159 3.97996 5.82744 3.97996 5.94452C3.97997 6.06159 4.02517 6.17235 4.10757 6.25489L4.36943 6.51688C4.45177 6.59922 4.56149 6.64475 4.6785 6.64475C4.79557 6.64475 4.90536 6.59954 4.98771 6.5172L7.87245 3.63271C7.95512 3.55005 8.00032 3.43993 8 3.32279C8.00032 3.20501 7.95512 3.09483 7.87245 3.01229L4.9877 0.127542C4.90536 0.045266 4.79564 -2.20154e-06 4.6785 -2.1913e-06C4.56149 -2.18107e-06 4.45177 0.0453311 4.36943 0.127542L4.10757 0.389526C4.02517 0.471738 3.97996 0.581526 3.97996 0.698599C3.97996 0.815607 4.02517 0.919608 4.10757 1.00188L5.80943 2.69788L0.443703 2.69788C0.202598 2.69788 -3.84658e-06 2.90569 -3.82552e-06 3.14666L-3.79312e-06 3.5172C-3.77206e-06 3.75818 0.208582 3.94972 0.449687 3.94972Z" fill="black"/>
</svg>
