<svg width="73" height="73" viewBox="0 0 73 73" fill="none" xmlns="http://www.w3.org/2000/svg">
<g clip-path="url(#clip0)">
<path d="M67.725 35.0743H57.1725V1.42589C57.1725 0.849306 56.8251 0.329324 56.2924 0.108613C55.7595 -0.112241 55.1462 0.0100912 54.7386 0.41758L50.6995 4.45653L46.6607 0.417722C46.1039 -0.139046 45.2011 -0.139046 44.6442 0.417722L40.6053 4.45668L36.5667 0.417722C36.01 -0.139046 35.1072 -0.139046 34.5502 0.417722L30.5113 4.45668L26.4722 0.417722C25.9154 -0.139046 25.0126 -0.139046 24.4559 0.417722L20.4169 4.45668L16.3782 0.417722C15.8215 -0.139046 14.9187 -0.139046 14.3618 0.417722L10.3228 4.45668L6.28399 0.417722C5.73065 -0.135624 4.83569 -0.138475 4.27749 0.40988C3.98435 0.698031 3.8422 1.08199 3.85204 1.46339V65.5862C3.85204 69.6742 7.17782 73 11.2658 73H61.735C61.7353 73 61.7355 73 61.7358 73C61.7362 73 61.7366 73 61.737 73C65.825 73 69.1508 69.6742 69.1508 65.5862V36.5C69.1508 35.7125 68.5125 35.0743 67.725 35.0743ZM11.2658 70.1484C8.75003 70.1484 6.70346 68.1017 6.70346 65.5861V4.86987L9.31464 7.48104C9.8714 8.03781 10.7742 8.03781 11.3311 7.48104L15.3701 3.44209L19.409 7.48104C19.9658 8.03781 20.8686 8.03781 21.4255 7.48104L25.4645 3.44209L29.5036 7.48104C30.0603 8.03781 30.9631 8.03781 31.5199 7.48104L35.5588 3.44209L39.5978 7.48104C40.1546 8.03781 41.0574 8.03781 41.6143 7.48104L45.6532 3.44209L49.6922 7.48104C50.2491 8.03781 51.1519 8.03781 51.7085 7.48104L54.3218 4.86787V36.5C54.3218 36.513 54.3234 36.5256 54.3238 36.5386V65.5861C54.3238 67.3058 54.9141 68.8893 55.9003 70.1484H11.2658ZM66.2993 65.5861C66.2993 68.1017 64.2525 70.1484 61.7369 70.1484C59.2213 70.1484 57.1745 68.1017 57.1745 65.5861V37.9258H66.2993V65.5861V65.5861Z" fill="black"/>
<path d="M30.5116 22.6493C29.0965 22.6493 27.9453 21.6635 27.9453 20.452C27.9453 19.2404 29.0966 18.2546 30.5116 18.2546C31.9267 18.2546 33.0778 19.2404 33.0778 20.452C33.0778 21.2395 33.7162 21.8778 34.5036 21.8778C35.2911 21.8778 35.9294 21.2395 35.9294 20.452C35.9294 18.1278 34.235 16.1668 31.9374 15.582V14.6161C31.9374 13.8287 31.299 13.1904 30.5116 13.1904C29.7241 13.1904 29.0858 13.8287 29.0858 14.6161V15.582C26.788 16.1668 25.0938 18.128 25.0938 20.452C25.0938 23.2359 27.5243 25.5007 30.5116 25.5007C31.9267 25.5007 33.0778 26.4865 33.0778 27.6981C33.0778 28.9098 31.9267 29.8954 30.5116 29.8954C29.0965 29.8954 27.9453 28.9096 27.9453 27.6981C27.9453 26.9107 27.307 26.2723 26.5195 26.2723C25.7321 26.2723 25.0938 26.9107 25.0938 27.6981C25.0938 30.0223 26.7881 31.9833 29.0858 32.5682V33.7316C29.0858 34.5191 29.7241 35.1574 30.5116 35.1574C31.299 35.1574 31.9374 34.5191 31.9374 33.7316V32.5682C34.2351 31.9833 35.9294 30.0223 35.9294 27.6981C35.9294 24.9143 33.4989 22.6493 30.5116 22.6493Z" fill="black"/>
<path d="M44.8355 22.6494H42.0566C41.2692 22.6494 40.6309 23.2877 40.6309 24.0752C40.6309 24.8627 41.2692 25.501 42.0566 25.501H44.8355C45.6229 25.501 46.2613 24.8627 46.2613 24.0752C46.2613 23.2877 45.6229 22.6494 44.8355 22.6494Z" fill="black"/>
<path d="M18.9663 22.6494H16.1875C15.4 22.6494 14.7617 23.2877 14.7617 24.0752C14.7617 24.8627 15.4 25.501 16.1875 25.501H18.9663C19.7538 25.501 20.3921 24.8627 20.3921 24.0752C20.3921 23.2877 19.7538 22.6494 18.9663 22.6494Z" fill="black"/>
<path d="M45.5564 38.4971H22.9688C22.1813 38.4971 21.543 39.1355 21.543 39.9229C21.543 40.7104 22.1813 41.3487 22.9688 41.3487H45.5564C46.3439 41.3487 46.9822 40.7104 46.9822 39.9229C46.982 39.1355 46.3439 38.4971 45.5564 38.4971Z" fill="black"/>
<path d="M16.4729 38.9149C16.2077 38.6497 15.8398 38.4971 15.4648 38.4971C15.0899 38.4971 14.722 38.6497 14.4568 38.9149C14.1916 39.1801 14.0391 39.5479 14.0391 39.9229C14.0391 40.2979 14.1916 40.6657 14.4568 40.9309C14.722 41.1961 15.0899 41.3487 15.4648 41.3487C15.8398 41.3487 16.2077 41.1961 16.4729 40.9309C16.7381 40.6657 16.8906 40.2979 16.8906 39.9229C16.8906 39.5479 16.7381 39.1801 16.4729 38.9149Z" fill="black"/>
<path d="M45.5564 47.907H22.9688C22.1813 47.907 21.543 48.5453 21.543 49.3328C21.543 50.1202 22.1813 50.7585 22.9688 50.7585H45.5564C46.3439 50.7585 46.9822 50.1202 46.9822 49.3328C46.982 48.5453 46.3439 47.907 45.5564 47.907Z" fill="black"/>
<path d="M16.4729 48.3247C16.2077 48.0595 15.8398 47.907 15.4648 47.907C15.0899 47.907 14.722 48.0595 14.4568 48.3247C14.1916 48.5899 14.0391 48.9578 14.0391 49.3328C14.0391 49.7077 14.1916 50.0756 14.4568 50.3408C14.722 50.606 15.0899 50.7585 15.4648 50.7585C15.8398 50.7585 16.2077 50.606 16.4729 50.3408C16.7381 50.0756 16.8906 49.7077 16.8906 49.3328C16.8906 48.9578 16.7381 48.5899 16.4729 48.3247Z" fill="black"/>
<path d="M45.5564 57.3169H22.9688C22.1813 57.3169 21.543 57.9552 21.543 58.7427C21.543 59.5301 22.1813 60.1685 22.9688 60.1685H45.5564C46.3439 60.1685 46.9822 59.5301 46.9822 58.7427C46.9822 57.9552 46.3439 57.3169 45.5564 57.3169Z" fill="black"/>
<path d="M16.4729 57.7347C16.2077 57.4695 15.8398 57.3169 15.4648 57.3169C15.0899 57.3169 14.722 57.4695 14.4568 57.7347C14.1916 57.9998 14.0391 58.3677 14.0391 58.7427C14.0391 59.1177 14.1916 59.4855 14.4568 59.7507C14.722 60.0159 15.0899 60.1685 15.4648 60.1685C15.8398 60.1685 16.2077 60.0159 16.4729 59.7507C16.7381 59.4855 16.8906 59.1177 16.8906 58.7427C16.8906 58.3677 16.7381 57.9998 16.4729 57.7347Z" fill="black"/>
</g>
<defs>
<clipPath id="clip0">
<rect width="73" height="73" fill="white"/>
</clipPath>
</defs>
</svg>
