<svg width="83" height="83" viewBox="0 0 83 83" fill="none" xmlns="http://www.w3.org/2000/svg">
<path d="M81.6167 13.8333H77.4667V6.91666C77.4667 6.15272 76.8473 5.53333 76.0833 5.53333H52.5667C47.2062 5.53333 43.4007 7.15712 41.5 10.1163C39.5993 7.15712 35.7937 5.53333 30.4333 5.53333H6.91667C6.15273 5.53333 5.53333 6.15272 5.53333 6.91666V13.8333H1.38333C0.619393 13.8333 0 14.4527 0 15.2167V70.55C0 71.3139 0.619393 71.9333 1.38333 71.9333H31.175C32.4962 73.4234 36.5698 77.4667 41.858 77.4667C45.469 77.4667 48.826 75.6058 51.8473 71.9333H81.6167C82.3806 71.9333 83 71.3139 83 70.55V15.2167C83 14.4527 82.3806 13.8333 81.6167 13.8333ZM52.5667 8.29999H74.7V60.8667H52.5667C48.2937 60.8667 45.0056 61.896 42.8833 63.8116V15.2167C42.8833 10.6269 46.1411 8.29999 52.5667 8.29999ZM8.3 8.29999H30.4333C36.8589 8.29999 40.1167 10.6269 40.1167 15.2167V63.8116C37.9944 61.896 34.7063 60.8667 30.4333 60.8667H8.3V8.29999ZM80.2333 69.1667H51.1833C50.7564 69.1667 50.3525 69.3632 50.0904 69.7009C47.5149 73.012 44.7496 74.7 41.8722 74.7H41.858C36.8785 74.7 32.9454 69.7489 32.9069 69.6989C32.6448 69.3632 32.2429 69.1667 31.8167 69.1667H2.76667V16.6H5.53333V62.25C5.53333 63.0139 6.15273 63.6333 6.91667 63.6333H30.4333C36.8589 63.6333 40.1167 65.9603 40.1167 70.55C40.1167 71.3139 40.7361 71.9333 41.5 71.9333C42.2639 71.9333 42.8833 71.3139 42.8833 70.55C42.8833 65.9603 46.1411 63.6333 52.5667 63.6333H76.0833C76.8473 63.6333 77.4667 63.0139 77.4667 62.25V16.6H80.2333V69.1667Z" fill="black"/>
<path d="M15.2163 19.3666H33.1997C33.9636 19.3666 34.583 18.7472 34.583 17.9833C34.583 17.2194 33.9636 16.6 33.1997 16.6H15.2163C14.4524 16.6 13.833 17.2194 13.833 17.9833C13.833 18.7472 14.4524 19.3666 15.2163 19.3666Z" fill="black"/>
<path d="M15.2163 27.6667H33.1997C33.9636 27.6667 34.583 27.0473 34.583 26.2834C34.583 25.5194 33.9636 24.9 33.1997 24.9H15.2163C14.4524 24.9 13.833 25.5194 13.833 26.2834C13.833 27.0473 14.4524 27.6667 15.2163 27.6667Z" fill="black"/>
<path d="M15.2163 35.9667H33.1997C33.9636 35.9667 34.583 35.3473 34.583 34.5833C34.583 33.8194 33.9636 33.2 33.1997 33.2H15.2163C14.4524 33.2 13.833 33.8194 13.833 34.5833C13.833 35.3473 14.4524 35.9667 15.2163 35.9667Z" fill="black"/>
<path d="M15.2163 44.2667H33.1997C33.9636 44.2667 34.583 43.6473 34.583 42.8833C34.583 42.1194 33.9636 41.5 33.1997 41.5H15.2163C14.4524 41.5 13.833 42.1194 13.833 42.8833C13.833 43.6473 14.4524 44.2667 15.2163 44.2667Z" fill="black"/>
<path d="M15.2163 52.5667H33.1997C33.9636 52.5667 34.583 51.9473 34.583 51.1833C34.583 50.4194 33.9636 49.8 33.1997 49.8H15.2163C14.4524 49.8 13.833 50.4194 13.833 51.1833C13.833 51.9473 14.4524 52.5667 15.2163 52.5667Z" fill="black"/>
<path d="M49.8003 19.3666H67.7837C68.5476 19.3666 69.167 18.7472 69.167 17.9833C69.167 17.2194 68.5476 16.6 67.7837 16.6H49.8003C49.0364 16.6 48.417 17.2194 48.417 17.9833C48.417 18.7472 49.0364 19.3666 49.8003 19.3666Z" fill="black"/>
<path d="M49.8003 27.6667H67.7837C68.5476 27.6667 69.167 27.0473 69.167 26.2834C69.167 25.5194 68.5476 24.9 67.7837 24.9H49.8003C49.0364 24.9 48.417 25.5194 48.417 26.2834C48.417 27.0473 49.0364 27.6667 49.8003 27.6667Z" fill="black"/>
<path d="M49.8003 35.9667H67.7837C68.5476 35.9667 69.167 35.3473 69.167 34.5833C69.167 33.8194 68.5476 33.2 67.7837 33.2H49.8003C49.0364 33.2 48.417 33.8194 48.417 34.5833C48.417 35.3473 49.0364 35.9667 49.8003 35.9667Z" fill="black"/>
<path d="M49.8003 44.2667H67.7837C68.5476 44.2667 69.167 43.6473 69.167 42.8833C69.167 42.1194 68.5476 41.5 67.7837 41.5H49.8003C49.0364 41.5 48.417 42.1194 48.417 42.8833C48.417 43.6473 49.0364 44.2667 49.8003 44.2667Z" fill="black"/>
<path d="M49.8003 52.5667H67.7837C68.5476 52.5667 69.167 51.9473 69.167 51.1833C69.167 50.4194 68.5476 49.8 67.7837 49.8H49.8003C49.0364 49.8 48.417 50.4194 48.417 51.1833C48.417 51.9473 49.0364 52.5667 49.8003 52.5667Z" fill="black"/>
</svg>
