<svg width="18" height="17" viewBox="0 0 18 17" fill="none" xmlns="http://www.w3.org/2000/svg">
<path d="M14.112 9.11213C11.9644 9.11213 10.2229 10.879 10.2229 13.0569C10.2229 15.2342 11.9644 17 14.112 17C16.2586 17 18 15.2342 18 13.0569C18 10.879 16.2586 9.11213 14.112 9.11213ZM14.3615 15.9722V15.6316C14.3615 15.4908 14.2495 15.3769 14.112 15.3769C13.9731 15.3769 13.8614 15.4911 13.8614 15.6316V15.9722C12.469 15.8508 11.3567 14.7223 11.237 13.3102H11.5738C11.7114 13.3102 11.8239 13.1966 11.8239 13.0571C11.8239 12.9152 11.7114 12.8029 11.5738 12.8029H11.237C11.3567 11.3903 12.4692 10.263 13.8614 10.141V10.482C13.8614 10.6224 13.9734 10.7363 14.112 10.7363C14.2496 10.7363 14.3615 10.6221 14.3615 10.482V10.141C15.7544 10.263 16.8667 11.3903 16.9859 12.8029H16.6491C16.5108 12.8029 16.3991 12.9154 16.3991 13.0571C16.3991 13.1969 16.5111 13.3102 16.6491 13.3102H16.9859C16.867 14.7223 15.7544 15.8505 14.3615 15.9722Z" fill="black"/>
<path d="M15.5608 12.6756H14.6587C14.5384 12.4996 14.3387 12.3828 14.112 12.3828C14.1085 12.3828 14.1048 12.3839 14.1008 12.3839L13.2788 11.2101C13.1591 11.0393 12.9245 10.9996 12.7555 11.1205C12.5871 11.2425 12.5467 11.481 12.6672 11.6524L13.4897 12.8267C13.4645 12.8987 13.4483 12.9753 13.4483 13.0571C13.4483 13.429 13.7449 13.7298 14.112 13.7298C14.3387 13.7298 14.5395 13.6141 14.6587 13.4376H15.5608C15.7677 13.4376 15.9362 13.2679 15.9362 13.0574C15.9362 12.8458 15.7678 12.6756 15.5608 12.6756Z" fill="black"/>
<path d="M3.74247 5.20624C4.42297 5.20624 4.97365 4.64714 4.97365 3.95771V1.24853C4.97365 0.558828 4.42297 0 3.74247 0C3.0625 0 2.51209 0.558828 2.51209 1.24853V3.95797C2.51209 4.64714 3.06247 5.20624 3.74247 5.20624Z" fill="black"/>
<path d="M11.2817 5.20624C11.9623 5.20624 12.5129 4.64714 12.5129 3.95771V1.24853C12.5129 0.558828 11.9622 0 11.2817 0C10.6023 0 10.0514 0.558828 10.0514 1.24853V3.95797C10.0511 4.64714 10.6023 5.20624 11.2817 5.20624Z" fill="black"/>
<path d="M5.41052 8.67281C5.41052 8.31637 5.1264 8.02764 4.77417 8.02764H3.59461C3.2432 8.02764 2.95776 8.31637 2.95776 8.67281V9.86874C2.95776 10.2257 3.2432 10.5153 3.59461 10.5153H4.77417C5.12611 10.5153 5.41052 10.2257 5.41052 9.86874V8.67281Z" fill="black"/>
<path d="M8.73903 8.67361C8.73903 8.31717 8.45412 8.02872 8.1035 8.02872H6.92339C6.57197 8.02872 6.28756 8.31717 6.28756 8.67361V9.86982C6.28756 10.2257 6.57194 10.5153 6.92339 10.5153H8.1035C8.45439 10.5153 8.73903 10.2257 8.73903 9.86982V8.67361Z" fill="black"/>
<path d="M10.2514 8.02764C9.89941 8.02764 9.6145 8.31637 9.6145 8.67281V9.86874C9.6145 10.1917 9.8518 10.4465 10.1561 10.4948C10.6227 9.75756 11.2836 9.16066 12.066 8.77481V8.67281C12.066 8.31637 11.7816 8.02764 11.4296 8.02764H10.2514Z" fill="black"/>
<path d="M3.59482 11.2695C3.24341 11.2695 2.95794 11.5579 2.95794 11.9143V13.1108C2.95794 13.4672 3.24341 13.7557 3.59482 13.7557H4.77494C5.12635 13.7557 5.41047 13.4672 5.41047 13.1108V11.9143C5.41047 11.5579 5.12635 11.2695 4.77494 11.2695H3.59482Z" fill="black"/>
<path d="M8.10215 11.27H6.92312C6.57171 11.27 6.28732 11.559 6.28732 11.9155V13.1108C6.28732 13.4673 6.57171 13.7557 6.92312 13.7557H8.10215C8.45303 13.7557 8.73797 13.4673 8.73797 13.1108V11.9155C8.73797 11.559 8.45303 11.27 8.10215 11.27Z" fill="black"/>
<path d="M9.82174 14.9913H3.83747C2.80741 14.9913 1.96915 14.1411 1.96915 13.0973V6.75752H13.0562V8.41646C13.3959 8.33713 13.7479 8.29071 14.112 8.29071C14.4243 8.29071 14.7292 8.32338 15.0247 8.38302V2.42019H13.2514V3.95771C13.2514 5.05917 12.3684 5.95504 11.2817 5.95504C10.1955 5.95504 9.31259 5.0592 9.31259 3.95771V2.42019H5.71215V3.95771C5.71215 5.05917 4.82865 5.95504 3.74247 5.95504C2.6568 5.95504 1.77332 5.0592 1.77332 3.95771V2.42019H0V13.0971C0 15.246 1.718 16.9895 3.83747 16.9895H11.187C11.2743 16.9895 11.3605 16.9822 11.4462 16.9765C10.7401 16.4816 10.1761 15.7949 9.82174 14.9913Z" fill="black"/>
</svg>
