<svg width="16" height="18" viewBox="0 0 16 18" fill="none" xmlns="http://www.w3.org/2000/svg">
<path d="M15.8184 17.1818V12H15.3392H14.182H13.025H9.8184H9.00022C8.54837 12 8.18204 11.6337 8.18204 11.1818V10.3636V7.15707V6V4.84292V4.36363H4.09113C3.63928 4.36363 3.27295 4.72996 3.27295 5.18181V11.3614V14.1818V15.8182V16.7093V17.1818C3.27295 17.6337 3.63928 18 4.09113 18H15.0002C15.4521 18 15.8184 17.6337 15.8184 17.1818Z" fill="black"/>
<path d="M11.7273 0.545455H7.5888C7.47638 0.227891 7.17425 0 6.81818 0H5.72727C5.3712 0 5.06913 0.227891 4.95665 0.545455H0.818182C0.366327 0.545455 0 0.911782 0 1.36364V15C0 15.4519 0.366327 15.8182 0.818182 15.8182H1.63636V14.1818V11.3614V2.18182H3.32029C3.43276 2.49938 3.73484 2.72727 4.09091 2.72727H8.45454C8.81062 2.72727 9.11269 2.49938 9.22516 2.18182H10.9091V3.62351C10.9316 3.64364 10.9538 3.66436 10.9753 3.68591L12.0662 4.77682L12.5455 5.256V1.36364C12.5455 0.911782 12.1791 0.545455 11.7273 0.545455Z" fill="black"/>
<path d="M10.9093 5.93384L9.81836 4.84293V7.15707V10.3636H13.0249H15.3391L12.5456 7.5702L10.9093 5.93384Z" fill="black"/>
</svg>
