<svg width="10" height="18" viewBox="0 0 10 18" fill="none" xmlns="http://www.w3.org/2000/svg">
<path d="M2.61544 3.48601C2.61544 3.93962 2.61544 5.96425 2.61544 5.96425H0.799805V8.99464H2.61544V17.9999H6.34515V8.99489H8.84796C8.84796 8.99489 9.08236 7.54184 9.19598 5.95307C8.87022 5.95307 6.35925 5.95307 6.35925 5.95307C6.35925 5.95307 6.35925 4.19008 6.35925 3.88107C6.35925 3.57138 6.76591 3.15481 7.16783 3.15481C7.569 3.15481 8.4157 3.15481 9.19991 3.15481C9.19991 2.74222 9.19991 1.31662 9.19991 1.0825e-08C8.15301 1.0825e-08 6.96197 1.0825e-08 6.43697 1.0825e-08C2.52325 -0.000209236 2.61544 3.0332 2.61544 3.48601Z" fill="black"/>
</svg>
