<svg width="41" height="37" viewBox="0 0 41 37" fill="none" xmlns="http://www.w3.org/2000/svg">
<path d="M37.277 25.4323C39.1441 24.4566 40.1102 23.2847 40.1773 23.2014L40.4465 22.8635L33.2824 9.18572C32.979 8.60603 32.3835 8.24583 31.729 8.24583C31.0744 8.24583 30.4789 8.60603 30.1755 9.18572L27.7735 13.7719C26.212 11.7711 23.9278 10.5191 21.3947 10.2763C21.8837 7.50218 23.106 4.88909 24.9593 2.72625L23.9562 1.86705C22.9136 3.08258 22.0622 4.43302 21.4031 5.86803C20.4171 3.02384 17.7188 0.974609 14.5424 0.974609H12.5594V1.63563C12.5594 5.64468 15.8216 8.90685 19.8306 8.90685H20.3454C20.2357 9.34968 20.1408 9.79542 20.0665 10.2466C16.4971 10.4132 13.3276 12.6535 11.9584 15.917C11.5546 15.6678 11.084 15.517 10.5763 15.517C9.61126 15.517 8.77433 16.0419 8.31246 16.8158C7.85091 16.424 7.26186 16.1781 6.6102 16.1781C6.41719 16.1781 6.22999 16.2013 6.04892 16.241C6.14962 15.5384 6.32456 14.848 6.5889 14.1898C6.942 14.6088 7.46294 14.856 8.02875 14.856C9.06934 14.856 9.9153 14.0101 9.9153 12.9695V12.7771C9.9153 11.7359 9.06934 10.8899 7.96516 10.8899C7.4694 10.8899 6.99623 11.0887 6.64797 11.4267C6.189 10.338 5.94918 9.15602 5.94918 7.97535V6.92379H4.62714V7.97535C4.62714 9.55141 4.99929 11.1291 5.70453 12.5399L5.80426 12.74C5.20876 13.8703 4.83403 15.102 4.69266 16.3691C4.21465 14.8092 3.96612 13.1948 3.96612 11.5509V10.8899H0V11.5509C0 13.797 0.856615 15.9082 2.40685 17.524C1.06157 17.6463 0 18.7673 0 20.1442C0 21.6024 1.18583 22.7883 2.64408 22.7883C2.677 22.7883 2.70831 22.7796 2.74123 22.7783C2.68378 22.9939 2.64408 23.2159 2.64408 23.4493C2.64408 24.2433 3.00235 24.9472 3.5575 25.4323H0V26.0934C0 29.6509 2.57017 32.6145 5.94918 33.2384V36.0087H35.0341V33.2384C38.4131 32.6145 40.9833 29.6509 40.9833 26.0934V25.4323H37.277ZM13.9185 2.29665H14.5424C17.5997 2.29665 20.1246 4.61409 20.4545 7.58481H19.8306C16.7734 7.58481 14.2484 5.26737 13.9185 2.29665ZM7.4807 12.4863C7.58269 12.3172 7.76828 12.2119 8.02875 12.2119C8.33957 12.2119 8.59326 12.4656 8.59326 12.7765V12.9688C8.59326 13.2803 8.33957 13.534 8.02875 13.534C7.81379 13.534 7.62013 13.4142 7.52362 13.2212L7.3035 12.7816L7.4807 12.4863ZM31.729 25.4323C27.7306 25.4323 25.3747 23.4645 24.5972 22.6843L25.2108 21.5137C26.6345 22.8021 28.8028 24.1103 31.729 24.1103C34.6551 24.1103 36.8235 22.8021 38.2478 21.5137L38.8601 22.6818C38.0781 23.4574 35.6983 25.4323 31.729 25.4323V25.4323ZM31.3468 9.79929C31.4969 9.51364 31.9617 9.51364 32.1111 9.79929L37.6088 20.2943C36.3781 21.4853 34.4253 22.7883 31.729 22.7883C29.0326 22.7883 27.0799 21.4853 25.8492 20.2936L31.3468 9.79929ZM19.8948 11.5761C19.8545 12.0541 19.8306 12.535 19.8306 13.0185V14.002C19.362 13.7238 19.1015 13.2419 19.0983 13.2351L17.9176 13.8303C17.9515 13.8987 18.781 15.517 20.4916 15.517C22.2023 15.517 23.0318 13.8987 23.0663 13.8293L21.8856 13.2345C21.8818 13.2412 21.6219 13.7238 21.1533 14.0014V13.0185C21.1533 12.5425 21.1752 12.0686 21.2182 11.5971C23.6102 11.812 25.7407 13.0773 27.0821 15.0933L23.0121 22.8635L23.2813 23.2014C23.3484 23.2847 24.3144 24.4566 26.1816 25.4323H18.802C19.0295 25.0418 19.1696 24.5941 19.1696 24.1103C19.1696 22.6521 17.9838 21.4662 16.5255 21.4662C16.2921 21.4662 16.0701 21.5059 15.8545 21.5634C15.8558 21.5305 15.8645 21.4992 15.8645 21.4662C15.8645 20.008 14.6787 18.8221 13.2204 18.8221C13.1875 18.8221 13.1562 18.8309 13.1233 18.8322C13.1807 18.6165 13.2204 18.3945 13.2204 18.1611C13.2204 17.7525 13.12 17.3707 12.9541 17.0256C13.9476 13.98 16.7179 11.8185 19.8948 11.5761V11.5761ZM10.5763 22.1272C10.5763 22.8564 9.98341 23.4493 9.25428 23.4493C8.52516 23.4493 7.93224 22.8564 7.93224 22.1272C7.93224 21.3981 8.52516 20.8052 9.25428 20.8052C9.98341 20.8052 10.5763 21.3981 10.5763 22.1272ZM13.2204 22.7883C12.4913 22.7883 11.8984 22.1954 11.8984 21.4662C11.8984 20.7371 12.4913 20.1442 13.2204 20.1442C13.9495 20.1442 14.5424 20.7371 14.5424 21.4662C14.5424 22.1954 13.9495 22.7883 13.2204 22.7883ZM6.6102 23.4493C6.6102 24.1784 6.01729 24.7713 5.28816 24.7713C4.55904 24.7713 3.96612 24.1784 3.96612 23.4493C3.96612 22.7202 4.55904 22.1272 5.28816 22.1272C6.01729 22.1272 6.6102 22.7202 6.6102 23.4493ZM8.59326 24.7713C9.32239 24.7713 9.9153 25.3642 9.9153 26.0934C9.9153 26.8225 9.32239 27.4154 8.59326 27.4154C7.86414 27.4154 7.27122 26.8225 7.27122 26.0934C7.27122 25.3642 7.86414 24.7713 8.59326 24.7713ZM12.5594 24.1103C13.2885 24.1103 13.8814 24.7032 13.8814 25.4323C13.8814 26.1615 13.2885 26.7544 12.5594 26.7544C11.8303 26.7544 11.2373 26.1615 11.2373 25.4323C11.2373 24.7032 11.8303 24.1103 12.5594 24.1103ZM15.2035 24.1103C15.2035 23.3812 15.7964 22.7883 16.5255 22.7883C17.2546 22.7883 17.8475 23.3812 17.8475 24.1103C17.8475 24.8394 17.2546 25.4323 16.5255 25.4323C15.7964 25.4323 15.2035 24.8394 15.2035 24.1103ZM10.5763 16.8391C11.3054 16.8391 11.8984 17.432 11.8984 18.1611C11.8984 18.8903 11.3054 19.4832 10.5763 19.4832C9.8472 19.4832 9.25428 18.8903 9.25428 18.1611C9.25428 17.432 9.8472 16.8391 10.5763 16.8391ZM7.93224 18.8221C7.93224 19.5513 7.33933 20.1442 6.6102 20.1442C5.88108 20.1442 5.28816 19.5513 5.28816 18.8221C5.28816 18.093 5.88108 17.5001 6.6102 17.5001C7.33933 17.5001 7.93224 18.093 7.93224 18.8221ZM2.65667 12.2119C2.71154 13.7218 2.95684 15.2056 3.38708 16.6461C2.209 15.4325 1.49988 13.8803 1.35109 12.2119H2.65667ZM1.32204 20.1442C1.32204 19.4151 1.91496 18.8221 2.64408 18.8221C3.3732 18.8221 3.96612 19.4151 3.96612 20.1442C3.96612 20.8733 3.3732 21.4662 2.64408 21.4662C1.91496 21.4662 1.32204 20.8733 1.32204 20.1442ZM33.712 32.0425H31.068V33.3646H33.712V34.6866H7.27122V33.3646H29.7459V32.0425H7.27122C4.214 32.0425 1.68902 29.7251 1.35916 26.7544H6.04311C6.33844 27.8921 7.3645 28.7374 8.59326 28.7374C9.55833 28.7374 10.3953 28.2126 10.8571 27.4386C11.3187 27.8305 11.9077 28.0764 12.5594 28.0764C13.5338 28.0764 14.3772 27.541 14.8358 26.7544H39.6247C39.2942 29.7251 36.7692 32.0425 33.712 32.0425Z" fill="black"/>
</svg>
