<svg width="44" height="42" viewBox="0 0 44 42" fill="none" xmlns="http://www.w3.org/2000/svg">
<g clip-path="url(#clip0)">
<path d="M19.8085 0.706543H17.4076C15.2276 0.706543 13.3325 1.8844 12.386 3.60538C12.1049 3.09383 11.7366 2.62232 11.2844 2.20927C11.0299 1.97633 10.6244 1.98383 10.3794 2.22616C10.1344 2.46848 10.1423 2.85401 10.3972 3.08696C11.2653 3.88022 11.7435 4.9477 11.7435 6.09241V7.76649H9.98281C7.56543 7.76649 5.59857 5.89636 5.59857 3.59787V1.9238H7.35924C7.96827 1.9238 8.55691 2.04011 9.10971 2.2693C9.43396 2.40344 9.81082 2.26274 9.95222 1.95444C10.0936 1.64645 9.94565 1.28781 9.6214 1.15336C8.90648 0.856941 8.14519 0.706543 7.35924 0.706543H4.95863C4.60479 0.706543 4.31836 0.979198 4.31836 1.31533V3.59787C4.31836 5.27664 5.13062 6.7778 6.40064 7.76649H4.95863C4.60479 7.76649 4.31836 8.03883 4.31836 8.37496V10.6578C4.31836 12.3363 5.13062 13.8377 6.40064 14.8261H4.95863C4.60479 14.8261 4.31836 15.0988 4.31836 15.4349V17.7174C4.31836 19.3962 5.13062 20.8977 6.40064 21.8861H4.95863C4.60479 21.8861 4.31836 22.1584 4.31836 22.4948V24.7774C4.31836 27.7472 6.85939 30.1633 9.98281 30.1633H11.7435V41.081C11.7435 41.4171 12.0299 41.6898 12.3834 41.6898C12.7373 41.6898 13.0237 41.4171 13.0237 41.081V30.1636H14.7844C17.9078 30.1636 20.4488 27.7475 20.4488 24.7777V22.4948C20.4488 22.1587 20.162 21.8864 19.8085 21.8864H18.3665C19.6365 20.8977 20.4488 19.3965 20.4488 17.7178V15.4352C20.4488 15.0991 20.162 14.8264 19.8085 14.8264H18.3665C19.6365 13.8381 20.4488 12.3366 20.4488 10.6581V8.37527C20.4488 8.03883 20.162 7.76649 19.8085 7.76649H18.3665C19.6365 6.77811 20.4488 5.27664 20.4488 3.59787V1.31533C20.4488 0.979198 20.162 0.706543 19.8085 0.706543V0.706543ZM12.3834 23.1036H13.8254C13.2328 23.5648 12.7405 24.1386 12.3834 24.7896C12.0263 24.1386 11.5343 23.5648 10.9414 23.1036H12.3834ZM12.3834 16.0437H13.8254C13.2328 16.5052 12.7405 17.0786 12.3834 17.7296C12.0263 17.0786 11.5343 16.5052 10.9414 16.0437H12.3834ZM12.3834 8.98374H13.8254C13.2328 9.44525 12.7405 10.0187 12.3834 10.6697C12.0263 10.0187 11.5343 9.44525 10.9414 8.98374H12.3834ZM5.59857 10.6578V8.98374H7.35924C9.77662 8.98374 11.7435 10.8539 11.7435 13.1524V14.8264H9.98281C7.56543 14.8264 5.59857 12.9563 5.59857 10.6578ZM5.59857 17.7178V16.0437H7.35924C9.77662 16.0437 11.7435 17.9138 11.7435 20.212V21.8861H9.98281C7.56543 21.8861 5.59857 20.0162 5.59857 17.7178ZM5.59857 24.7777V23.1036H7.35924C9.77662 23.1036 11.7435 24.9734 11.7435 27.2719V28.946H9.98281C7.56543 28.946 5.59857 27.0762 5.59857 24.7777ZM19.1686 24.7777C19.1686 27.0762 17.2017 28.946 14.7844 28.946H13.0237V27.2719C13.0237 24.9734 14.9902 23.1036 17.4076 23.1036H19.1686V24.7777ZM19.1686 17.7178C19.1686 20.0162 17.2017 21.8861 14.7844 21.8861H13.0237V20.212C13.0237 17.9138 14.9902 16.0437 17.4076 16.0437H19.1686V17.7178ZM19.1686 10.6578C19.1686 12.9563 17.2017 14.8264 14.7844 14.8264H13.0237V13.1524C13.0237 10.8539 14.9902 8.98374 17.4076 8.98374H19.1686V10.6578ZM19.1686 3.59787C19.1686 5.89636 17.2017 7.76649 14.7844 7.76649H13.0237V6.09241C13.0237 3.79392 14.9902 1.9238 17.4076 1.9238H19.1686V3.59787Z" fill="black"/>
<path d="M39.1715 10.6579V8.37538C39.1715 8.03894 38.8847 7.7666 38.5312 7.7666H36.1302C33.9483 7.7666 32.0518 8.94633 31.1061 10.6698C30.1603 8.94633 28.2638 7.7666 26.0819 7.7666H23.681C23.3274 7.7666 23.041 8.03894 23.041 8.37538V10.6579C23.041 12.3367 23.8533 13.8379 25.123 14.8265H23.681C23.3274 14.8265 23.041 15.0989 23.041 15.435V17.7179C23.041 19.3963 23.8533 20.8978 25.123 21.8862H23.681C23.3274 21.8862 23.041 22.1588 23.041 22.495V24.7775C23.041 27.7473 25.582 30.1634 28.7051 30.1634H30.4658V41.0811C30.4658 41.4173 30.7526 41.6899 31.1061 41.6899C31.4596 41.6899 31.7463 41.4173 31.7463 41.0811V30.1637H33.507C36.6304 30.1637 39.1715 27.7476 39.1715 24.7778V22.495C39.1715 22.1588 38.8847 21.8865 38.5312 21.8865H37.0935C37.515 21.5585 37.8903 21.1705 38.2036 20.7296C38.4013 20.451 38.3243 20.0726 38.0313 19.8844C37.7383 19.6965 37.3404 19.7697 37.1428 20.0483C36.3249 21.1992 34.9658 21.8865 33.507 21.8865H31.7463V20.2121C31.7463 17.9139 33.7129 16.0438 36.1302 16.0438H37.8909V17.7179C37.8909 17.9311 37.8741 18.1447 37.8403 18.3532C37.787 18.6856 38.0271 18.9961 38.3763 19.0471C38.7259 19.098 39.0524 18.8698 39.106 18.5374C39.1494 18.2682 39.1715 17.9924 39.1715 17.7179V15.435C39.1715 15.0989 38.8847 14.8265 38.5312 14.8265H37.0892C38.3592 13.8379 39.1715 12.3367 39.1715 10.6579V10.6579ZM36.1302 8.98385H37.8909V10.6579C37.8909 12.9564 35.9244 14.8265 33.507 14.8265H31.7463V13.1525C31.7463 10.854 33.7129 8.98385 36.1302 8.98385V8.98385ZM24.3212 10.6579V8.98385H26.0819C28.4993 8.98385 30.4658 10.854 30.4658 13.1525V14.8265H28.7051C26.2881 14.8265 24.3212 12.9564 24.3212 10.6579V10.6579ZM24.3212 17.7179V16.0438H26.0819C28.4993 16.0438 30.4658 17.9139 30.4658 20.2121V21.8862H28.7051C26.2881 21.8862 24.3212 20.0164 24.3212 17.7179V17.7179ZM24.3212 24.7778V23.1037H26.0819C28.4993 23.1037 30.4658 24.9736 30.4658 27.272V28.9461H28.7051C26.2881 28.9461 24.3212 27.0763 24.3212 24.7778V24.7778ZM37.8909 24.7778C37.8909 27.0763 35.9244 28.9461 33.507 28.9461H31.7463V27.272C31.7463 24.9736 33.7129 23.1037 36.1302 23.1037H37.8909V24.7778ZM32.5481 23.1037C31.9552 23.5649 31.4632 24.1387 31.1061 24.7897C30.7489 24.1387 30.257 23.5649 29.6641 23.1037H32.5481ZM31.1061 17.7298C30.7489 17.0788 30.257 16.5053 29.6641 16.0438H32.5481C31.9552 16.5053 31.4632 17.0788 31.1061 17.7298Z" fill="black"/>
</g>
<defs>
<clipPath id="clip0">
<rect width="43.1031" height="40.9833" fill="white" transform="translate(0.193359 0.706543)"/>
</clipPath>
</defs>
</svg>
