<svg width="18" height="18" viewBox="0 0 18 18" fill="none" xmlns="http://www.w3.org/2000/svg">
<path d="M12.6377 0H5.3623C2.40551 0 0 2.40551 0 5.3623V12.6377C0 15.5945 2.40551 18 5.3623 18H12.6377C15.5945 18 18 15.5945 18 12.6377V5.3623C18 2.40551 15.5945 0 12.6377 0ZM16.1892 12.6377C16.1892 14.5991 14.5991 16.1892 12.6377 16.1892H5.3623C3.40088 16.1892 1.8108 14.5991 1.8108 12.6377V5.3623C1.8108 3.40084 3.40088 1.8108 5.3623 1.8108H12.6377C14.5991 1.8108 16.1892 3.40084 16.1892 5.3623V12.6377Z" fill="black"/>
<path d="M9.00017 4.34473C6.43315 4.34473 4.34473 6.43315 4.34473 9.00013C4.34473 11.5671 6.43315 13.6556 9.00017 13.6556C11.5672 13.6556 13.6556 11.5671 13.6556 9.00013C13.6556 6.43312 11.5672 4.34473 9.00017 4.34473ZM9.00017 11.8448C7.4291 11.8448 6.15553 10.5712 6.15553 9.00017C6.15553 7.4291 7.42914 6.15553 9.00017 6.15553C10.5712 6.15553 11.8448 7.4291 11.8448 9.00017C11.8448 10.5712 10.5712 11.8448 9.00017 11.8448Z" fill="black"/>
<path d="M13.6644 5.49474C14.2805 5.49474 14.7799 4.9953 14.7799 4.37921C14.7799 3.76311 14.2805 3.26367 13.6644 3.26367C13.0483 3.26367 12.5488 3.76311 12.5488 4.37921C12.5488 4.9953 13.0483 5.49474 13.6644 5.49474Z" fill="black"/>
</svg>
