<svg width="36" height="36" viewBox="0 0 36 36" fill="none" xmlns="http://www.w3.org/2000/svg">
<g clip-path="url(#clip0)">
<path d="M13.1841 28.5618L11.3625 30.3708C9.78345 31.9359 7.2153 31.9373 5.63715 30.3708C4.87845 29.618 4.46175 28.6181 4.46175 27.5552C4.46175 26.4923 4.8789 25.4919 5.6367 24.7391L12.3417 18.0867C13.7313 16.7088 16.3453 14.6798 18.2506 16.5693C19.125 17.4378 20.5371 17.432 21.4051 16.5581C22.2736 15.6842 22.2682 14.2716 21.3939 13.404C18.1552 10.1901 13.3686 10.7841 9.1998 14.9205L2.49435 21.5733C0.8856 23.1704 0 25.2944 0 27.5552C0 29.816 0.8856 31.9395 2.4948 33.5366C4.15035 35.1791 6.3243 35.9999 8.49915 35.9999C10.6744 35.9999 12.8493 35.1791 14.5057 33.5357L16.3287 31.7262C17.2026 30.8586 17.2075 29.4465 16.339 28.5722C15.4719 27.6987 14.0584 27.6938 13.1841 28.5618ZM33.5043 2.71966C30.0258 -0.731844 25.1622 -0.919044 21.942 2.27596L19.6713 4.53001C18.7969 5.39806 18.7915 6.80971 19.66 7.68406C20.5285 8.55841 21.9406 8.56336 22.815 7.69531L25.0848 5.44261C26.7529 3.78616 28.9373 4.47286 30.3619 5.88631C31.1215 6.63916 31.5387 7.63951 31.5387 8.70241C31.5387 9.76576 31.1211 10.7661 30.3628 11.519L23.2092 18.6155C19.9382 21.8609 18.4037 20.3376 17.7489 19.6878C16.8745 18.8198 15.4629 18.8252 14.5944 19.6991C13.7259 20.573 13.7313 21.9855 14.6056 22.8531C16.1073 24.3435 17.8214 25.0824 19.6182 25.0824C21.8182 25.0824 24.142 23.9745 26.3515 21.7808L33.5052 14.6843C35.1135 13.0872 36 10.9628 36 8.70196C36 6.44206 35.1135 4.31761 33.5043 2.71966Z" fill="black"/>
</g>
<defs>
<clipPath id="clip0">
<rect width="36" height="36" fill="white"/>
</clipPath>
</defs>
</svg>
