<svg width="75" height="75" viewBox="0 0 75 75" fill="none" xmlns="http://www.w3.org/2000/svg">
<g clip-path="url(#clip0)">
<path d="M21.0128 53.8937L18.1903 56.7162C17.9739 56.5936 17.7305 56.527 17.482 56.5221H2.08377C1.2334 56.5221 0.543945 57.2116 0.543945 58.062V73.4602C0.543945 74.3105 1.2334 75 2.08377 75H17.482C18.3323 75 19.0218 74.3105 19.0218 73.4602V60.2393L23.1901 56.071L21.0128 53.8937ZM15.9421 71.9203H3.62359V59.6018H15.3047L9.78287 65.1236L7.79188 63.1326L5.61457 65.3099L8.69421 68.3895C9.29551 68.9906 10.2702 68.9906 10.8715 68.3895L15.9421 63.3189V71.9203Z" fill="black"/>
<path d="M21.0128 26.1769L18.1903 28.9994C17.9739 28.8768 17.7305 28.8102 17.482 28.8054H2.08377C1.2334 28.8054 0.543945 29.4949 0.543945 30.3452V45.7434C0.543945 46.5938 1.2334 47.2833 2.08377 47.2833H17.482C18.3323 47.2833 19.0218 46.5938 19.0218 45.7434V32.5225L23.1901 28.3542L21.0128 26.1769ZM15.9421 44.2036H3.62359V31.8851H15.3047L9.78287 37.4068L7.79188 35.4159L5.61457 37.5932L8.69421 40.6728C9.29551 41.2739 10.2702 41.2739 10.8715 40.6728L15.9421 35.6022V44.2036Z" fill="black"/>
<path d="M21.0128 0L18.1903 2.82249C17.9739 2.69988 17.7305 2.63329 17.482 2.62847H2.08377C1.2334 2.62847 0.543945 3.31793 0.543945 4.16829V19.5665C0.543945 20.4169 1.2334 21.1063 2.08377 21.1063H17.482C18.3323 21.1063 19.0218 20.4169 19.0218 19.5665V6.3456L23.1901 2.17731L21.0128 0ZM15.9421 18.0267H3.62359V5.70811H15.3047L9.78287 11.2299L7.79188 9.23892L5.61457 11.4162L8.69421 14.4959C9.29551 15.097 10.2702 15.097 10.8715 14.4959L15.9421 9.42523V18.0267Z" fill="black"/>
<path d="M74.4556 56.9733H29.8008V60.053H74.4556V56.9733Z" fill="black"/>
<path d="M74.4556 66.2123H29.8008V69.2919H74.4556V66.2123Z" fill="black"/>
<path d="M74.4556 29.2566H29.8008V32.3362H74.4556V29.2566Z" fill="black"/>
<path d="M74.4556 38.4955H29.8008V41.5751H74.4556V38.4955Z" fill="black"/>
<path d="M74.4556 3.07965H29.8008V6.15929H74.4556V3.07965Z" fill="black"/>
<path d="M74.4556 12.3185H29.8008V15.3982H74.4556V12.3185Z" fill="black"/>
</g>
<defs>
<clipPath id="clip0">
<rect width="75" height="75" fill="white" transform="matrix(1 0 0 -1 0 75)"/>
</clipPath>
</defs>
</svg>
