<svg width="19" height="15" viewBox="0 0 19 15" fill="none" xmlns="http://www.w3.org/2000/svg">
<path d="M16.6805 0H2.3234C1.0418 0 0 1.0418 0 2.3234V12.1359C0 13.4175 1.0418 14.4593 2.3234 14.4593H16.6766C17.9582 14.4593 19 13.4175 19 12.1359V2.32733C19.0039 1.04573 17.9621 0 16.6805 0ZM17.9425 12.1359C17.9425 12.8318 17.3764 13.3979 16.6805 13.3979H2.3234C1.62756 13.3979 1.06145 12.8318 1.06145 12.1359V2.32733C1.06145 1.63149 1.62756 1.06538 2.3234 1.06538H16.6766C17.3724 1.06538 17.9385 1.63149 17.9385 2.32733V12.1359H17.9425Z" fill="black"/>
<path d="M11.9827 7.10777L16.6295 2.94059C16.8457 2.74402 16.8654 2.40986 16.6688 2.18971C16.4723 1.97348 16.1381 1.95383 15.9179 2.15039L9.50992 7.90189L8.25977 6.7854C8.25584 6.78147 8.2519 6.77754 8.2519 6.77361C8.22439 6.74609 8.19687 6.7225 8.16542 6.69891L3.07831 2.14646C2.85816 1.9499 2.524 1.96955 2.32743 2.18971C2.13087 2.40986 2.15052 2.74402 2.37068 2.94059L7.07251 7.14315L2.39033 11.5266C2.17804 11.727 2.16625 12.0612 2.36674 12.2774C2.47289 12.3875 2.61442 12.4465 2.75594 12.4465C2.88568 12.4465 3.01541 12.3993 3.11762 12.3049L7.87057 7.85865L9.16004 9.01052C9.26225 9.10094 9.38805 9.14418 9.51385 9.14418C9.63966 9.14418 9.76939 9.09701 9.86767 9.00659L11.1925 7.81933L15.9179 12.3089C16.0202 12.4072 16.1538 12.4543 16.2836 12.4543C16.4251 12.4543 16.5627 12.3993 16.6688 12.2892C16.8693 12.0769 16.8615 11.7388 16.6492 11.5383L11.9827 7.10777Z" fill="black"/>
</svg>
