<svg width="18" height="14" viewBox="0 0 18 14" fill="none" xmlns="http://www.w3.org/2000/svg">
<path d="M0.771428 1.79998H17.2286C17.6529 1.79998 18 1.45284 18 1.02855C18 0.604269 17.6529 0.257126 17.2286 0.257126H0.771428C0.347143 0.257126 0 0.604269 0 1.02855C0 1.45284 0.347143 1.79998 0.771428 1.79998Z" fill="black"/>
<path d="M0.771428 7.58569H17.2286C17.6529 7.58569 18 7.23854 18 6.81426C18 6.38997 17.6529 6.04283 17.2286 6.04283H0.771428C0.347143 6.04283 0 6.38997 0 6.81426C0 7.23854 0.347143 7.58569 0.771428 7.58569Z" fill="black"/>
<path d="M0.771428 13.3714H17.2286C17.6529 13.3714 18 13.0243 18 12.6C18 12.1757 17.6529 11.8286 17.2286 11.8286H0.771428C0.347143 11.8286 0 12.1757 0 12.6C0 13.0243 0.347143 13.3714 0.771428 13.3714Z" fill="black"/>
</svg>
