<svg width="47" height="47" viewBox="0 0 47 47" fill="none" xmlns="http://www.w3.org/2000/svg">
<g clip-path="url(#clip0)">
<path d="M37.8845 4.62411C37.8845 6.86163 36.0785 8.66766 33.841 8.66766H14.9711C12.7336 8.66766 10.9276 10.4737 10.9276 12.7112C10.9276 13.4659 10.3346 14.0591 9.57972 14.0591C8.82483 14.0591 8.23187 13.4659 8.23187 12.7112C8.23187 8.99114 11.2511 5.97196 14.9711 5.97196H33.841C34.5959 5.97196 35.1889 5.379 35.1889 4.62411C35.1889 3.86923 34.5959 3.27626 33.841 3.27626H1.49262C0.737739 3.27626 0.144775 2.6833 0.144775 1.92842C0.144775 1.17353 0.737739 0.580566 1.49262 0.580566H33.841C36.0785 0.580566 37.8845 2.38659 37.8845 4.62411Z" fill="#465066"/>
<path d="M37.8844 4.62411C37.8844 6.86163 36.0784 8.66766 33.8409 8.66766H23.0581V5.97196H33.8409C34.5958 5.97196 35.1887 5.379 35.1887 4.62411C35.1887 3.86923 34.5958 3.27626 33.8409 3.27626H23.0581V0.580566H33.8409C36.0784 0.580566 37.8844 2.38659 37.8844 4.62411Z" fill="#35425C"/>
<path d="M39.4121 11.3633H6.88402C3.16396 11.3633 0.144775 14.3825 0.144775 18.1025V42.5435C0.144775 44.7809 1.9508 46.5871 4.18832 46.5871H6.88402C7.63891 46.5871 8.23187 45.9939 8.23187 45.2392V30.2332H38.0643L37.8845 45.2392C37.8845 45.9939 38.6572 46.5871 39.4121 46.5871H42.1078C44.3453 46.5871 46.1514 44.7809 46.1514 42.5435V18.1025C46.1514 14.3825 43.1322 11.3633 39.4121 11.3633Z" fill="#465066"/>
<path d="M46.1513 18.1025V42.5435C46.1513 44.7809 44.3452 46.5871 42.1077 46.5871H39.412C38.6571 46.5871 37.8844 45.9939 37.8844 45.2392L38.0642 30.2332H23.0581V11.3633H39.412C43.1321 11.3633 46.1513 14.3825 46.1513 18.1025Z" fill="#35425C"/>
<path d="M40.3825 27.915C40.14 27.6723 39.7896 27.5376 39.4121 27.5376H6.88398C6.50658 27.5376 6.15605 27.6724 5.91353 27.915C5.67092 28.1575 5.53613 28.508 5.53613 28.8854V46.5872H40.7599V28.8854C40.7599 28.508 40.6251 28.1575 40.3825 27.915Z" fill="#D1E0FF"/>
<path d="M40.7599 28.8854V46.5872H23.0581V27.5376H39.412C39.7894 27.5376 40.1399 27.6724 40.3825 27.915C40.6251 28.1575 40.7599 28.508 40.7599 28.8854Z" fill="#C4D3F2"/>
<path d="M35.1889 27.5376V39.848C35.1889 40.6027 34.5959 41.1958 33.841 41.1958C33.0861 41.1958 32.4932 40.6027 32.4932 39.848V27.5376H35.1889Z" fill="#35425C"/>
<path d="M29.7975 27.5376V39.848C29.7975 40.6027 29.2045 41.1958 28.4497 41.1958C27.6948 41.1958 27.1018 40.6027 27.1018 39.848V27.5376H29.7975Z" fill="#35425C"/>
<path d="M24.4059 27.5376V39.848C24.4059 40.6027 23.8129 41.1958 23.0581 41.1958C22.3032 41.1958 21.7102 40.6027 21.7102 39.848V27.5376H24.4059Z" fill="#465066"/>
<path d="M19.0145 27.5376V39.848C19.0145 40.6027 18.4216 41.1958 17.6667 41.1958C16.9118 41.1958 16.3188 40.6027 16.3188 39.848V27.5376H19.0145Z" fill="#465066"/>
<path d="M13.6232 27.5376V39.848C13.6232 40.6027 13.0302 41.1958 12.2753 41.1958C11.5205 41.1958 10.9275 40.6027 10.9275 39.848V27.5376H13.6232Z" fill="#465066"/>
<path d="M6.88398 19.4503C7.62838 19.4503 8.23183 18.8469 8.23183 18.1025C8.23183 17.3581 7.62838 16.7546 6.88398 16.7546C6.13959 16.7546 5.53613 17.3581 5.53613 18.1025C5.53613 18.8469 6.13959 19.4503 6.88398 19.4503Z" fill="#7588AC"/>
<path d="M12.2753 19.4503C13.0197 19.4503 13.6232 18.8469 13.6232 18.1025C13.6232 17.3581 13.0197 16.7546 12.2753 16.7546C11.5309 16.7546 10.9275 17.3581 10.9275 18.1025C10.9275 18.8469 11.5309 19.4503 12.2753 19.4503Z" fill="#7588AC"/>
<path d="M31.1452 18.1025H17.6667V23.4939H31.1452V18.1025Z" fill="#6EE5E5"/>
<path d="M12.2754 24.8419H6.88398C6.13898 24.8419 5.53613 24.2391 5.53613 23.4941C5.53613 22.7491 6.13898 22.1462 6.88398 22.1462H12.2754C13.0204 22.1462 13.6232 22.7491 13.6232 23.4941C13.6232 24.2391 13.0204 24.8419 12.2754 24.8419Z" fill="#7588AC"/>
<path d="M39.4122 19.4503H36.7165C35.9715 19.4503 35.3687 18.8475 35.3687 18.1025C35.3687 17.3575 35.9715 16.7546 36.7165 16.7546H39.4122C40.1572 16.7546 40.76 17.3575 40.76 18.1025C40.76 18.8475 40.1572 19.4503 39.4122 19.4503Z" fill="#5C739B"/>
<path d="M39.4122 24.8417H36.7165C35.9715 24.8417 35.3687 24.2388 35.3687 23.4938C35.3687 22.7488 35.9715 22.146 36.7165 22.146H39.4122C40.1572 22.146 40.76 22.7488 40.76 23.4938C40.76 24.2388 40.1572 24.8417 39.4122 24.8417Z" fill="#5C739B"/>
<path d="M23.0581 27.5376H24.406V39.848C24.406 40.6027 23.813 41.1958 23.0581 41.1958V27.5376Z" fill="#35425C"/>
<path d="M31.1452 16.7546H17.6667C16.9118 16.7546 16.3188 17.3476 16.3188 18.1025V23.4939C16.3188 24.2486 16.9118 24.8417 17.6667 24.8417H31.1452C31.9001 24.8417 32.493 24.2486 32.493 23.4939V18.1025C32.493 17.3476 31.9001 16.7546 31.1452 16.7546Z" fill="#6EE5E5"/>
<path d="M32.493 20.7982C32.493 22.146 32.493 23.4939 32.493 23.4939C32.493 24.2486 31.9001 24.8417 31.1452 24.8417H23.0581V22.146C23.0581 22.146 23.0581 21.4721 23.0581 20.7982C23.0581 20.1243 23.0581 19.4503 23.0581 19.4503V16.7546H31.1452C31.9001 16.7546 32.493 17.3476 32.493 18.1025C32.493 18.1025 32.493 19.4503 32.493 20.7982Z" fill="#52CED1"/>
</g>
<defs>
<clipPath id="clip0">
<rect width="46.0066" height="46.0066" fill="white" transform="translate(0.144775 0.580566)"/>
</clipPath>
</defs>
</svg>
