<svg width="24" height="25" viewBox="0 0 24 25" fill="none" xmlns="http://www.w3.org/2000/svg">
<path d="M21.672 18.6137C19.9534 16.6005 17.7439 15.0785 15.9762 13.1143C15.7798 12.918 15.6325 12.7215 15.4361 12.5251C17.1056 10.5611 18.8733 8.59707 20.5918 6.63301C21.5248 5.60188 22.6541 3.0977 20.8373 2.16477C18.9224 1.18273 17.1056 2.50848 15.6326 3.68691C14.1104 4.91445 12.6865 6.2893 11.4098 7.71324C9.9859 6.04379 8.51285 4.42344 6.8925 2.90129C5.7139 1.82105 2.5714 -1.17414 0.803822 0.495312C-0.914733 2.01746 0.460111 4.47254 1.78585 5.74918C1.93316 5.89648 2.12956 5.94559 2.32597 5.89648C4.48644 7.61504 6.3032 9.6282 8.07085 11.7396C5.81218 14.6856 3.74992 17.7791 1.49124 20.627C1.39304 20.7252 1.39304 20.8233 1.39304 20.9706C0.460111 21.658 -0.0309049 23.2293 0.803822 24.1131C2.37507 25.7826 4.38824 24.8005 5.91039 23.573C8.31636 21.7072 10.2804 19.0557 12.1954 16.5514C13.6684 18.1718 15.1906 19.6939 16.9582 21.0197C18.3822 22.0999 20.6408 23.7203 22.4576 22.64C24.1762 21.658 22.5066 19.5466 21.672 18.6137ZM8.51277 7.17312C8.51277 7.07492 8.46367 6.97672 8.41457 6.92762C8.21816 6.68211 7.97265 6.3875 7.77625 6.09289V6.04379C8.16906 6.5348 8.56187 7.07492 8.95468 7.56594C8.8073 7.46773 8.66007 7.32043 8.51277 7.17312ZM13.5701 7.46773C13.4228 7.61504 13.3246 7.81145 13.1773 7.95875C13.03 8.05695 12.8336 8.20426 12.6863 8.30246C12.9809 8.00785 13.2755 7.66414 13.5701 7.36953C13.5701 7.41863 13.5701 7.41863 13.5701 7.46773Z" fill="black"/>
</svg>
