<svg width="81" height="81" viewBox="0 0 81 81" fill="none" xmlns="http://www.w3.org/2000/svg">
<g clip-path="url(#clip0)">
<path d="M73.2658 67.0911L65.235 59.0577V1.35724C65.235 0.607708 64.6273 0 63.8777 0H23.1606C23.1348 0 23.1102 0.0132543 23.0844 0.0152424C22.9598 0.0212068 22.8365 0.04639 22.7192 0.0881409C22.6795 0.10007 22.6397 0.113987 22.6013 0.130555C22.4502 0.195501 22.3123 0.287618 22.1944 0.401605L5.9075 16.6885C5.79351 16.8038 5.70139 16.9383 5.63579 17.0861C5.61657 17.1285 5.60596 17.1702 5.59072 17.214C5.55162 17.3267 5.52843 17.444 5.5218 17.5626C5.5218 17.5924 5.50391 17.6182 5.50391 17.6481V69.2191C5.50391 69.9687 6.11161 70.5764 6.86114 70.5764H53.7157L61.7478 78.6045C63.2687 80.1426 65.3437 81.0055 67.5068 81.0002C70.8038 81.0028 73.7767 79.0173 75.0379 75.9708C76.2983 72.925 75.5985 69.4193 73.2644 67.0911H73.2658ZM61.7604 74.7839L40.635 53.6652L48.3239 45.9751L69.4426 67.1018L61.7604 74.7839ZM39.4866 50.974L37.6462 42.9889L45.6326 44.8279L39.4866 50.974ZM21.8034 4.63369V16.2869H10.1502L21.8034 4.63369ZM8.23097 67.8619V19.0013H23.1606C23.9101 19.0013 24.5178 18.3936 24.5178 17.6441V2.71448H62.5205V56.3419L49.2848 43.0963L49.2695 43.087C49.1575 42.9803 49.0283 42.8935 48.8872 42.8305C48.8487 42.814 48.8123 42.802 48.7745 42.7881C48.7268 42.7669 48.6784 42.7483 48.6287 42.7324L36.1425 39.8556C35.6859 39.7496 35.2074 39.8868 34.8761 40.2174C34.5447 40.5488 34.4082 41.0279 34.5136 41.4839L37.3911 53.9707C37.407 54.0204 37.4255 54.0695 37.4467 54.1172C37.4606 54.1537 37.4712 54.1901 37.4891 54.2272C37.5514 54.3704 37.6396 54.5016 37.7483 54.6136L37.7549 54.6248L50.9999 67.8619H8.23097ZM71.3426 76.6906C70.3273 77.7091 68.9482 78.2817 67.5101 78.2817C66.072 78.2817 64.6929 77.7091 63.6783 76.6906L64.3171 76.0504L71.3545 69.0143C72.3731 70.0309 72.945 71.412 72.9424 72.8515C72.9404 74.2909 72.3645 75.67 71.3426 76.6839V76.6906Z" fill="black"/>
<path d="M17.7322 27.1448H53.0204C53.77 27.1448 54.3777 26.5371 54.3777 25.7876C54.3777 25.0381 53.77 24.4304 53.0204 24.4304H17.7322C16.9827 24.4304 16.375 25.0381 16.375 25.7876C16.375 26.5371 16.9827 27.1448 17.7322 27.1448V27.1448Z" fill="black"/>
<path d="M17.7322 35.2882H53.0204C53.77 35.2882 54.3777 34.6805 54.3777 33.931C54.3777 33.1814 53.77 32.5737 53.0204 32.5737H17.7322C16.9827 32.5737 16.375 33.1814 16.375 33.931C16.375 34.6805 16.9827 35.2882 17.7322 35.2882V35.2882Z" fill="black"/>
<path d="M27.2329 40.7171H17.7322C16.9827 40.7171 16.375 41.3248 16.375 42.0743C16.375 42.8239 16.9827 43.4316 17.7322 43.4316H27.2329C27.9824 43.4316 28.5901 42.8239 28.5901 42.0743C28.5901 41.3248 27.9824 40.7171 27.2329 40.7171Z" fill="black"/>
</g>
<defs>
<clipPath id="clip0">
<rect width="81" height="81" fill="white"/>
</clipPath>
</defs>
</svg>
