<svg width="18" height="18" viewBox="0 0 18 18" fill="none" xmlns="http://www.w3.org/2000/svg">
<g clip-path="url(#clip0)">
<path d="M13.6851 11.9074C13.097 11.3268 12.3629 11.3268 11.7786 11.9074C11.3328 12.3493 10.8871 12.7913 10.4489 13.2408C10.329 13.3644 10.2279 13.3906 10.0818 13.3082C9.79337 13.1509 9.48623 13.0236 9.20905 12.8513C7.91681 12.0385 6.83433 10.9934 5.87544 9.8173C5.39975 9.23299 4.97649 8.60747 4.68059 7.90329C4.62066 7.76095 4.63189 7.66731 4.74801 7.5512C5.19374 7.12045 5.62823 6.67847 6.06647 6.23648C6.67701 5.6222 6.67701 4.90304 6.06273 4.28501C5.71438 3.93292 5.36604 3.58832 5.01769 3.23623C4.65811 2.87665 4.30228 2.51333 3.93895 2.15749C3.35089 1.58441 2.61675 1.58441 2.03243 2.16124C1.58295 2.60322 1.1522 3.05644 0.695238 3.49094C0.271981 3.89172 0.0584805 4.3824 0.0135329 4.95548C-0.0576341 5.88814 0.170849 6.76836 0.492974 7.62611C1.1522 9.40154 2.15603 10.9784 3.37336 12.4243C5.01769 14.3795 6.98041 15.9264 9.27648 17.0426C10.3103 17.5445 11.3815 17.9303 12.5464 17.994C13.348 18.039 14.0447 17.8367 14.6028 17.2112C14.9848 16.7842 15.4156 16.3946 15.8201 15.9864C16.4194 15.3796 16.4231 14.6454 15.8276 14.0461C15.1159 13.3307 14.4005 12.619 13.6851 11.9074Z" fill="black"/>
<path d="M12.9694 8.92208L14.3516 8.68611C14.1343 7.41634 13.535 6.26643 12.6248 5.3525C11.6622 4.38987 10.4449 3.78308 9.10395 3.59579L8.90918 4.98542C9.94672 5.1315 10.8906 5.59971 11.636 6.34509C12.3402 7.04927 12.8009 7.94073 12.9694 8.92208Z" fill="black"/>
<path d="M15.1307 2.9141C13.5351 1.31846 11.5162 0.310887 9.28755 0L9.09277 1.38963C11.018 1.65931 12.7635 2.53205 14.1419 3.90669C15.4491 5.21392 16.3069 6.86574 16.6177 8.68237L17.9999 8.4464C17.6366 6.34135 16.644 4.43108 15.1307 2.9141Z" fill="black"/>
</g>
<defs>
<clipPath id="clip0">
<rect width="18" height="18" fill="white"/>
</clipPath>
</defs>
</svg>
