<svg width="19" height="19" viewBox="0 0 19 19" fill="none" xmlns="http://www.w3.org/2000/svg">
<path d="M14.4825 11.3616C14.107 10.9706 13.654 10.7616 13.174 10.7616C12.6979 10.7616 12.2411 10.9668 11.8501 11.3578L10.6268 12.5772C10.5261 12.523 10.4255 12.4727 10.3287 12.4223C10.1894 12.3526 10.0577 12.2868 9.94547 12.2172C8.7996 11.4894 7.75826 10.5409 6.7595 9.31378C6.2756 8.70214 5.95043 8.18727 5.71428 7.66466C6.03172 7.37433 6.32593 7.07237 6.6124 6.78204C6.72079 6.67364 6.82918 6.56138 6.93757 6.45299C7.75052 5.64004 7.75052 4.58709 6.93757 3.77414L5.88075 2.71731C5.76074 2.59731 5.63686 2.47343 5.52073 2.34955C5.28846 2.10954 5.04457 1.86179 4.79295 1.62952C4.41744 1.25788 3.96839 1.06046 3.49611 1.06046C3.02382 1.06046 2.56703 1.25788 2.17991 1.62952C2.17604 1.63339 2.17604 1.63339 2.17217 1.63726L0.855972 2.96507C0.360463 3.46058 0.0778679 4.06448 0.0159293 4.76516C-0.0769787 5.89554 0.255942 6.9485 0.511438 7.63756C1.13857 9.32926 2.07539 10.8971 3.47288 12.5772C5.16845 14.6018 7.20855 16.2006 9.539 17.3271C10.4294 17.749 11.6178 18.2484 12.9456 18.3336C13.0269 18.3375 13.1121 18.3413 13.1895 18.3413C14.0837 18.3413 14.8348 18.02 15.4232 17.3813C15.427 17.3735 15.4348 17.3697 15.4387 17.3619C15.64 17.118 15.8722 16.8974 16.1161 16.6613C16.2826 16.5025 16.4529 16.3361 16.6194 16.1619C17.0026 15.7631 17.2039 15.2986 17.2039 14.8224C17.2039 14.3424 16.9987 13.8818 16.6077 13.4946L14.4825 11.3616ZM15.8684 15.438C15.8645 15.438 15.8645 15.4418 15.8684 15.438C15.7174 15.6006 15.5625 15.7477 15.3961 15.9102C15.1444 16.1503 14.8889 16.4019 14.6489 16.6845C14.2579 17.1026 13.7973 17.3 13.1934 17.3C13.1353 17.3 13.0734 17.3 13.0153 17.2961C11.8656 17.2226 10.7971 16.7735 9.99579 16.3903C7.80471 15.3296 5.88075 13.8237 4.28195 11.9152C2.96189 10.3242 2.07926 8.85311 1.49471 7.27368C1.1347 6.30976 1.00308 5.55875 1.06114 4.85033C1.09986 4.3974 1.27406 4.0219 1.59536 3.70059L2.91543 2.38052C3.10512 2.20245 3.30642 2.10567 3.50385 2.10567C3.74773 2.10567 3.94516 2.25277 4.06904 2.37665C4.07291 2.38052 4.07678 2.38439 4.08065 2.38827C4.31679 2.60892 4.54132 2.83732 4.77746 3.0812C4.89747 3.20508 5.02135 3.32896 5.14522 3.45671L6.20205 4.51353C6.6124 4.92388 6.6124 5.30325 6.20205 5.7136C6.08979 5.82586 5.9814 5.93812 5.86913 6.04652C5.54395 6.37944 5.23426 6.68913 4.89747 6.99108C4.88973 6.99882 4.88198 7.00269 4.87811 7.01044C4.54519 7.34336 4.60713 7.66853 4.67681 7.88919C4.68068 7.9008 4.68456 7.91242 4.68843 7.92403C4.96328 8.58987 5.3504 9.217 5.93881 9.96414L5.94268 9.96801C7.01113 11.2842 8.13764 12.3101 9.38028 13.0959C9.539 13.1966 9.70159 13.2779 9.85643 13.3553C9.99579 13.425 10.1274 13.4908 10.2397 13.5604C10.2552 13.5682 10.2706 13.5798 10.2861 13.5875C10.4178 13.6534 10.5416 13.6843 10.6694 13.6843C10.9907 13.6843 11.192 13.483 11.2578 13.4172L12.5817 12.0933C12.7134 11.9617 12.9224 11.8029 13.1663 11.8029C13.4063 11.8029 13.6037 11.9539 13.7237 12.0855C13.7276 12.0894 13.7276 12.0894 13.7315 12.0933L15.8645 14.2263C16.2632 14.6211 16.2632 15.0276 15.8684 15.438Z" fill="black"/>
<path d="M9.89892 4.36256C10.9132 4.53289 11.8345 5.01292 12.57 5.74844C13.3055 6.48396 13.7817 7.4053 13.9559 8.41954C13.9985 8.67504 14.2191 8.85311 14.4708 8.85311C14.5017 8.85311 14.5288 8.84924 14.5598 8.84537C14.8463 8.79892 15.036 8.52794 14.9895 8.24147C14.7805 7.01431 14.1998 5.89554 13.3133 5.00905C12.4268 4.12255 11.308 3.54188 10.0809 3.33283C9.7944 3.28638 9.52729 3.47607 9.47697 3.75866C9.42664 4.04126 9.61246 4.31611 9.89892 4.36256Z" fill="black"/>
<path d="M18.3072 8.09096C17.9627 6.07021 17.0104 4.23141 15.5471 2.76811C14.0838 1.30481 12.245 0.352501 10.2242 0.00796743C9.94162 -0.0423577 9.67451 0.151201 9.62418 0.433796C9.57773 0.720262 9.76741 0.987372 10.0539 1.0377C11.8578 1.34352 13.5031 2.19905 14.8115 3.50363C16.12 4.81208 16.9717 6.45733 17.2775 8.26129C17.3201 8.51679 17.5407 8.69486 17.7923 8.69486C17.8233 8.69486 17.8504 8.69099 17.8814 8.68712C18.164 8.64454 18.3575 8.37356 18.3072 8.09096Z" fill="black"/>
</svg>
