<svg width="14" height="18" viewBox="0 0 14 18" fill="none" xmlns="http://www.w3.org/2000/svg">
<path d="M7.02358 0C3.36015 0 0.379395 2.97283 0.379395 6.62688C0.379395 7.57999 0.574996 8.49001 0.960474 9.33186C2.6217 12.9574 5.80674 16.7851 6.74356 17.8718C6.81375 17.953 6.91608 17.9998 7.02376 17.9998C7.13144 17.9998 7.23377 17.953 7.30396 17.8718C8.24041 16.7853 11.4254 12.9577 13.0872 9.33186C13.4729 8.49001 13.6683 7.57999 13.6683 6.62688C13.6679 2.97283 10.6872 0 7.02358 0ZM7.02358 10.0689C5.12057 10.0689 3.57219 8.52464 3.57219 6.62669C3.57219 4.72856 5.12057 3.18431 7.02358 3.18431C8.92658 3.18431 10.475 4.72856 10.475 6.62669C10.4751 8.52464 8.92677 10.0689 7.02358 10.0689Z" fill="black"/>
</svg>
