<svg width="16" height="20" viewBox="0 0 16 20" fill="none" xmlns="http://www.w3.org/2000/svg">
<path d="M7.71164 19.7973C7.55611 19.7973 7.40759 19.7336 7.29986 19.6208C7.00218 19.304 0 11.8352 0 7.71164C0 3.45934 3.45934 0 7.71164 0C11.9633 0 15.4233 3.45934 15.4233 7.71164C15.4233 11.8358 8.42174 19.3046 8.12342 19.6208C8.01634 19.7336 7.86718 19.7973 7.71164 19.7973ZM7.71164 1.1308C4.08339 1.1308 1.13144 4.08275 1.13144 7.71101C1.13144 10.5661 5.55075 16.0199 7.71164 18.3988C9.87317 16.0193 14.2918 10.5667 14.2918 7.71101C14.2925 4.08275 11.3399 1.1308 7.71164 1.1308Z" fill="black"/>
<path d="M7.71144 10.1251C5.91261 10.1251 4.44971 8.66222 4.44971 6.86339C4.44971 5.0652 5.91261 3.60165 7.71144 3.60165C9.50964 3.60165 10.9732 5.0652 10.9732 6.86339C10.9732 8.66222 9.51027 10.1251 7.71144 10.1251ZM7.71144 4.73309C6.53602 4.73309 5.58051 5.6886 5.58051 6.86339C5.58051 8.03881 6.53602 8.99432 7.71144 8.99432C8.88623 8.99432 9.84174 8.03881 9.84174 6.86339C9.84174 5.6886 8.88623 4.73309 7.71144 4.73309Z" fill="black"/>
</svg>
