<svg width="18" height="18" viewBox="0 0 18 18" fill="none" xmlns="http://www.w3.org/2000/svg">
<path d="M17.6365 15.876L13.8323 12.0715C14.7569 10.7856 15.2652 9.24886 15.2652 7.63127C15.2652 5.59374 14.4719 3.67752 13.029 2.236C11.5892 0.795106 9.67149 0 7.63249 0C5.5941 0 3.67704 0.793239 2.23599 2.236C0.794927 3.67628 0.000976562 5.59311 0.000976562 7.63127C0.000976562 9.66943 0.794305 11.5856 2.23599 13.0278C3.67704 14.4687 5.59348 15.2638 7.63249 15.2638C9.24963 15.2638 10.7853 14.758 12.0726 13.831L15.8769 17.6354C16.1208 17.8787 16.4381 18 16.7567 18C17.0759 18 17.3938 17.8787 17.6365 17.6354C18.1225 17.1489 18.1225 16.3619 17.6365 15.876ZM3.99624 11.2677C3.02434 10.2959 2.48985 9.00373 2.48985 7.63065C2.48985 6.25757 3.02434 4.96661 3.99624 3.99482C4.96752 3.02302 6.25863 2.48797 7.63249 2.48797C9.00634 2.48797 10.2981 3.02302 11.2694 3.99482C12.2413 4.96661 12.7764 6.25819 12.7764 7.63127C12.7764 9.00436 12.2419 10.2959 11.2694 11.2684C10.2974 12.2401 9.00697 12.774 7.63249 12.774C6.258 12.774 4.96628 12.2389 3.99624 11.2677Z" fill="black"/>
</svg>
