<svg width="120" height="80" viewBox="0 0 120 80" fill="none" xmlns="http://www.w3.org/2000/svg">
<path d="M115.08 36.5667C115.056 36.5667 115.056 36.5667 115.056 36.5667C114.796 34.8797 113.282 33.6442 111.555 33.763C111.201 33.7867 110.869 33.8818 110.562 34.0006C109.971 31.482 107.676 29.6525 105.05 29.7238C104.081 27.0389 101.431 25.2331 98.4507 25.4707C94.8789 25.7559 92.1822 28.8684 92.4661 32.4799C92.4661 32.4799 92.4661 32.4799 92.4661 32.5037C91.4726 32.6225 90.621 33.169 90.1006 33.9531C89.5329 33.7392 88.8942 33.6204 88.2083 33.6679C85.8428 33.858 84.0923 35.9014 84.2816 38.2774C84.3999 39.9881 85.5116 41.3662 87.0255 41.9602C87.6642 43.8135 89.4619 45.0965 91.4962 44.954C92.5134 44.8589 93.4123 44.455 94.1219 43.8135C95.2337 45.5717 97.2207 46.6647 99.4442 46.4984C101.1 46.3796 102.543 45.548 103.513 44.3362C104.696 45.5004 106.541 46.1895 108.599 46.0232C111.366 45.8093 113.59 44.1224 114.11 42.0552C114.536 42.1978 115.009 42.2691 115.529 42.2453C117.256 42.1265 118.557 40.7484 118.439 39.1803C118.297 37.5884 116.807 36.4241 115.08 36.5667Z" fill="#E7F9FF"/>
<path opacity="0.4" d="M118.415 39.1565C118.297 37.6121 116.807 36.4479 115.08 36.5667C115.056 36.5667 115.056 36.5667 115.056 36.5667C114.796 34.8797 113.282 33.6442 111.555 33.763C111.201 33.7868 110.869 33.8818 110.562 34.0006C110.562 34.0006 114.441 33.7392 114.607 37.1607C114.749 37.1369 114.891 37.1369 115.033 37.1607C116.452 37.2557 117.564 38.3487 117.469 39.5842C117.374 40.8197 116.168 41.7701 114.725 41.6751C114.37 41.6513 114.015 41.5563 113.708 41.4137C113.211 42.3879 112.407 43.2432 111.177 43.5759C104.766 45.2391 102.921 41.3424 102.921 41.3424C102.921 41.3424 100.84 44.5263 98.0959 44.36C95.3519 44.1936 94.0982 41.7464 94.0982 41.7464C94.0982 41.7464 91.7564 44.5738 89.4619 43.4571C87.1674 42.3404 87.1674 39.2278 87.1674 39.2278C87.1674 39.2278 82.9096 37.8022 86.5997 34.1194C85.1095 34.8797 84.1396 36.4954 84.2816 38.2536C84.3998 39.9644 85.5116 41.3424 87.0255 41.9364C87.6642 43.7897 89.4619 45.0728 91.4962 44.9302C92.5134 44.8352 93.4123 44.4312 94.1219 43.7897C95.2337 45.548 97.2207 46.6409 99.4442 46.4746C101.1 46.3558 102.543 45.5242 103.513 44.3124C104.696 45.4767 106.541 46.1657 108.599 45.9994C111.366 45.7856 113.59 44.0986 114.11 42.0315C114.536 42.174 115.009 42.2453 115.529 42.2216C117.232 42.079 118.534 40.7009 118.415 39.1565Z" fill="#E7F9FF"/>
<path d="M66.7535 72.7056C67.2975 69.7831 67.061 66.7894 66.8481 63.8431C66.6115 60.6355 66.5406 57.3804 66.0438 54.1965C65.9965 53.8401 65.4051 53.8164 65.3578 54.1728C64.8138 57.024 65.1923 59.9465 65.4525 62.8452C65.7363 66.1003 65.8073 69.3317 66.0202 72.5868C66.0202 72.9907 66.6825 73.1808 66.7535 72.7056Z" fill="#FFAF5F"/>
<path d="M36.4516 73.2284C37.6107 70.6148 37.3032 67.526 37.0903 64.746C36.8538 61.5147 36.6172 58.2358 36.1205 55.0282C36.0732 54.6956 35.5054 54.648 35.4345 55.0044C34.9377 57.6418 35.3162 60.3029 35.5764 62.9403C35.9312 66.3617 35.813 69.7119 35.9549 73.1333C35.9785 73.4422 36.3334 73.4897 36.4516 73.2284Z" fill="#FFAF5F"/>
<path d="M76.1207 71.0425C75.6712 73.7036 74.5122 71.3276 73.4714 70.3772C73.0219 69.9495 72.1231 69.7119 71.5317 70.0445C70.964 70.3534 69.9941 72.777 69.521 72.6344C68.3383 72.3018 67.2975 71.4702 66.0911 71.2326C66.0675 71.6365 66.0675 72.0166 66.0438 72.4206C66.0675 72.4206 66.0675 72.4206 66.0911 72.4206C66.6825 72.3255 66.7061 71.3751 66.1384 71.2326C65.0976 70.9712 63.4891 71.0662 62.6139 70.4485C62.6849 70.7336 62.7558 71.0187 62.8031 71.3276C62.8268 71.3038 62.8268 71.2801 62.8504 71.2801C63.2289 70.7098 62.5666 70.1634 62.0225 70.401C61.1473 70.7811 60.3667 71.3276 59.5624 71.8266C58.4743 72.4918 56.9841 71.6365 55.9433 71.2801C54.1455 70.6623 52.7499 72.0642 51.6381 73.2759C51.9456 73.2759 52.2532 73.2997 52.5607 73.2997C51.5908 72.2542 49.2017 69.4268 47.4276 70.3772C46.8599 70.6623 46.647 71.0425 46.4341 71.6365C46.2685 72.0642 46.2212 72.5631 46.1029 73.0146C45.7954 74.2501 44.2579 72.7532 43.9031 72.4918C42.4601 71.4939 40.071 70.496 38.6044 71.7553C37.4927 72.7294 37.2561 73.4423 35.6003 72.872C34.4412 72.4681 33.4477 72.5869 32.3359 73.0621C31.6736 73.3472 32.0994 74.3927 32.7854 74.2263C34.7251 73.7749 36.5228 75.3193 38.2969 74.4877C38.7937 74.2501 39.1485 73.5135 39.4087 73.0621C40.0237 72.0404 43.2644 73.7749 43.8558 74.2501C44.66 74.8916 46.3158 75.3193 47.0491 74.2976C47.4276 73.7511 47.5695 73.1571 47.7115 72.5156C48.1372 70.5198 51.1177 73.6086 51.6618 74.2026C51.8983 74.4402 52.3478 74.4877 52.5843 74.2263C53.5542 73.1571 54.453 72.1117 55.9906 72.6344C56.6529 72.8483 57.2679 73.1571 57.9539 73.2284C59.9646 73.4898 60.8871 72.278 62.6612 71.4939C62.3773 71.2088 62.1171 70.8999 61.8333 70.6148C61.8096 70.6386 61.8096 70.6623 61.786 70.6623C61.5967 70.9712 61.6914 71.3276 61.9752 71.5414C62.9924 72.2542 64.6245 72.1354 65.8073 72.4443C65.8309 72.0404 65.8309 71.6602 65.8546 71.2563C65.8309 71.2563 65.8309 71.2563 65.8073 71.2563C65.2396 71.3514 65.1686 72.3255 65.76 72.4443C67.5341 72.8007 69.0953 74.6065 70.7511 73.2759C71.1532 72.9433 71.3661 72.3255 71.5553 71.8978C72.0994 70.7098 73.1402 71.5652 73.637 72.2542C74.2993 73.1571 74.8906 73.6086 76.0024 73.7274C76.2863 73.7511 76.4519 73.5135 76.4755 73.2759C76.5938 72.5394 76.5938 71.9216 76.5465 71.185C76.4992 70.8999 76.168 70.8049 76.1207 71.0425Z" fill="#FFAF5F"/>
<path d="M71.9573 53.4838C65.0974 54.0303 58.3086 54.2204 51.4251 54.4105C47.7113 54.5055 43.9975 54.6956 40.2601 54.8619C36.9011 55.0045 33.4475 54.9332 30.1359 55.4084C29.4499 55.5034 29.6155 56.5251 30.2542 56.5726C33.8733 56.834 37.6344 56.3588 41.2299 56.145C44.9437 55.9311 48.6811 55.741 52.3949 55.551C58.8526 55.2421 65.6888 55.7886 71.9809 53.959C72.2648 53.8878 72.2411 53.4601 71.9573 53.4838Z" fill="#FFAF5F"/>
<path d="M73.1638 53.9827C69.379 51.179 64.4825 50.49 60.1774 48.803C55.1153 46.8547 50.408 44.051 45.4642 41.7938C45.2749 41.7225 44.9911 41.7938 44.8728 41.9364C40.0473 47.4012 33.9207 51.4166 28.8586 56.6201C28.3855 57.0953 29.0479 57.7843 29.5683 57.3804C32.7143 54.7431 35.8604 52.0582 38.9828 49.397C40.5204 48.0665 42.0343 46.7122 43.4772 45.2866C44.0686 44.7163 44.6126 44.0985 45.1803 43.4808C45.89 42.6729 48.5629 44.55 49.3672 44.9539C53.1283 46.8072 56.8184 48.7793 60.7451 50.2762C64.79 51.8206 68.9059 52.866 72.8799 54.6718C73.2584 54.8143 73.4713 54.1966 73.1638 53.9827Z" fill="#FFAF5F"/>
<path d="M62.6373 50.6088C63.7727 50.0148 64.4587 48.803 64.9318 47.6626C65.4759 46.3558 66.3038 44.7163 66.1382 43.267C66.1146 43.0056 65.7597 42.9581 65.5941 43.1007C64.7662 43.8847 64.6007 45.144 64.2458 46.1657C63.7491 47.6151 63.0394 48.8268 62.1642 50.0623C61.904 50.395 62.3061 50.7751 62.6373 50.6088Z" fill="#FFAF5F"/>
<path d="M57.7409 48.7318C58.5925 47.8764 59.1129 46.9022 59.5623 45.7855C60.0354 44.5975 60.8633 43.0769 60.6977 41.7938C60.6741 41.6038 60.3902 41.485 60.2483 41.58C59.3731 42.174 59.1602 43.2194 58.8527 44.1936C58.3796 45.6192 58.0248 47.0923 57.3861 48.4229C57.2442 48.6367 57.528 48.9456 57.7409 48.7318Z" fill="#FFAF5F"/>
<path d="M66.233 43.5521C65.1922 42.8393 63.7966 42.5779 62.5902 42.269C61.4784 41.9839 59.9645 41.485 58.9237 42.0552C58.7109 42.174 58.7109 42.4591 58.9001 42.5779C59.799 43.2194 61.1709 43.1719 62.2354 43.4095C63.4654 43.6946 64.7428 44.2649 66.0201 44.2174C66.3986 44.2174 66.5405 43.7659 66.233 43.5521Z" fill="#FFAF5F"/>
<path d="M64.388 42.079C65.145 39.9881 66.7535 38.5387 68.8351 37.8735C71.5081 37.0181 73.2349 38.4912 72.8564 41.2236C73.2349 41.2474 73.6133 41.2474 73.9918 41.2711C73.9918 37.4458 78.1314 37.2795 80.9699 37.921C82.3419 38.2299 83.6429 38.8714 84.802 39.6555C85.4407 40.1069 85.9847 40.7009 86.4342 41.3662C86.9309 42.1027 86.6471 43.1957 86.0557 42.1978C85.9847 42.4591 85.9138 42.7205 85.8191 42.9581C86.4578 42.5542 87.2857 42.2453 87.9481 41.8889C90.7866 40.3207 94.6423 43.4333 93.7671 46.4746C94.1219 46.4983 94.4767 46.4983 94.8552 46.5221C94.0273 44.2649 98.7109 45.049 99.6808 45.2866C103.087 46.1182 102.732 48.9931 102.685 51.8919C102.685 52.2245 103.158 52.2958 103.253 51.9869C104.506 47.9002 103.229 44.8589 99.0421 44.0273C97.197 43.6709 92.679 43.6947 93.7908 46.7835C93.9563 47.2824 94.6896 47.4012 94.8789 46.831C95.5885 44.455 94.4531 42.174 92.2059 41.1286C89.7222 39.9881 87.5459 40.5821 85.3224 42.0077C85.0622 42.174 84.9203 42.5067 85.0858 42.768C85.5589 43.5521 87.6405 44.6688 88.09 43.267C88.776 41.0811 85.7718 38.8476 84.2343 37.9685C80.5678 35.9014 72.9274 35.3311 72.9037 41.2474C72.9037 42.0077 73.9209 41.9839 74.0391 41.2949C75.1272 33.8818 64.4117 36.2815 63.7257 41.9839C63.6074 42.3879 64.2461 42.4591 64.388 42.079Z" fill="#FFAF5F"/>
<path d="M54.8078 67.5022C54.7132 66.2429 54.6658 64.9837 54.5239 63.7244C54.4056 62.6314 54.4766 61.3009 53.7906 60.4217C53.625 60.2079 53.2229 60.3029 53.1756 60.5643C52.9391 61.5147 53.2939 62.5601 53.4595 63.5105C53.6724 64.8886 53.9562 66.2192 54.4056 67.5497C54.4766 67.7636 54.8314 67.7636 54.8078 67.5022Z" fill="#FFAF5F"/>
<path d="M54.3583 66.8369C52.8208 66.7181 51.2832 66.7894 49.7457 66.7419C48.3028 66.6944 46.9781 66.6469 45.6298 67.2409C45.4405 67.3359 45.4642 67.6685 45.6771 67.7161C47.0018 67.9537 48.3501 67.9061 49.6984 67.9537C51.2832 68.0012 52.9154 68.12 54.4293 67.621C54.8551 67.4785 54.8078 66.8845 54.3583 66.8369Z" fill="#FFAF5F"/>
<path d="M46.6233 67.3358C46.9781 66.2666 46.9544 65.0786 46.9544 63.9619C46.9544 63.0353 47.0964 61.9898 46.505 61.2295C46.3631 61.0394 46.0082 61.087 45.9136 61.277C45.5115 62.0849 45.748 63.0353 45.7717 63.9144C45.7954 65.0311 45.7007 66.1954 45.9609 67.3121C46.0319 67.6447 46.505 67.6447 46.6233 67.3358Z" fill="#FFAF5F"/>
<path d="M54.6186 60.7781C51.7564 59.9227 48.3975 60.5167 45.4643 60.7068C44.8493 60.7543 44.8019 61.6335 45.4406 61.681C48.3738 61.9661 51.6145 61.4671 54.5477 61.182C54.7606 61.1582 54.8552 60.8494 54.6186 60.7781Z" fill="#FFAF5F"/>
<path d="M54.7839 63.6768C53.1754 63.3679 51.4959 63.4155 49.8637 63.463C48.5391 63.4867 46.694 63.4392 45.6769 64.3896C45.4876 64.5797 45.6059 64.9124 45.8661 64.9124C47.3327 64.9836 48.8939 64.4609 50.3841 64.4134C51.8507 64.3659 53.341 64.4847 54.7839 64.057C54.9258 63.9857 54.9731 63.7006 54.7839 63.6768Z" fill="#FFAF5F"/>
<path d="M49.8878 63.5818C49.7222 64.3659 49.7931 65.1262 49.9114 65.8865C50.006 66.5281 50.1953 67.3834 50.8812 67.621C51.0232 67.6685 51.1414 67.5735 51.2124 67.4547C51.4489 66.932 51.1651 66.3855 51.0468 65.8628C50.8812 65.1262 50.8576 64.3421 50.7393 63.5818C50.6684 63.1779 49.9824 63.1541 49.8878 63.5818Z" fill="#FFAF5F"/>
<path d="M73.0227 21.0989C72.9991 21.0989 72.9991 21.0989 72.9754 21.0989C72.5496 18.2239 69.9713 16.1331 67.0381 16.3469C66.4467 16.3944 65.8554 16.537 65.335 16.7508C64.3415 12.474 60.4385 9.38522 55.9677 9.48026C54.3119 4.94209 49.8175 1.87705 44.7791 2.25721C38.6998 2.73241 34.1581 8.0309 34.6312 14.1372C34.6312 14.1372 34.6312 14.1372 34.6312 14.161C32.9518 14.3511 31.5088 15.3015 30.6336 16.632C29.6638 16.2519 28.5756 16.0618 27.4402 16.1568C23.4426 16.4657 20.4621 19.9584 20.7696 23.9739C20.9825 26.8726 22.8749 29.2248 25.4059 30.2228C26.4704 33.3828 29.5455 35.545 32.9991 35.2836C34.7259 35.1411 36.2634 34.4283 37.4461 33.3353C39.3149 36.3053 42.7211 38.1824 46.4586 37.8972C49.2735 37.6834 51.7335 36.2816 53.3657 34.2144C55.3527 36.1865 58.5224 37.3508 61.9997 37.0656C66.7069 36.7092 70.468 33.858 71.3432 30.3416C72.0765 30.6029 72.8808 30.7217 73.7324 30.6742C76.6655 30.4604 78.8654 28.1319 78.6525 25.4708C78.4869 22.8571 75.9559 20.8851 73.0227 21.0989Z" fill="#E7F9FF"/>
<path opacity="0.4" d="M78.699 25.4945C78.5098 22.8572 75.9551 20.8851 73.0456 21.0989C73.0219 21.0989 73.0219 21.0989 72.9983 21.0989C72.5725 18.2239 69.9941 16.1331 67.0609 16.3469C66.4696 16.3944 65.8782 16.537 65.3578 16.7508C65.3578 16.7508 71.9338 16.3231 72.2177 22.0968C72.4542 22.0731 72.6908 22.0731 72.951 22.0968C75.3637 22.2394 77.2324 24.0927 77.0905 26.2073C76.9486 28.322 74.8906 29.9139 72.4542 29.7713C71.8392 29.7238 71.2478 29.5812 70.7274 29.3436C69.8758 31.0068 68.5275 32.4562 66.4223 33.0027C55.5411 35.8064 52.3951 29.2248 52.3951 29.2248C52.3951 29.2248 48.8469 34.6421 44.2106 34.357C39.5742 34.0719 37.4217 29.9139 37.4217 29.9139C37.4217 29.9139 33.4477 34.7134 29.5447 32.8126C25.6417 30.9118 25.6653 25.6371 25.6653 25.6371C25.6653 25.6371 18.4506 23.2373 24.6955 16.9647C22.1644 18.2715 20.5323 20.9801 20.7688 23.9976C20.9817 26.8964 22.8741 29.2486 25.4051 30.2465C26.4696 33.4066 29.5447 35.5688 32.9983 35.3074C34.725 35.1648 36.2626 34.452 37.4453 33.3591C39.314 36.3291 42.7203 38.2061 46.4577 37.921C49.2726 37.7072 51.7327 36.3053 53.3649 34.2382C55.3519 36.2103 58.5216 37.3745 61.9989 37.0894C66.7061 36.733 70.4672 33.8818 71.3424 30.3653C72.0757 30.6267 72.88 30.7455 73.7316 30.698C76.6884 30.4604 78.8883 28.1319 78.699 25.4945Z" fill="#E7F9FF"/>
<path d="M15.3757 24.6867C12.1586 24.948 10.5028 30.0089 11.9931 32.6463C13.7435 35.7826 18.6637 37.2557 21.6205 34.9035C24.2935 32.8126 26.8482 27.3478 22.6377 25.3995C20.0593 24.1877 15.2811 25.7559 15.352 29.0347C15.352 29.2723 15.7305 29.4149 15.8251 29.1773C16.7003 27.1815 18.9239 26.2548 20.9818 26.2786C25.5235 26.3023 23.1344 32.0047 21.2657 33.7868C19.0185 35.9252 14.737 35.0223 13.1048 32.575C11.7565 30.5554 13.1521 26.1598 15.3993 25.2094C15.7068 25.1143 15.7068 24.6391 15.3757 24.6867Z" fill="#FFAF5F"/>
<path d="M12.3477 23.5937C11.4725 22.0731 10.8102 20.0535 9.20168 19.1743C9.05975 19.1031 8.82321 19.1981 8.84686 19.3882C9.0361 21.1939 10.4554 22.6908 11.4962 24.0927C11.851 24.5916 12.6789 24.1639 12.3477 23.5937Z" fill="#FFAF5F"/>
<path d="M15.2809 22.1205C15.1153 21.5028 14.9734 20.8613 14.8315 20.2197C14.7132 19.5545 14.7605 18.8179 14.4057 18.2239C14.2874 18.0101 13.9562 18.0101 13.838 18.2239C13.1993 19.3644 14.0509 21.2177 14.453 22.3344C14.6422 22.8809 15.4228 22.667 15.2809 22.1205Z" fill="#FFAF5F"/>
<path d="M23.631 23.6887C23.7966 22.9522 24.5536 22.3344 25.074 21.8592C25.5471 21.4078 26.304 20.7425 26.0675 20.0059C25.9965 19.8159 25.8309 19.6495 25.618 19.6495C24.8138 19.6495 24.1278 20.6475 23.6547 21.1939C22.9924 21.9543 22.7795 22.7146 22.8977 23.6887C22.945 24.0927 23.5364 24.0451 23.631 23.6887Z" fill="#FFAF5F"/>
<path d="M26.3276 29.9139C27.2738 29.8188 28.1963 29.7238 29.1425 29.6763C29.9468 29.6287 30.7037 29.7238 31.3897 29.2961C31.579 29.1773 31.579 28.9159 31.3897 28.7971C29.9941 27.918 27.4631 28.5833 26.1857 29.4387C26.0201 29.5575 26.0674 29.9376 26.3276 29.9139Z" fill="#FFAF5F"/>
<path d="M22.6848 36.1627C23.4181 36.9231 24.246 37.5408 25.1449 38.1111C26.0674 38.6813 26.919 39.2991 27.9834 39.4891C28.2436 39.5367 28.4565 39.2991 28.3382 39.0377C27.8651 38.0635 27.0372 37.6359 26.1384 37.1131C25.1922 36.5429 24.1987 36.0439 23.2525 35.4737C22.803 35.1886 22.33 35.8063 22.6848 36.1627Z" fill="#FFAF5F"/>
<path d="M18.6399 38.4437C18.5926 39.2753 18.4034 40.1069 18.4034 40.9623C18.4034 41.6276 18.3561 42.3641 18.9001 42.8393C19.0894 43.0056 19.4205 43.0056 19.5625 42.7443C19.8936 42.174 19.728 41.58 19.6807 40.9623C19.6334 40.1307 19.5388 39.2753 19.4915 38.4437C19.4678 37.8972 18.6636 37.8972 18.6399 38.4437Z" fill="#FFAF5F"/>
<path d="M13.1046 36.3053C12.5605 36.8756 12.0165 37.4221 11.4488 37.9923C10.8574 38.5625 10.4789 39.2516 10.1241 39.9644C10.0295 40.1307 10.1714 40.3208 10.3607 40.2733C12.0401 39.8456 12.8917 38.4437 13.9325 37.1369C14.4056 36.5429 13.6487 35.7351 13.1046 36.3053Z" fill="#FFAF5F"/>
<path d="M9.17799 28.1794C7.80602 27.7517 6.31578 27.5854 4.8965 27.3003C3.69011 27.0627 2.50738 26.8964 1.3483 27.324C1.15907 27.3953 1.0881 27.6804 1.27734 27.7992C2.43642 28.417 3.73742 28.6071 5.03843 28.8209C6.38674 29.0348 7.82968 29.2961 9.15434 28.9397C9.55647 28.8209 9.53281 28.2744 9.17799 28.1794Z" fill="#FFAF5F"/>
<path d="M8.18442 35.3312C8.58655 34.951 9.01233 34.5708 9.48542 34.2382C9.88755 33.9293 10.5026 33.6917 10.5499 33.1215C10.5499 33.0502 10.5026 32.9551 10.4316 32.9076C9.88755 32.5987 9.29619 33.1215 8.89406 33.4779C8.42097 33.9055 8.04249 34.4283 7.68767 34.951C7.49843 35.2599 7.94787 35.5688 8.18442 35.3312Z" fill="#FFAF5F"/>
</svg>
