<svg width="437" height="380" viewBox="0 0 437 380" fill="none" xmlns="http://www.w3.org/2000/svg">
<path opacity="0.1" d="M38.4424 248.267L22.3579 255.625L150.334 370.88L393.3 264.376L379.513 250.653L38.4424 248.267Z" fill="black"/>
<path d="M392.835 250.414L155.646 354.598C153.392 355.562 150.709 355.241 148.884 353.633L26.533 248.163L26.3184 247.948V214.828L58.1941 201.001L261.898 112.359L277.89 124.578L394.016 213.649C395.196 214.614 394.982 216.436 393.586 217.079L369.224 227.798L393.372 246.341C394.874 247.305 394.552 249.663 392.835 250.414Z" fill="#33576E"/>
<path d="M58.1941 200.893L52.5059 249.127L26.4258 247.84V214.72L58.1941 200.893Z" fill="#103B4B"/>
<path d="M261.899 112.251L26.4268 214.72L65.064 247.948L303.756 144.299L261.899 112.251Z" fill="#103B4B"/>
<path d="M392.298 217.507V245.376L153.07 346.987L34.1528 247.841V221.58L156.933 316.118L392.298 217.507Z" fill="white"/>
<path opacity="0.1" d="M392.298 217.507V224.367L156.182 322.978L34.1528 228.119V221.58L156.933 316.118L392.298 217.507Z" fill="black"/>
<g opacity="0.1">
<path opacity="0.1" d="M392.298 230.048V232.192L154.25 330.802L153.714 330.373L34.1528 237.336V234.764L154.572 328.444L392.298 230.048Z" fill="black"/>
</g>
<g opacity="0.1">
<path opacity="0.1" d="M392.298 238.194V240.338L154.25 338.948L153.714 338.519L34.1528 245.482V242.91L154.572 336.59L392.298 238.194Z" fill="black"/>
</g>
<path d="M193.424 243.767C193.424 243.767 187.092 261.667 196.644 275.28C206.196 288.892 236.783 278.495 234.315 257.38C234.315 257.38 232.383 247.197 220.363 247.84L201.903 235.943C201.903 235.943 193.746 238.944 193.424 243.767Z" fill="#CCCCCC"/>
<path d="M237.427 245.589L224.548 246.447C224.548 246.447 211.455 234.978 203.405 230.583C203.298 230.583 224.012 221.258 237.427 245.589Z" fill="#CCCCCC"/>
<path d="M210.811 266.598L189.131 247.733C189.131 247.733 188.38 234.978 203.942 229.833L229.271 247.626C229.378 247.626 207.376 244.196 210.811 266.598Z" fill="#E2E2E2"/>
<path d="M237.428 245.589H235.066C235.066 245.589 231.847 228.118 210.596 231.87C193.21 234.978 193.639 255.772 195.463 268.527C195.571 268.849 198.254 279.567 209.523 279.353C220.9 279.138 232.169 272.064 233.135 262.953C234.101 253.843 227.983 248.376 222.831 248.805C217.036 249.341 208.772 257.058 211.992 265.74L210.704 266.491C210.704 266.491 205.015 252.021 219.397 246.876C233.671 241.731 237.32 260.381 234.959 265.419C232.813 270.028 222.939 287.606 203.727 281.068C203.62 281.068 203.405 280.961 203.298 280.961C201.474 280.317 199.542 279.46 197.61 278.388C197.61 278.388 195.893 276.995 192.888 274.529C179.043 262.953 138.044 229.083 124.95 219.222C98.8704 199.821 41.9878 168.952 41.9878 168.952C43.705 152.981 48.642 142.263 54.5449 135.296C67.2093 120.397 84.3814 121.576 84.3814 121.576C97.6898 136.26 113.896 165.951 142.552 188.781C142.552 188.781 187.951 220.722 208.986 222.33C230.13 223.938 237.213 240.016 237.428 245.589Z" fill="white"/>
<path d="M187.843 260.595C191.063 265.418 194.068 272.814 196.429 276.566C194.927 276.244 193.746 275.279 192.888 274.529C179.043 262.953 138.044 229.083 124.95 219.222C98.8704 199.821 41.9878 168.952 41.9878 168.952C43.705 152.981 48.642 142.262 54.5449 135.295C54.4376 135.724 47.998 155.125 57.55 164.235C67.2093 173.453 116.042 203.894 122.482 209.253C128.922 214.72 183.443 254.057 187.843 260.595Z" fill="#E2E2E2"/>
<path d="M156.075 197.678L148.67 192.854C148.67 192.425 146.416 187.709 141.372 186.209C137.186 184.923 132.249 185.351 127.848 187.817C123.019 190.389 119.584 194.784 118.189 199.714C116.901 204.43 117.438 208.182 118.511 211.397C118.511 211.397 118.511 211.397 118.511 211.504V211.612C118.511 211.719 118.618 211.933 118.726 212.148C118.833 212.362 118.833 212.469 118.94 212.683C119.048 213.005 119.155 213.327 119.37 213.648C120.55 216.113 122.697 218.471 126.775 220.83L130.639 223.831C129.888 223.938 129.136 224.045 128.385 224.045C121.409 224.259 117.009 219.007 114.755 215.042C112.179 210.647 111.75 204.966 113.467 198.321C115.077 192.104 119.477 186.637 125.487 183.422C131.068 180.421 137.4 179.67 142.874 181.493C154.68 185.458 155.968 197.142 156.075 197.678Z" fill="#F7BA34"/>
<path d="M117.974 197.034C116.257 196.927 101.124 196.177 95.9726 189.531C94.47 187.495 93.9334 185.137 94.47 182.564C95.114 179.563 97.0458 177.741 99.729 177.419C104.022 176.884 109.281 180.099 111.964 182.136C115.935 185.03 119.584 188.781 121.087 191.675L118.082 193.283L117.974 197.034ZM100.373 181.707C99.6217 181.814 98.9777 182.028 98.6557 183.529C98.3338 184.815 98.5484 185.887 99.407 186.852C102.305 190.71 111.749 192.104 116.579 192.533C113.145 187.709 104.344 181.278 100.373 181.707Z" fill="#F7BA34"/>
<path d="M121.838 191.461L119.906 190.067L117.33 191.246C116.686 189.638 110.676 175.704 114.433 168.201C115.613 165.95 117.545 164.45 120.014 163.807C123.877 162.949 125.809 164.771 126.56 166.058C130.639 171.953 125.165 186.744 121.838 191.461ZM121.731 167.88C121.516 167.88 121.301 167.88 121.087 167.987C119.799 168.309 118.94 168.952 118.404 170.131C116.579 173.882 118.296 181.064 120.014 185.994C122.804 180.206 124.843 171.095 123.126 168.416C122.911 168.201 122.697 167.773 121.731 167.88Z" fill="#F7BA34"/>
<path d="M156.075 197.677L148.67 192.854C148.67 192.425 146.416 187.709 141.372 186.208C141.372 186.208 151.997 186.423 156.075 197.677Z" fill="#E59F38"/>
<path d="M118.619 211.505V211.612C118.727 211.505 118.619 211.505 118.619 211.505Z" fill="#E59F38"/>
<path d="M130.746 223.831C129.995 223.938 129.244 224.045 128.492 224.045C123.555 221.58 120.765 216.542 119.477 213.541C120.658 216.006 122.804 218.364 126.883 220.722L130.746 223.831Z" fill="#E59F38"/>
<path d="M345.504 71.1992V186.745C293.022 215.471 250.521 220.508 205.123 207.861C195.034 205.074 184.838 201.429 174.32 196.928C167.129 193.926 159.831 190.497 152.426 186.745V71.1992H345.504Z" fill="#103B4B"/>
<path d="M205.23 71.1992V207.861C195.142 205.074 184.946 201.429 174.428 196.928V71.1992H205.23Z" fill="#18495A"/>
<path opacity="0.2" d="M345.504 71.1992V138.726L249.019 176.884L152.426 137.976V71.1992H345.504Z" fill="black"/>
<path d="M427.501 83.9545V92.315L249.019 163.593L70.4292 92.315V83.9545L249.019 16.2134L427.501 83.9545Z" fill="#33576E"/>
<path d="M427.501 83.9543V92.3148L249.019 163.593L70.4292 92.3148V83.9543L249.019 152.446L427.501 83.9543Z" fill="#21475F"/>
<path d="M427.501 83.9543V92.3148L249.019 163.593V152.446L427.501 83.9543Z" fill="#103B4B"/>
<path d="M152.426 168.417V174.848C157.577 177.849 164.554 181.493 173.032 185.245C173.462 185.459 173.891 185.566 174.32 185.781V179.778C164.983 175.598 157.363 171.418 152.426 168.417Z" fill="#F7BA34"/>
<path d="M324.147 180.207C307.619 187.603 280.895 196.285 247.302 196.285C232.169 196.285 217.894 193.927 205.337 190.604V196.285C218.002 199.5 232.276 201.751 247.302 201.751C281.861 201.751 309.443 192.748 326.401 185.138C334.343 181.601 340.782 178.063 345.612 175.169V168.631C340.782 171.847 333.592 176.027 324.147 180.207Z" fill="#F7BA34"/>
<path d="M175.501 180.314C175.179 180.207 174.75 179.992 174.428 179.885V185.888C182.799 189.532 193.317 193.391 205.23 196.392V190.711C193.639 187.71 183.443 183.851 175.501 180.314Z" fill="#FFDC41"/>
<path d="M71.0733 156.09H67.8535V87.3844C67.8535 84.5976 70 82.3467 72.7905 82.2395L248.912 75.594L249.019 78.8096L72.8978 85.455C71.8246 85.455 71.0733 86.3125 71.0733 87.3844V156.09Z" fill="#F7BA34"/>
<path d="M243.677 68.4962L90.0049 81.6335L90.2795 84.8375L243.951 71.7002L243.677 68.4962Z" fill="#F7BA34"/>
<path d="M268.23 71.8423V76.0225C268.23 76.1297 268.23 76.2369 268.23 76.4513C267.694 80.4171 259.322 83.6327 249.019 83.6327C238.716 83.6327 230.344 80.4171 229.808 76.4513C229.808 76.3441 229.808 76.2369 229.808 76.0225V71.8423H268.23Z" fill="#103B4B"/>
<path opacity="0.2" d="M268.23 71.8423V76.0225C268.23 76.1297 268.23 76.2369 268.23 76.4513C267.694 80.4171 259.322 83.6327 249.019 83.6327C238.716 83.6327 230.344 80.4171 229.808 76.4513C229.808 76.3441 229.808 76.2369 229.808 76.0225V71.8423H268.23Z" fill="black"/>
<path d="M249.019 79.4527C259.629 79.4527 268.23 76.0935 268.23 71.9497C268.23 67.806 259.629 64.4468 249.019 64.4468C238.409 64.4468 229.808 67.806 229.808 71.9497C229.808 76.0935 238.409 79.4527 249.019 79.4527Z" fill="#103B4B"/>
<path d="M77.942 183.101L74.5076 171.417L76.0101 183.744C69.2486 186.423 62.4871 185.459 55.7256 179.671L63.9897 162.735L65.9215 158.77H72.8977L74.9369 162.95L83.0936 179.671C81.913 180.528 79.1226 182.35 77.942 183.101Z" fill="#F7BA34"/>
<path d="M75.0443 162.843C73.6491 163.486 71.7172 164.022 69.4634 164.022C66.9949 164.022 65.1703 163.272 63.9897 162.628L65.9216 158.663H72.8978L75.0443 162.843Z" fill="#E59F38"/>
<path d="M69.4631 160.378C72.0711 160.378 74.1854 158.266 74.1854 155.661C74.1854 153.057 72.0711 150.945 69.4631 150.945C66.855 150.945 64.7407 153.057 64.7407 155.661C64.7407 158.266 66.855 160.378 69.4631 160.378Z" fill="#F7BA34"/>
<path d="M72.6827 154.054C72.6827 154.911 71.9314 155.661 71.0728 155.661C70.2142 155.661 69.4629 154.911 69.4629 154.054C69.4629 153.196 70.2142 152.446 71.0728 152.446C72.0387 152.446 72.6827 153.089 72.6827 154.054Z" fill="#FFDC41"/>
</svg>
