<svg width="19" height="19" viewBox="0 0 19 19" fill="none" xmlns="http://www.w3.org/2000/svg">
<path d="M9.12962 18.9986C4.09537 18.9986 0 14.9032 0 9.86839C0 4.83472 4.09537 0.73877 9.12962 0.73877C14.1639 0.73877 18.2592 4.83472 18.2592 9.86839C18.2598 14.9032 14.1639 18.9986 9.12962 18.9986ZM9.12962 1.78231C4.67093 1.78231 1.04354 5.4097 1.04354 9.86839C1.04354 14.3277 4.67093 17.9551 9.12962 17.9551C13.5883 17.9551 17.2157 14.3277 17.2157 9.86839C17.2163 5.4097 13.5889 1.78231 9.12962 1.78231Z" fill="black"/>
<path d="M11.9301 13.1903C11.796 13.1903 11.6632 13.1398 11.5609 13.0375L8.76125 10.2379C8.66307 10.1397 8.6084 10.0074 8.6084 9.86866V3.94549C8.6084 3.65741 8.8418 3.42401 9.13046 3.42401C9.41854 3.42401 9.65193 3.65682 9.65193 3.94549V9.6529L12.2987 12.2997C12.5027 12.5037 12.5027 12.8341 12.2987 13.0375C12.1964 13.1398 12.0629 13.1903 11.9301 13.1903Z" fill="black"/>
</svg>
