<svg width="32" height="32" viewBox="0 0 32 32" fill="none" xmlns="http://www.w3.org/2000/svg">
<path d="M28.875 0H3.125C1.40186 0 0 1.40186 0 3.125V23.9583C0 25.6814 1.40186 27.0833 3.125 27.0833H10.5657L15.1162 31.634C15.604 32.1218 16.3958 32.1218 16.8838 31.634L21.4343 27.0833H28.875C30.5981 27.0833 32 25.6814 32 23.9583V3.125C32 1.40186 30.5981 0 28.875 0ZM20.9167 24.5833C20.5852 24.5833 20.2671 24.7151 20.0327 24.9495L16 28.9822L11.9673 24.9495C11.7329 24.7151 11.4148 24.5835 11.0835 24.5835H7.50806C8.11499 20.4409 11.6917 17.25 16 17.25C20.3083 17.25 23.885 20.4409 24.4922 24.5835H20.9167V24.5833ZM12.3333 11.0833C12.3333 9.06152 13.9783 7.41675 16 7.41675C18.0217 7.41675 19.6667 9.06152 19.6667 11.0833C19.6667 13.1052 18.0217 14.75 16 14.75C13.9783 14.75 12.3333 13.1052 12.3333 11.0833ZM29.5 23.9583C29.5 24.303 29.2197 24.5833 28.875 24.5833H27.0125C26.5527 20.5061 23.8723 17.092 20.2124 15.5825C21.4143 14.4565 22.1665 12.8562 22.1665 11.0833C22.1665 7.68311 19.4001 4.91675 16 4.91675C12.5996 4.91675 9.83325 7.68311 9.83325 11.0833C9.83325 12.8562 10.5854 14.4565 11.7874 15.5825C8.12769 17.092 5.44727 20.5061 4.98755 24.5833H3.125C2.78027 24.5833 2.5 24.303 2.5 23.9583V3.125C2.5 2.78027 2.78027 2.5 3.125 2.5H28.875C29.2197 2.5 29.5 2.78027 29.5 3.125V23.9583Z" fill="black"/>
</svg>
