<svg width="43" height="41" viewBox="0 0 43 41" fill="none" xmlns="http://www.w3.org/2000/svg">
<path d="M17.9818 11.3823C18.0666 11.4148 18.1535 11.431 18.239 11.431C18.521 11.431 18.7881 11.26 18.8976 10.9809C19.0396 10.6177 18.8594 10.2079 18.4969 10.0659C17.4441 9.65463 16.9219 8.46258 17.3339 7.40973C17.7451 6.35689 18.9364 5.8347 19.99 6.24666C20.3553 6.38657 20.7637 6.20921 20.9058 5.8453C21.0478 5.4814 20.8676 5.07227 20.5051 4.93025C18.723 4.23565 16.7135 5.1175 16.0174 6.89603C15.3214 8.67456 16.2033 10.6877 17.9818 11.3823Z" fill="black"/>
<path d="M38.5801 13.6099C38.2225 13.7667 38.06 14.1836 38.2162 14.5405C38.4366 15.0422 38.4472 15.5997 38.2479 16.1091C38.0487 16.6193 37.6629 17.0214 37.1612 17.2411C36.6595 17.4609 36.1027 17.4722 35.5918 17.2729C35.0816 17.0736 34.6796 16.6871 34.4598 16.1854C34.3037 15.8286 33.8889 15.6661 33.5292 15.8215C33.1717 15.9784 33.0092 16.3946 33.1653 16.7521C33.5363 17.5994 34.2153 18.2516 35.0767 18.5886C35.4858 18.7483 35.9126 18.8282 36.3387 18.8282C36.8107 18.8282 37.282 18.7299 37.7279 18.5349C38.5751 18.1639 39.2273 17.4849 39.5644 16.6228C39.9014 15.7608 39.8816 14.8196 39.5107 13.9723C39.3545 13.6162 38.9397 13.4544 38.5801 13.6099Z" fill="black"/>
<path d="M28.71 11.6477C28.3708 11.8399 28.2507 12.271 28.4429 12.6108C28.7121 13.0871 28.7799 13.6411 28.6337 14.1682C28.4867 14.696 28.1433 15.1348 27.6663 15.4048C27.1894 15.6747 26.6354 15.7411 26.109 15.5956C25.5811 15.4486 25.1423 15.1052 24.8724 14.6282C24.6809 14.2883 24.2485 14.1689 23.91 14.3611C23.5708 14.5533 23.4507 14.9843 23.6429 15.3242C24.2788 16.4498 25.4546 17.083 26.6636 17.083C27.2402 17.083 27.8253 16.9388 28.3616 16.6357C29.1672 16.1806 29.7473 15.4394 29.9953 14.5477C30.2433 13.6559 30.1281 12.7218 29.6731 11.9162C29.4809 11.5757 29.0492 11.4555 28.71 11.6477Z" fill="black"/>
<path d="M22.6798 12.9233C23.1653 13.1579 23.6776 13.2689 24.1835 13.2689C25.4702 13.2689 26.7089 12.5488 27.3067 11.3144C27.4763 10.9632 27.3293 10.5407 26.9781 10.3704C26.6248 10.2001 26.2037 10.3485 26.0341 10.6989C25.5416 11.7172 24.3128 12.1425 23.2953 11.6514C22.2778 11.1589 21.8503 9.92944 22.3428 8.91263C22.5124 8.56145 22.3654 8.1389 22.0142 7.9686C21.6616 7.79831 21.2405 7.9467 21.0702 8.29718C20.2392 10.0156 20.9607 12.091 22.6798 12.9233Z" fill="black"/>
<path d="M17.4258 16.9437C17.8702 17.1381 18.3408 17.2356 18.8121 17.2356C19.2389 17.2356 19.6671 17.1557 20.0763 16.9953C20.9383 16.6576 21.6167 16.0054 21.9862 15.1574C22.1431 14.7999 21.9792 14.383 21.6216 14.2268C21.2612 14.0707 20.8472 14.2353 20.6917 14.5914C20.472 15.0931 20.0706 15.4797 19.5604 15.6796C19.051 15.8796 18.4942 15.8697 17.9911 15.6492C16.9552 15.1963 16.481 13.9852 16.9333 12.9493C17.0901 12.5917 16.9262 12.1748 16.5687 12.0187C16.2076 11.8632 15.7942 12.0272 15.6388 12.3833C14.8749 14.1322 15.6769 16.1785 17.4258 16.9437Z" fill="black"/>
<path d="M26.3361 9.50894C26.4485 9.51954 26.5608 9.52449 26.6732 9.52449C27.4752 9.52449 28.2454 9.24891 28.8714 8.73238C30.344 7.51702 30.5539 5.32936 29.3385 3.85679C29.0898 3.55648 28.646 3.51196 28.3436 3.76139C28.0426 4.01012 28.0002 4.45528 28.2482 4.7563C28.9682 5.62825 28.8439 6.92346 27.9712 7.64279C27.5494 7.99115 27.023 8.1572 26.4704 8.10209C25.9256 8.0498 25.4331 7.78835 25.0847 7.3658C24.836 7.06549 24.3923 7.02098 24.0898 7.27041C23.7888 7.51913 23.7464 7.9643 23.9944 8.26531C24.583 8.97899 25.4147 9.42062 26.3361 9.50894Z" fill="black"/>
<path d="M11.8535 15.8895C12.0005 15.5277 11.826 15.1157 11.4642 14.9688C11.1038 14.8232 10.6905 14.9956 10.5435 15.3581C10.1188 16.4053 8.92253 16.9126 7.87251 16.4873C6.82532 16.0619 6.31868 14.8642 6.74335 13.8163C6.88962 13.4545 6.71579 13.0426 6.35401 12.8956C5.99152 12.7493 5.57957 12.9231 5.4333 13.2849C4.71539 15.055 5.57109 17.0787 7.34043 17.7966C7.76581 17.969 8.20532 18.0503 8.63847 18.0503C10.0079 18.0503 11.3073 17.2341 11.8535 15.8895Z" fill="black"/>
<path d="M41.4221 13.8701C41.8404 12.5672 41.497 11.1229 40.495 10.1378C39.7792 9.43547 38.8168 9.04825 37.8212 9.06097C37.6552 8.62005 37.3944 8.22011 37.051 7.88305C36.1444 6.99273 34.8471 6.73694 33.701 7.08529C33.7031 7.02311 33.7165 6.96305 33.7165 6.90087C33.7165 4.1458 31.4398 1.90444 28.6424 1.90444C28.1117 1.90444 27.5923 1.985 27.0907 2.1454C26.2922 1.31513 25.1729 0.83252 24.0028 0.83252C22.7005 0.83252 21.4844 1.42042 20.6846 2.4026C20.0218 2.07544 19.2939 1.90515 18.5449 1.90515C15.898 1.90515 13.7443 4.02639 13.7443 6.63377C13.7443 6.64296 13.7443 6.65214 13.7443 6.66133C13.003 7.01039 12.3862 7.54176 11.9219 8.17983C10.5907 7.6845 9.07075 7.96573 8.01861 8.95639C6.69867 8.54232 5.23034 8.87442 4.22978 9.85731C3.51469 10.5597 3.12535 11.5094 3.12818 12.4873C2.6816 12.6498 2.27601 12.9049 1.93401 13.2406C1.29948 13.8631 0.949707 14.6926 0.949707 15.5766C0.949707 16.4606 1.29948 17.2901 1.93401 17.9141C2.30003 18.273 2.7346 18.5387 3.21438 18.6977C3.22004 19.718 3.63128 20.708 4.37463 21.4379C5.11304 22.1636 6.0924 22.5607 7.10921 22.5727C7.16362 23.2532 7.46039 23.9061 7.96208 24.3986C8.53373 24.9596 9.28414 25.2409 10.036 25.2409C10.32 25.2409 10.6006 25.1879 10.8747 25.1073C13.7803 25.1886 17.7352 31.5791 18.2552 39.0374C18.3195 39.9574 19.0947 40.6781 20.0189 40.6781H23.552C24.4536 40.6781 25.2118 40.0012 25.3135 39.1031L25.3672 38.6071C26.3353 29.6388 28.352 25.0345 31.3607 24.8968C31.9514 25.2154 32.6008 25.3921 33.2565 25.3921C34.267 25.3921 35.2774 25.0141 36.0469 24.2587C36.3126 23.998 36.5359 23.7054 36.7154 23.3846C37.5873 23.3797 38.4367 23.0391 39.0613 22.4257C39.7517 21.7481 40.0986 20.8175 40.0378 19.8798C40.5303 19.6975 40.9783 19.4135 41.3571 19.0418C42.0686 18.343 42.4601 17.4131 42.4601 16.4224C42.4594 15.4635 42.0926 14.5612 41.4221 13.8701ZM14.7109 7.7919C15.0289 7.6845 15.2267 7.36794 15.1857 7.03512C15.1695 6.90299 15.1582 6.76944 15.1582 6.63236C15.1582 4.80436 16.6774 3.31695 18.5457 3.31695C19.2459 3.31695 19.9193 3.52682 20.4952 3.92393C20.6584 4.03699 20.8633 4.07514 21.0562 4.03063C21.2498 3.98611 21.4159 3.86175 21.5127 3.68792C22.0123 2.7976 22.9676 2.24432 24.0035 2.24432C24.9108 2.24432 25.7714 2.67606 26.3056 3.39963C26.5013 3.66531 26.8547 3.75929 27.1564 3.62786C27.6298 3.42153 28.1301 3.31695 28.6431 3.31695C30.6611 3.31695 32.304 4.92449 32.304 6.90016C32.304 7.38419 32.1987 7.85549 32.0016 8.30419C32.0009 8.30631 31.9995 8.30702 31.9988 8.30914L31.9451 8.43774C31.9436 8.43986 31.9429 8.44269 31.9422 8.44481C31.9422 8.44481 31.9422 8.44481 31.9422 8.44551L31.9408 8.44834C31.9281 8.47519 31.9281 8.50345 31.9189 8.53101C31.8991 8.59037 31.8758 8.64902 31.8716 8.70978C31.8709 8.72462 31.8765 8.73805 31.8765 8.75289C31.8765 8.82637 31.8808 8.90057 31.9034 8.96982C31.9104 8.99243 31.9274 9.01009 31.9366 9.032C31.962 9.09065 31.9867 9.15 32.027 9.20088C32.0828 9.27012 32.1521 9.32948 32.2348 9.3747C32.6199 9.58739 32.8495 9.96543 32.8495 10.3866C32.8495 10.8098 32.6057 11.2006 32.215 11.4083C32.0397 11.5009 31.9118 11.6627 31.8617 11.8542C31.8122 12.0457 31.8447 12.2492 31.9514 12.4152C32.1818 12.7728 32.304 13.184 32.304 13.6038C32.304 14.5047 31.7557 15.3152 30.9063 15.6685C30.5537 15.8154 30.382 16.2161 30.5184 16.5736C30.6166 16.8301 30.6661 17.0944 30.6661 17.358C30.6661 18.5945 29.6366 19.6007 28.3703 19.6007C28.2403 19.6007 28.1117 19.5866 27.9831 19.564C27.9563 19.5597 27.9301 19.5534 27.904 19.5484C27.7782 19.5223 27.6524 19.4884 27.5295 19.4403H27.5288C27.0574 19.2566 26.6511 18.9245 26.3883 18.4829C26.2625 18.273 26.0378 18.143 25.7933 18.1381C25.5305 18.1381 25.3192 18.2561 25.1878 18.4617C24.8055 19.0538 24.2678 19.5053 23.6474 19.7915C23.5562 19.8339 23.4643 19.8742 23.3711 19.9088C23.3251 19.9258 23.2771 19.9392 23.2305 19.954C23.1421 19.9823 23.0538 20.0113 22.9634 20.0332C22.9019 20.048 22.839 20.0565 22.7761 20.0685C22.697 20.0833 22.6185 20.101 22.5387 20.1102C22.4009 20.1264 22.261 20.1349 22.1197 20.1363C22.0144 20.137 21.9084 20.1293 21.8031 20.1208C21.7692 20.118 21.7346 20.118 21.7007 20.1144C21.5855 20.1017 21.4703 20.0812 21.3558 20.0579C21.3339 20.0537 21.3106 20.0508 21.2887 20.0459C21.1643 20.0176 21.0414 19.9823 20.9199 19.9413C20.9093 19.9378 20.8987 19.935 20.8881 19.9314C20.7566 19.8855 20.6266 19.8332 20.4994 19.7717C19.9525 19.511 19.4699 19.1209 19.1081 18.6214C18.9965 18.4673 18.8276 18.3642 18.6389 18.3366C18.6043 18.3317 18.5704 18.3288 18.5358 18.3288C18.3817 18.3288 18.2305 18.379 18.1068 18.4744C17.9245 18.6136 17.726 18.7203 17.5211 18.8115C17.5161 18.8136 17.5112 18.8129 17.5062 18.815C17.3211 18.8962 17.1346 18.9563 16.9473 18.998C16.9409 18.9994 16.9346 19.0015 16.9282 19.0029C16.7396 19.0439 16.5502 19.0651 16.3615 19.0651C14.7943 19.0651 13.5203 17.8187 13.5203 16.286C13.5203 15.6995 13.7082 15.1364 14.0636 14.6566C14.1788 14.5018 14.2255 14.3068 14.1929 14.1167C14.1612 13.9267 14.0523 13.7585 13.8926 13.6504C12.9755 13.0293 12.4285 12.0096 12.4285 10.9229C12.4285 10.7618 12.4434 10.6035 12.4667 10.4473C12.4724 10.4071 12.4815 10.3675 12.4886 10.3279C12.5112 10.2092 12.5395 10.0919 12.5748 9.97673C12.5875 9.93646 12.5988 9.89618 12.613 9.8559C12.6568 9.73154 12.7077 9.61071 12.7656 9.49271C12.7769 9.46939 12.7854 9.44536 12.7981 9.42204C13.1874 8.67375 13.8615 8.07878 14.7109 7.7919ZM24.7949 20.7751C25.1553 20.5504 25.4909 20.2861 25.787 19.9745C26.0845 20.26 26.4342 20.4819 26.808 20.655C26.8285 20.6804 26.8483 20.7052 26.8759 20.7327C26.9924 20.8472 27.1182 20.9511 27.2518 21.0436C26.3777 22.0618 25.5962 23.2574 24.9503 24.4163C24.9934 23.0575 24.9129 21.8202 24.7949 20.7751ZM20.209 28.2107C19.0332 25.5073 17.5416 23.5471 16.3735 22.2759C16.5982 22.1749 16.8081 22.0385 16.989 21.8612C17.3797 21.4768 17.5967 20.961 17.6101 20.4275C17.7712 20.3398 17.933 20.224 18.0948 20.1052C18.1952 20.0607 18.2969 20.019 18.3937 19.9668C18.7435 20.3342 19.147 20.6444 19.5851 20.891C20.1489 23.0914 20.2486 25.9574 20.209 28.2107ZM8.95133 23.391C8.56976 23.0158 8.4235 22.4844 8.56058 21.9693C8.62347 21.7312 8.55846 21.4768 8.38817 21.2987C8.2532 21.1581 8.06807 21.0811 7.87729 21.0811C7.82712 21.0811 7.77554 21.0867 7.72537 21.0973C6.86189 21.2867 5.98146 21.0373 5.36318 20.4303C4.788 19.865 4.52514 19.0559 4.66152 18.2659C4.69473 18.0752 4.64739 17.8801 4.53221 17.7247C4.41703 17.5699 4.24321 17.4689 4.05101 17.4449C3.61786 17.3919 3.22781 17.2053 2.92326 16.9057C2.56219 16.5496 2.36292 16.0776 2.36292 15.5766C2.36292 15.0756 2.56219 14.6036 2.92468 14.2482C3.21368 13.9641 3.58323 13.7804 3.99307 13.7175C4.18244 13.6885 4.35132 13.584 4.46225 13.4278C4.57248 13.2716 4.61559 13.0773 4.57955 12.8894C4.44176 12.1517 4.6813 11.3949 5.22044 10.8649C5.92635 10.171 7.00604 9.9951 7.90697 10.4268C8.20021 10.5675 8.55775 10.4876 8.76408 10.2311C8.82202 10.1583 8.88279 10.087 8.95204 10.0191C9.56537 9.41569 10.4493 9.20936 11.2584 9.44183C11.2513 9.46232 11.2492 9.48423 11.2429 9.50472C11.1892 9.67148 11.1503 9.84318 11.1157 10.0163C11.103 10.0785 11.0846 10.1393 11.0747 10.2021C11.0379 10.4381 11.016 10.6784 11.016 10.9222C11.016 12.252 11.5856 13.5091 12.5649 14.3987C12.2646 14.9816 12.1085 15.6225 12.1085 16.2846C12.1085 16.4274 12.1162 16.568 12.1304 16.7072C12.1353 16.7559 12.1452 16.8033 12.1523 16.852C12.1643 16.9411 12.1756 17.0308 12.194 17.1184C12.2053 17.1742 12.2222 17.2279 12.2356 17.2824C12.2547 17.3601 12.2724 17.4392 12.2964 17.5148C12.3148 17.5728 12.3374 17.6279 12.3579 17.6844C12.3833 17.7551 12.4074 17.8264 12.4363 17.895C12.4611 17.9529 12.49 18.0073 12.5169 18.0639C12.548 18.1289 12.5776 18.1946 12.6123 18.2575C12.6427 18.3133 12.6773 18.3656 12.7098 18.42C12.7465 18.4808 12.7819 18.5415 12.8207 18.6002C12.8568 18.6532 12.8956 18.7033 12.9338 18.7542C12.9755 18.81 13.0157 18.8666 13.0603 18.921C13.1012 18.9711 13.1458 19.0178 13.1896 19.0658C13.2355 19.1167 13.2807 19.1683 13.3295 19.217C13.3754 19.263 13.4249 19.3061 13.4729 19.3506C13.5231 19.3965 13.5733 19.4439 13.6255 19.487C13.6757 19.5287 13.7287 19.5675 13.781 19.6071C13.8354 19.6481 13.8891 19.6898 13.9456 19.7286C14 19.7661 14.0566 19.8 14.1131 19.8346C14.171 19.8707 14.229 19.9067 14.289 19.9399C14.347 19.9717 14.4063 20.0007 14.4657 20.0303C14.5279 20.0607 14.5901 20.0918 14.6537 20.1194C14.7144 20.1455 14.7766 20.1688 14.8388 20.1922C14.9045 20.2169 14.9702 20.2423 15.0373 20.2635C15.1009 20.284 15.1659 20.3017 15.231 20.3194C15.2995 20.3377 15.3673 20.3561 15.4366 20.3716C15.503 20.3865 15.5701 20.3978 15.638 20.4091C15.7086 20.4211 15.7793 20.4324 15.8514 20.4416C15.9199 20.4501 15.9891 20.455 16.0584 20.46C16.1036 20.4628 16.1474 20.4699 16.1926 20.472C16.1729 20.614 16.1064 20.7461 16.0005 20.8514C15.8153 21.033 15.5404 21.0973 15.2825 21.021C15.0946 20.9659 14.8932 20.9906 14.7257 21.0888C14.5576 21.1871 14.4374 21.351 14.3936 21.5411C14.3625 21.6775 14.3124 21.8068 14.2452 21.9269C14.1767 22.0498 14.0919 22.1622 13.9902 22.2611C13.5549 22.6893 12.9041 22.8186 12.3289 22.5904C11.9806 22.4512 11.5834 22.6109 11.4266 22.9515C11.351 23.1161 11.2471 23.2638 11.1199 23.3889C10.9701 23.5358 10.7864 23.6503 10.5751 23.728C10.5723 23.7287 10.5709 23.7316 10.5681 23.7323C10.0218 23.9308 9.38731 23.8185 8.95133 23.391ZM23.9611 38.4559L23.9081 38.9441C23.8869 39.1271 23.7336 39.2649 23.5506 39.2649H20.0175C19.8317 39.2649 19.6769 39.1215 19.6642 38.9392C19.1922 32.1685 15.9213 25.7178 12.4611 24.0827C12.5155 24.0912 12.5699 24.0926 12.6243 24.0976C12.6737 24.1025 12.7232 24.1089 12.772 24.111C12.8398 24.1138 12.9069 24.1117 12.9741 24.1103C13.0221 24.1089 13.0701 24.1103 13.1175 24.1068C13.1846 24.1018 13.251 24.0912 13.3175 24.082C13.3648 24.0757 13.4121 24.0714 13.4595 24.0623C13.5252 24.0495 13.5895 24.0319 13.6545 24.0149C13.7011 24.0029 13.7478 23.9937 13.7937 23.9789C13.8587 23.9584 13.9216 23.9322 13.9852 23.9075C14.0283 23.8905 14.0728 23.8764 14.1152 23.8573C14.1845 23.8262 14.2502 23.7895 14.3173 23.7535C14.3519 23.7344 14.388 23.7188 14.4219 23.6991C14.5046 23.6503 14.583 23.5945 14.6614 23.5372C14.677 23.5252 14.6946 23.516 14.7102 23.504C14.8035 23.432 14.8932 23.3549 14.9787 23.2709C15.0479 23.203 15.113 23.1324 15.1744 23.0582C16.5566 24.5343 18.9088 27.5748 20.0394 32.0936C20.1221 32.4271 20.4351 32.6497 20.7764 32.627C21.1191 32.6016 21.394 32.3338 21.4279 31.9918C21.4548 31.7212 22.0179 25.8698 21.1672 21.4648C21.2173 21.4739 21.2689 21.4761 21.3191 21.4838C21.4321 21.5015 21.5452 21.5178 21.6604 21.5277C21.7374 21.534 21.8144 21.5361 21.8914 21.5397C21.9593 21.5425 22.0257 21.5503 22.0935 21.5503C22.1331 21.5503 22.1713 21.5453 22.2101 21.5446C22.29 21.5425 22.3698 21.5383 22.4497 21.5326C22.5557 21.5255 22.6616 21.5156 22.7662 21.5015C22.8411 21.4916 22.9146 21.4803 22.9888 21.4676C23.1033 21.4471 23.217 21.4231 23.3294 21.3948C23.3661 21.3856 23.4043 21.3814 23.441 21.3708C23.6346 23.4242 23.6396 26.1708 22.8708 28.9053C22.7676 29.2707 22.9725 29.6522 23.3336 29.7688C23.6947 29.8868 24.0833 29.696 24.2141 29.3406C24.231 29.2947 25.7721 25.1405 28.0064 22.3311C28.0135 22.3424 28.0248 22.3516 28.0326 22.3636C28.111 22.483 28.2 22.596 28.3039 22.6992C28.3067 22.702 28.3081 22.7056 28.311 22.7084C28.4049 22.8003 28.5074 22.8815 28.6148 22.9536C28.6183 22.9557 28.6212 22.9592 28.6247 22.9621C28.6791 22.9981 28.7385 23.0221 28.7957 23.0532C28.8565 23.0857 28.9144 23.1239 28.978 23.15C29.0105 23.1634 29.0451 23.1691 29.0776 23.1811C29.1702 23.2143 29.2621 23.2475 29.3589 23.268C29.4896 23.2956 29.6224 23.3111 29.7567 23.314C29.833 23.4588 29.9185 23.598 30.0125 23.7309C25.3658 25.4338 24.325 35.0818 23.9611 38.4559ZM40.3664 18.0335C40.0258 18.3684 39.592 18.5882 39.1143 18.6701C38.9157 18.704 38.7412 18.8213 38.6338 18.993C38.5264 19.1648 38.4988 19.3732 38.5561 19.5668C38.749 20.2247 38.5631 20.9334 38.0706 21.4174C37.634 21.8449 37.0037 22.0406 36.3924 21.9474C36.0688 21.8958 35.7466 22.0788 35.6251 22.3876C35.4972 22.7148 35.3064 23.0045 35.0555 23.2497C34.1942 24.0962 32.8636 24.2064 31.8779 23.5825C31.8772 23.5818 31.8765 23.5811 31.8758 23.5803C31.714 23.4772 31.5762 23.3691 31.454 23.2489C31.1862 22.9861 30.9869 22.6724 30.8597 22.3162C30.83 22.2343 30.7848 22.1643 30.7318 22.1007C30.717 22.083 30.6986 22.0696 30.6823 22.0534C30.6407 22.0131 30.5976 21.9778 30.5481 21.9488C30.5241 21.9347 30.5 21.9234 30.4746 21.9128C30.4258 21.8916 30.3764 21.8767 30.3234 21.8668C30.2951 21.8612 30.2683 21.8555 30.2386 21.8534C30.2238 21.8527 30.2089 21.8463 30.1941 21.8463C30.1326 21.8463 30.0704 21.8541 30.0089 21.8711C30.0082 21.8711 30.0068 21.8711 30.0054 21.8711C29.9757 21.8795 29.9454 21.8795 29.9157 21.8838C29.7256 21.912 29.5383 21.8682 29.3871 21.7608C29.3582 21.7396 29.3271 21.722 29.3009 21.6965C29.2515 21.6485 29.2126 21.5927 29.1808 21.5333C29.173 21.5185 29.1688 21.5015 29.1617 21.486C29.1419 21.44 29.125 21.392 29.1158 21.3418C29.0967 21.2379 29.0988 21.1291 29.132 21.0203C29.1412 20.9906 29.1483 20.9602 29.1532 20.9299C29.3723 20.8832 29.5836 20.8154 29.7864 20.732C29.8443 20.708 29.8966 20.6748 29.9531 20.6486C30.1008 20.5794 30.2457 20.5059 30.382 20.419C30.452 20.3745 30.5149 20.3229 30.5813 20.2741C30.6951 20.19 30.8053 20.1038 30.9085 20.0084C30.9728 19.9484 31.0321 19.8855 31.0915 19.8212C31.1847 19.7216 31.2717 19.6184 31.3529 19.5089C31.4059 19.4382 31.4561 19.3668 31.5034 19.2927C31.5776 19.1761 31.6426 19.0545 31.7034 18.9295C31.7408 18.8524 31.7804 18.7775 31.8122 18.6977C31.8687 18.5571 31.9104 18.4115 31.9493 18.2631C31.9684 18.191 31.9938 18.1225 32.0079 18.0483C32.0518 17.8236 32.0793 17.5933 32.0793 17.3558C32.0793 17.1283 32.0574 16.9022 32.0136 16.6789C33.0643 16.014 33.7165 14.8636 33.7165 13.6023C33.7165 13.1353 33.6254 12.676 33.4501 12.2457C33.8338 11.8853 34.0988 11.4189 34.2076 10.908C34.2436 10.7377 34.2627 10.5625 34.2627 10.3844C34.2627 10.2142 34.2429 10.0467 34.2097 9.88346C34.1991 9.83046 34.1793 9.78171 34.1652 9.72942C34.1355 9.6206 34.1044 9.51249 34.0613 9.40862C34.0366 9.34997 34.0048 9.29556 33.9758 9.23903C33.9292 9.14788 33.8819 9.05814 33.8246 8.97335C33.7865 8.91682 33.7434 8.86453 33.701 8.81083C33.6635 8.76349 33.6331 8.7119 33.5922 8.66739C34.3468 8.1558 35.3926 8.23141 36.061 8.88926C36.3486 9.1712 36.5338 9.53016 36.5974 9.92656C36.627 10.1145 36.7309 10.282 36.8864 10.3922C37.0411 10.5017 37.2354 10.5441 37.4206 10.5109C38.1823 10.3738 38.9617 10.6106 39.505 11.1448C40.2039 11.8316 40.382 12.8795 39.9495 13.7521C39.799 14.0546 39.8838 14.4206 40.1516 14.6262C40.2258 14.6834 40.2986 14.7435 40.3671 14.8106C40.8052 15.2417 41.0469 15.8133 41.0469 16.421C41.0462 17.0308 40.8045 17.6024 40.3664 18.0335Z" fill="black"/>
</svg>
