<svg width="68" height="68" viewBox="0 0 68 68" fill="none" xmlns="http://www.w3.org/2000/svg">
<path d="M11.6864 27.3706H7.0376C6.48735 27.3706 6.0415 27.8166 6.0415 28.3667C6.0415 28.9168 6.48735 29.3628 7.0376 29.3628H11.6864C12.2367 29.3628 12.6825 28.9168 12.6825 28.3667C12.6825 27.8167 12.2367 27.3706 11.6864 27.3706Z" fill="black"/>
<path d="M60.9627 27.3706H56.314C55.7637 27.3706 55.3179 27.8166 55.3179 28.3667C55.3179 28.9168 55.7637 29.3628 56.314 29.3628H60.9627C61.5128 29.3628 61.9588 28.9168 61.9588 28.3667C61.9588 27.8166 61.5129 27.3706 60.9627 27.3706Z" fill="black"/>
<path d="M15.8575 38.9594C15.5824 38.4828 14.9729 38.3195 14.4967 38.5947L10.4706 40.9191C9.58979 41.4276 9.95649 42.7782 10.9696 42.7782C11.3348 42.7782 11.1602 42.8215 15.4928 40.3202C15.9693 40.045 16.1325 39.4358 15.8575 38.9594Z" fill="black"/>
<path d="M58.5578 14.1882C58.2826 13.7118 57.6734 13.5486 57.197 13.8236L53.171 16.148C52.6946 16.423 52.5314 17.0323 52.8065 17.5088C53.0819 17.9857 53.6914 18.1481 54.1673 17.8734L58.1932 15.549C58.6696 15.2738 58.8329 14.6646 58.5578 14.1882Z" fill="black"/>
<path d="M57.2635 40.3878L53.2376 38.0635C52.7609 37.7883 52.1517 37.9518 51.8768 38.4281C51.6017 38.9045 51.7649 39.5138 52.2413 39.7889C56.5716 42.2888 56.3989 42.2468 56.7645 42.2468C57.7768 42.2468 58.1452 40.8969 57.2635 40.3878Z" fill="black"/>
<path d="M14.5628 15.6166L10.5369 13.2922C10.0602 13.017 9.45102 13.1804 9.17609 13.6568C8.90104 14.1333 9.06427 14.7427 9.54066 15.0177C13.8709 17.5178 13.6981 17.4757 14.0637 17.4757C15.076 17.4756 15.4448 16.1258 14.5628 15.6166Z" fill="black"/>
<path d="M48.8429 3.14458C48.3663 2.8694 47.757 3.03276 47.4821 3.50915L45.1578 7.53496C44.7731 8.20101 45.2584 9.02949 46.0195 9.02949C46.3637 9.02949 46.6985 8.85086 46.883 8.53132L49.2073 4.50538C49.4825 4.02885 49.3193 3.41964 48.8429 3.14458Z" fill="black"/>
<path d="M22.5241 7.53511L20.1998 3.50931C19.9246 3.03291 19.3154 2.86955 18.839 3.14474C18.3626 3.41979 18.1994 4.029 18.4744 4.50553L20.7988 8.53133C21.0742 9.00839 21.6838 9.17069 22.1596 8.8959C22.636 8.62071 22.7992 8.01151 22.5241 7.53511Z" fill="black"/>
<path d="M34 0C33.4498 0 33.0039 0.445983 33.0039 0.996092V4.99069C33.0039 5.54079 33.4499 5.98678 34 5.98678C34.5501 5.98678 34.9961 5.54079 34.9961 4.99069V0.996092C34.9962 0.445983 34.5502 0 34 0Z" fill="black"/>
<path d="M47.9122 13.743C44.8854 10.3414 40.7964 8.14314 36.3983 7.55305C35.8551 7.48001 35.3518 7.86264 35.2785 8.40796C35.2054 8.95316 35.5881 9.45453 36.1334 9.52784C44.3226 10.6265 50.5602 17.6858 50.965 26.3133C50.9911 26.8659 51.462 27.2886 52.007 27.2616C52.5565 27.2358 52.981 26.7694 52.9554 26.2198C52.738 21.5845 50.947 17.1534 47.9122 13.743Z" fill="black"/>
<path d="M51.8187 29.9372C51.2789 29.8335 50.7564 30.1872 50.6526 30.7276C49.4457 37.0132 45.5649 40.1332 44.8298 40.9168C44.4828 41.2839 41.7816 44.2145 41.2167 47.0588H37.5498V44.7632C41.1857 39.482 41.0918 39.7341 41.0918 39.3086V37.2556C41.9312 36.8267 42.5085 35.9551 42.5085 34.9496V34.3297C42.5085 32.9015 41.3465 31.7397 39.9186 31.7397H27.9648C26.5367 31.7397 25.3748 32.9017 25.3748 34.3297C25.3748 34.874 25.2194 36.4523 26.7917 37.2554C26.7917 39.4953 26.7429 39.5476 26.9672 39.8733L30.3336 44.7629V47.0586H26.6675C26.1314 44.3362 23.4583 41.2652 22.9847 40.8505C19.1158 37.4519 16.8967 32.477 16.8967 27.2014C16.8967 18.2617 23.2821 10.6635 31.7497 9.52743C32.2949 9.45425 32.6776 8.95288 32.6044 8.40756C32.5311 7.86236 32.0286 7.4792 31.4846 7.55264C22.0322 8.821 14.9043 17.2681 14.9043 27.2016C14.9043 33.0341 17.3567 38.5401 21.6344 42.3161C22.427 43.16 24.2507 45.429 24.6834 47.3024C23.7993 47.7149 23.1834 48.6102 23.1834 49.6486C23.1834 51.2556 23.0592 51.9728 23.736 52.8362C23.0599 53.6985 23.1834 54.4081 23.1834 56.0238C23.1834 56.625 23.391 57.1777 23.736 57.6177C23.0599 58.48 23.1834 59.1894 23.1834 60.8053C23.1834 62.2334 24.3454 63.3953 25.7734 63.3953H28.3602C28.8724 66.0086 31.1964 67.9999 33.9413 67.9999C36.6862 67.9999 39.0101 66.0086 39.5225 63.3953H42.1093C43.5374 63.3953 44.6993 62.2333 44.6993 60.8053C44.6993 59.1983 44.8234 58.4811 44.1466 57.6177C44.8228 56.7555 44.6993 56.046 44.6993 54.4302C44.6993 53.8291 44.4915 53.2763 44.1466 52.8363C44.8228 51.974 44.6993 51.2643 44.6993 49.6487C44.6993 48.6104 44.0838 47.7153 43.1997 47.3027C43.6333 45.434 45.4559 43.1623 46.2486 42.3159C49.516 39.4316 51.774 35.4513 52.6088 31.1032C52.7129 30.5629 52.3589 30.0408 51.8187 29.9372ZM27.3669 34.9496V34.3297C27.3669 34.0001 27.635 33.7321 27.9645 33.7321H39.9184C40.2479 33.7321 40.5161 34.0002 40.5161 34.3297V34.9496C40.5161 35.2791 40.2479 35.5472 39.9184 35.5472H27.9645C27.635 35.5472 27.3669 35.2791 27.3669 34.9496ZM28.7837 38.9989V37.5395H39.0995V38.9989C35.4636 44.28 35.5575 44.0279 35.5575 44.4535V47.0588H32.3255C32.3255 44.2074 32.3772 44.2188 32.15 43.8885L28.7837 38.9989ZM30.41 63.3953H37.4731C36.396 66.8651 31.4864 66.8633 30.41 63.3953ZM42.7072 60.8053C42.7072 61.1348 42.4392 61.403 42.1096 61.403C40.5603 61.403 27.5559 61.403 25.7736 61.403C25.4441 61.403 25.176 61.1348 25.176 60.8053V59.2116C25.176 58.8819 25.4441 58.6139 25.7736 58.6139H42.1096C42.4392 58.6139 42.7072 58.8819 42.7072 59.2116V60.8053ZM42.7072 56.0238C42.7072 56.3533 42.4392 56.6215 42.1096 56.6215H25.7736C25.4441 56.6215 25.176 56.3533 25.176 56.0238V54.4301C25.176 54.1005 25.4441 53.8324 25.7736 53.8324H42.1096C42.4392 53.8324 42.7072 54.1005 42.7072 54.4301V56.0238ZM42.7072 51.2424C42.7072 51.5721 42.4392 51.8401 42.1096 51.8401H25.7736C25.4441 51.8401 25.176 51.5721 25.176 51.2424V49.6487C25.176 49.3192 25.4441 49.051 25.7736 49.051H42.1096C42.4392 49.051 42.7072 49.3192 42.7072 49.6487V51.2424Z" fill="black"/>
</svg>
