<svg width="28" height="25" viewBox="0 0 28 25" fill="none" xmlns="http://www.w3.org/2000/svg">
<path d="M26.7773 0.189452C25.5138 -0.490895 24.1045 0.821204 23.2783 1.59874C21.3832 3.4454 19.7795 5.58363 17.9813 7.52748C15.9889 9.66572 14.1422 11.804 12.1012 13.8937C10.9349 15.06 9.6714 16.3235 8.89386 17.7814C7.14439 16.0804 5.63791 14.2338 3.69406 12.7274C2.28477 11.6582 -0.0478489 10.8807 0.000747368 13.4563C0.0979398 16.8095 3.06231 20.4056 5.24914 22.6896C6.17247 23.6615 7.38737 24.682 8.79666 24.7306C10.4975 24.8278 12.247 22.7868 13.2675 21.6691C15.0657 19.7252 16.5235 17.5383 18.1757 15.5459C20.314 12.9217 22.5008 10.3461 24.5904 7.67327C25.9025 6.021 30.0332 1.93884 26.7773 0.189452ZM2.1389 13.2619C2.09031 13.2619 2.04171 13.2619 1.94452 13.3104C1.75013 13.2619 1.60434 13.2132 1.40996 13.116C1.55575 13.0189 1.79873 13.0675 2.1389 13.2619Z" fill="black"/>
</svg>
